%TF.GenerationSoftware,KiCad,Pcbnew,5.1.9*%
%TF.CreationDate,2021-02-07T17:47:43+01:00*%
%TF.ProjectId,relay_terminal,72656c61-795f-4746-9572-6d696e616c2e,rev?*%
%TF.SameCoordinates,Original*%
%TF.FileFunction,Legend,Top*%
%TF.FilePolarity,Positive*%
%FSLAX46Y46*%
G04 Gerber Fmt 4.6, Leading zero omitted, Abs format (unit mm)*
G04 Created by KiCad (PCBNEW 5.1.9) date 2021-02-07 17:47:43*
%MOMM*%
%LPD*%
G01*
G04 APERTURE LIST*
%ADD10C,0.150000*%
%ADD11C,0.120000*%
G04 APERTURE END LIST*
D10*
X156452380Y-87619047D02*
X157166666Y-87619047D01*
X157309523Y-87666666D01*
X157404761Y-87761904D01*
X157452380Y-87904761D01*
X157452380Y-88000000D01*
X157452380Y-86666666D02*
X157452380Y-87142857D01*
X156452380Y-87142857D01*
X157357142Y-85761904D02*
X157404761Y-85809523D01*
X157452380Y-85952380D01*
X157452380Y-86047619D01*
X157404761Y-86190476D01*
X157309523Y-86285714D01*
X157214285Y-86333333D01*
X157023809Y-86380952D01*
X156880952Y-86380952D01*
X156690476Y-86333333D01*
X156595238Y-86285714D01*
X156500000Y-86190476D01*
X156452380Y-86047619D01*
X156452380Y-85952380D01*
X156500000Y-85809523D01*
X156547619Y-85761904D01*
X156452380Y-85047619D02*
X157166666Y-85047619D01*
X157309523Y-85095238D01*
X157404761Y-85190476D01*
X157452380Y-85333333D01*
X157452380Y-85428571D01*
X157452380Y-84095238D02*
X157452380Y-84571428D01*
X156452380Y-84571428D01*
X157357142Y-83190476D02*
X157404761Y-83238095D01*
X157452380Y-83380952D01*
X157452380Y-83476190D01*
X157404761Y-83619047D01*
X157309523Y-83714285D01*
X157214285Y-83761904D01*
X157023809Y-83809523D01*
X156880952Y-83809523D01*
X156690476Y-83761904D01*
X156595238Y-83714285D01*
X156500000Y-83619047D01*
X156452380Y-83476190D01*
X156452380Y-83380952D01*
X156500000Y-83238095D01*
X156547619Y-83190476D01*
X156452380Y-82476190D02*
X157166666Y-82476190D01*
X157309523Y-82523809D01*
X157404761Y-82619047D01*
X157452380Y-82761904D01*
X157452380Y-82857142D01*
X157452380Y-81523809D02*
X157452380Y-82000000D01*
X156452380Y-82000000D01*
X157357142Y-80619047D02*
X157404761Y-80666666D01*
X157452380Y-80809523D01*
X157452380Y-80904761D01*
X157404761Y-81047619D01*
X157309523Y-81142857D01*
X157214285Y-81190476D01*
X157023809Y-81238095D01*
X156880952Y-81238095D01*
X156690476Y-81190476D01*
X156595238Y-81142857D01*
X156500000Y-81047619D01*
X156452380Y-80904761D01*
X156452380Y-80809523D01*
X156500000Y-80666666D01*
X156547619Y-80619047D01*
X156452380Y-79904761D02*
X157166666Y-79904761D01*
X157309523Y-79952380D01*
X157404761Y-80047619D01*
X157452380Y-80190476D01*
X157452380Y-80285714D01*
X157452380Y-78952380D02*
X157452380Y-79428571D01*
X156452380Y-79428571D01*
X157357142Y-78047619D02*
X157404761Y-78095238D01*
X157452380Y-78238095D01*
X157452380Y-78333333D01*
X157404761Y-78476190D01*
X157309523Y-78571428D01*
X157214285Y-78619047D01*
X157023809Y-78666666D01*
X156880952Y-78666666D01*
X156690476Y-78619047D01*
X156595238Y-78571428D01*
X156500000Y-78476190D01*
X156452380Y-78333333D01*
X156452380Y-78238095D01*
X156500000Y-78095238D01*
X156547619Y-78047619D01*
X130738095Y-87816666D02*
X129438095Y-87816666D01*
X129438095Y-87321428D01*
X129500000Y-87197619D01*
X129561904Y-87135714D01*
X129685714Y-87073809D01*
X129871428Y-87073809D01*
X129995238Y-87135714D01*
X130057142Y-87197619D01*
X130119047Y-87321428D01*
X130119047Y-87816666D01*
X130738095Y-86516666D02*
X129871428Y-86516666D01*
X130119047Y-86516666D02*
X129995238Y-86454761D01*
X129933333Y-86392857D01*
X129871428Y-86269047D01*
X129871428Y-86145238D01*
X130738095Y-85711904D02*
X129871428Y-85711904D01*
X129438095Y-85711904D02*
X129500000Y-85773809D01*
X129561904Y-85711904D01*
X129500000Y-85650000D01*
X129438095Y-85711904D01*
X129561904Y-85711904D01*
X129871428Y-85092857D02*
X130738095Y-85092857D01*
X129995238Y-85092857D02*
X129933333Y-85030952D01*
X129871428Y-84907142D01*
X129871428Y-84721428D01*
X129933333Y-84597619D01*
X130057142Y-84535714D01*
X130738095Y-84535714D01*
X129871428Y-84102380D02*
X129871428Y-83607142D01*
X129438095Y-83916666D02*
X130552380Y-83916666D01*
X130676190Y-83854761D01*
X130738095Y-83730952D01*
X130738095Y-83607142D01*
X130676190Y-82678571D02*
X130738095Y-82802380D01*
X130738095Y-83050000D01*
X130676190Y-83173809D01*
X130552380Y-83235714D01*
X130057142Y-83235714D01*
X129933333Y-83173809D01*
X129871428Y-83050000D01*
X129871428Y-82802380D01*
X129933333Y-82678571D01*
X130057142Y-82616666D01*
X130180952Y-82616666D01*
X130304761Y-83235714D01*
X130738095Y-82059523D02*
X129871428Y-82059523D01*
X130119047Y-82059523D02*
X129995238Y-81997619D01*
X129933333Y-81935714D01*
X129871428Y-81811904D01*
X129871428Y-81688095D01*
X130738095Y-80264285D02*
X129438095Y-80264285D01*
X130738095Y-79707142D02*
X130057142Y-79707142D01*
X129933333Y-79769047D01*
X129871428Y-79892857D01*
X129871428Y-80078571D01*
X129933333Y-80202380D01*
X129995238Y-80264285D01*
X130738095Y-78902380D02*
X130676190Y-79026190D01*
X130614285Y-79088095D01*
X130490476Y-79150000D01*
X130119047Y-79150000D01*
X129995238Y-79088095D01*
X129933333Y-79026190D01*
X129871428Y-78902380D01*
X129871428Y-78716666D01*
X129933333Y-78592857D01*
X129995238Y-78530952D01*
X130119047Y-78469047D01*
X130490476Y-78469047D01*
X130614285Y-78530952D01*
X130676190Y-78592857D01*
X130738095Y-78716666D01*
X130738095Y-78902380D01*
X130738095Y-77911904D02*
X129871428Y-77911904D01*
X129995238Y-77911904D02*
X129933333Y-77850000D01*
X129871428Y-77726190D01*
X129871428Y-77540476D01*
X129933333Y-77416666D01*
X130057142Y-77354761D01*
X130738095Y-77354761D01*
X130057142Y-77354761D02*
X129933333Y-77292857D01*
X129871428Y-77169047D01*
X129871428Y-76983333D01*
X129933333Y-76859523D01*
X130057142Y-76797619D01*
X130738095Y-76797619D01*
X130676190Y-75683333D02*
X130738095Y-75807142D01*
X130738095Y-76054761D01*
X130676190Y-76178571D01*
X130552380Y-76240476D01*
X130057142Y-76240476D01*
X129933333Y-76178571D01*
X129871428Y-76054761D01*
X129871428Y-75807142D01*
X129933333Y-75683333D01*
X130057142Y-75621428D01*
X130180952Y-75621428D01*
X130304761Y-76240476D01*
X132838095Y-88342857D02*
X131971428Y-88342857D01*
X132219047Y-88342857D02*
X132095238Y-88280952D01*
X132033333Y-88219047D01*
X131971428Y-88095238D01*
X131971428Y-87971428D01*
X132776190Y-87042857D02*
X132838095Y-87166666D01*
X132838095Y-87414285D01*
X132776190Y-87538095D01*
X132652380Y-87600000D01*
X132157142Y-87600000D01*
X132033333Y-87538095D01*
X131971428Y-87414285D01*
X131971428Y-87166666D01*
X132033333Y-87042857D01*
X132157142Y-86980952D01*
X132280952Y-86980952D01*
X132404761Y-87600000D01*
X132838095Y-86238095D02*
X132776190Y-86361904D01*
X132652380Y-86423809D01*
X131538095Y-86423809D01*
X132838095Y-85185714D02*
X132157142Y-85185714D01*
X132033333Y-85247619D01*
X131971428Y-85371428D01*
X131971428Y-85619047D01*
X132033333Y-85742857D01*
X132776190Y-85185714D02*
X132838095Y-85309523D01*
X132838095Y-85619047D01*
X132776190Y-85742857D01*
X132652380Y-85804761D01*
X132528571Y-85804761D01*
X132404761Y-85742857D01*
X132342857Y-85619047D01*
X132342857Y-85309523D01*
X132280952Y-85185714D01*
X131971428Y-84690476D02*
X132838095Y-84380952D01*
X131971428Y-84071428D02*
X132838095Y-84380952D01*
X133147619Y-84504761D01*
X133209523Y-84566666D01*
X133271428Y-84690476D01*
X131971428Y-82771428D02*
X131971428Y-82276190D01*
X131538095Y-82585714D02*
X132652380Y-82585714D01*
X132776190Y-82523809D01*
X132838095Y-82400000D01*
X132838095Y-82276190D01*
X132776190Y-81347619D02*
X132838095Y-81471428D01*
X132838095Y-81719047D01*
X132776190Y-81842857D01*
X132652380Y-81904761D01*
X132157142Y-81904761D01*
X132033333Y-81842857D01*
X131971428Y-81719047D01*
X131971428Y-81471428D01*
X132033333Y-81347619D01*
X132157142Y-81285714D01*
X132280952Y-81285714D01*
X132404761Y-81904761D01*
X132838095Y-80728571D02*
X131971428Y-80728571D01*
X132219047Y-80728571D02*
X132095238Y-80666666D01*
X132033333Y-80604761D01*
X131971428Y-80480952D01*
X131971428Y-80357142D01*
X132838095Y-79923809D02*
X131971428Y-79923809D01*
X132095238Y-79923809D02*
X132033333Y-79861904D01*
X131971428Y-79738095D01*
X131971428Y-79552380D01*
X132033333Y-79428571D01*
X132157142Y-79366666D01*
X132838095Y-79366666D01*
X132157142Y-79366666D02*
X132033333Y-79304761D01*
X131971428Y-79180952D01*
X131971428Y-78995238D01*
X132033333Y-78871428D01*
X132157142Y-78809523D01*
X132838095Y-78809523D01*
X132838095Y-78190476D02*
X131971428Y-78190476D01*
X131538095Y-78190476D02*
X131600000Y-78252380D01*
X131661904Y-78190476D01*
X131600000Y-78128571D01*
X131538095Y-78190476D01*
X131661904Y-78190476D01*
X131971428Y-77571428D02*
X132838095Y-77571428D01*
X132095238Y-77571428D02*
X132033333Y-77509523D01*
X131971428Y-77385714D01*
X131971428Y-77200000D01*
X132033333Y-77076190D01*
X132157142Y-77014285D01*
X132838095Y-77014285D01*
X132838095Y-75838095D02*
X132157142Y-75838095D01*
X132033333Y-75900000D01*
X131971428Y-76023809D01*
X131971428Y-76271428D01*
X132033333Y-76395238D01*
X132776190Y-75838095D02*
X132838095Y-75961904D01*
X132838095Y-76271428D01*
X132776190Y-76395238D01*
X132652380Y-76457142D01*
X132528571Y-76457142D01*
X132404761Y-76395238D01*
X132342857Y-76271428D01*
X132342857Y-75961904D01*
X132280952Y-75838095D01*
X132838095Y-75033333D02*
X132776190Y-75157142D01*
X132652380Y-75219047D01*
X131538095Y-75219047D01*
X134938095Y-87569047D02*
X133638095Y-87569047D01*
X134133333Y-87569047D02*
X134071428Y-87445238D01*
X134071428Y-87197619D01*
X134133333Y-87073809D01*
X134195238Y-87011904D01*
X134319047Y-86950000D01*
X134690476Y-86950000D01*
X134814285Y-87011904D01*
X134876190Y-87073809D01*
X134938095Y-87197619D01*
X134938095Y-87445238D01*
X134876190Y-87569047D01*
X134071428Y-86516666D02*
X134938095Y-86207142D01*
X134071428Y-85897619D02*
X134938095Y-86207142D01*
X135247619Y-86330952D01*
X135309523Y-86392857D01*
X135371428Y-86516666D01*
X134876190Y-84473809D02*
X134938095Y-84288095D01*
X134938095Y-83978571D01*
X134876190Y-83854761D01*
X134814285Y-83792857D01*
X134690476Y-83730952D01*
X134566666Y-83730952D01*
X134442857Y-83792857D01*
X134380952Y-83854761D01*
X134319047Y-83978571D01*
X134257142Y-84226190D01*
X134195238Y-84350000D01*
X134133333Y-84411904D01*
X134009523Y-84473809D01*
X133885714Y-84473809D01*
X133761904Y-84411904D01*
X133700000Y-84350000D01*
X133638095Y-84226190D01*
X133638095Y-83916666D01*
X133700000Y-83730952D01*
X134938095Y-83173809D02*
X133638095Y-83173809D01*
X133638095Y-82678571D01*
X133700000Y-82554761D01*
X133761904Y-82492857D01*
X133885714Y-82430952D01*
X134071428Y-82430952D01*
X134195238Y-82492857D01*
X134257142Y-82554761D01*
X134319047Y-82678571D01*
X134319047Y-83173809D01*
X134938095Y-81873809D02*
X133638095Y-81873809D01*
X134566666Y-81440476D01*
X133638095Y-81007142D01*
X134938095Y-81007142D01*
X134071428Y-79521428D02*
X134938095Y-79211904D01*
X134071428Y-78902380D01*
X134938095Y-77726190D02*
X134938095Y-78469047D01*
X134938095Y-78097619D02*
X133638095Y-78097619D01*
X133823809Y-78221428D01*
X133947619Y-78345238D01*
X134009523Y-78469047D01*
X134814285Y-77169047D02*
X134876190Y-77107142D01*
X134938095Y-77169047D01*
X134876190Y-77230952D01*
X134814285Y-77169047D01*
X134938095Y-77169047D01*
X133638095Y-76302380D02*
X133638095Y-76178571D01*
X133700000Y-76054761D01*
X133761904Y-75992857D01*
X133885714Y-75930952D01*
X134133333Y-75869047D01*
X134442857Y-75869047D01*
X134690476Y-75930952D01*
X134814285Y-75992857D01*
X134876190Y-76054761D01*
X134938095Y-76178571D01*
X134938095Y-76302380D01*
X134876190Y-76426190D01*
X134814285Y-76488095D01*
X134690476Y-76550000D01*
X134442857Y-76611904D01*
X134133333Y-76611904D01*
X133885714Y-76550000D01*
X133761904Y-76488095D01*
X133700000Y-76426190D01*
X133638095Y-76302380D01*
X148011904Y-45202380D02*
X148011904Y-44202380D01*
X148392857Y-44202380D01*
X148488095Y-44250000D01*
X148535714Y-44297619D01*
X148583333Y-44392857D01*
X148583333Y-44535714D01*
X148535714Y-44630952D01*
X148488095Y-44678571D01*
X148392857Y-44726190D01*
X148011904Y-44726190D01*
X148964285Y-44297619D02*
X149011904Y-44250000D01*
X149107142Y-44202380D01*
X149345238Y-44202380D01*
X149440476Y-44250000D01*
X149488095Y-44297619D01*
X149535714Y-44392857D01*
X149535714Y-44488095D01*
X149488095Y-44630952D01*
X148916666Y-45202380D01*
X149535714Y-45202380D01*
X150726190Y-44821428D02*
X151488095Y-44821428D01*
X152726190Y-45202380D02*
X152726190Y-44202380D01*
X153297619Y-45202380D01*
X153297619Y-44202380D01*
X154345238Y-45107142D02*
X154297619Y-45154761D01*
X154154761Y-45202380D01*
X154059523Y-45202380D01*
X153916666Y-45154761D01*
X153821428Y-45059523D01*
X153773809Y-44964285D01*
X153726190Y-44773809D01*
X153726190Y-44630952D01*
X153773809Y-44440476D01*
X153821428Y-44345238D01*
X153916666Y-44250000D01*
X154059523Y-44202380D01*
X154154761Y-44202380D01*
X154297619Y-44250000D01*
X154345238Y-44297619D01*
X155488095Y-44154761D02*
X154630952Y-45440476D01*
X155821428Y-45202380D02*
X155821428Y-44202380D01*
X156392857Y-45202380D01*
X156392857Y-44202380D01*
X157059523Y-44202380D02*
X157250000Y-44202380D01*
X157345238Y-44250000D01*
X157440476Y-44345238D01*
X157488095Y-44535714D01*
X157488095Y-44869047D01*
X157440476Y-45059523D01*
X157345238Y-45154761D01*
X157250000Y-45202380D01*
X157059523Y-45202380D01*
X156964285Y-45154761D01*
X156869047Y-45059523D01*
X156821428Y-44869047D01*
X156821428Y-44535714D01*
X156869047Y-44345238D01*
X156964285Y-44250000D01*
X157059523Y-44202380D01*
X158630952Y-44154761D02*
X157773809Y-45440476D01*
X159535714Y-45107142D02*
X159488095Y-45154761D01*
X159345238Y-45202380D01*
X159250000Y-45202380D01*
X159107142Y-45154761D01*
X159011904Y-45059523D01*
X158964285Y-44964285D01*
X158916666Y-44773809D01*
X158916666Y-44630952D01*
X158964285Y-44440476D01*
X159011904Y-44345238D01*
X159107142Y-44250000D01*
X159250000Y-44202380D01*
X159345238Y-44202380D01*
X159488095Y-44250000D01*
X159535714Y-44297619D01*
X130511904Y-45202380D02*
X130511904Y-44202380D01*
X130892857Y-44202380D01*
X130988095Y-44250000D01*
X131035714Y-44297619D01*
X131083333Y-44392857D01*
X131083333Y-44535714D01*
X131035714Y-44630952D01*
X130988095Y-44678571D01*
X130892857Y-44726190D01*
X130511904Y-44726190D01*
X132035714Y-45202380D02*
X131464285Y-45202380D01*
X131750000Y-45202380D02*
X131750000Y-44202380D01*
X131654761Y-44345238D01*
X131559523Y-44440476D01*
X131464285Y-44488095D01*
X133226190Y-44821428D02*
X133988095Y-44821428D01*
X135226190Y-45202380D02*
X135226190Y-44202380D01*
X135797619Y-45202380D01*
X135797619Y-44202380D01*
X136845238Y-45107142D02*
X136797619Y-45154761D01*
X136654761Y-45202380D01*
X136559523Y-45202380D01*
X136416666Y-45154761D01*
X136321428Y-45059523D01*
X136273809Y-44964285D01*
X136226190Y-44773809D01*
X136226190Y-44630952D01*
X136273809Y-44440476D01*
X136321428Y-44345238D01*
X136416666Y-44250000D01*
X136559523Y-44202380D01*
X136654761Y-44202380D01*
X136797619Y-44250000D01*
X136845238Y-44297619D01*
X137988095Y-44154761D02*
X137130952Y-45440476D01*
X138321428Y-45202380D02*
X138321428Y-44202380D01*
X138892857Y-45202380D01*
X138892857Y-44202380D01*
X139559523Y-44202380D02*
X139750000Y-44202380D01*
X139845238Y-44250000D01*
X139940476Y-44345238D01*
X139988095Y-44535714D01*
X139988095Y-44869047D01*
X139940476Y-45059523D01*
X139845238Y-45154761D01*
X139750000Y-45202380D01*
X139559523Y-45202380D01*
X139464285Y-45154761D01*
X139369047Y-45059523D01*
X139321428Y-44869047D01*
X139321428Y-44535714D01*
X139369047Y-44345238D01*
X139464285Y-44250000D01*
X139559523Y-44202380D01*
X141130952Y-44154761D02*
X140273809Y-45440476D01*
X142035714Y-45107142D02*
X141988095Y-45154761D01*
X141845238Y-45202380D01*
X141750000Y-45202380D01*
X141607142Y-45154761D01*
X141511904Y-45059523D01*
X141464285Y-44964285D01*
X141416666Y-44773809D01*
X141416666Y-44630952D01*
X141464285Y-44440476D01*
X141511904Y-44345238D01*
X141607142Y-44250000D01*
X141750000Y-44202380D01*
X141845238Y-44202380D01*
X141988095Y-44250000D01*
X142035714Y-44297619D01*
D11*
%TO.C,K1*%
X140600000Y-77300000D02*
X138200000Y-77300000D01*
X138200000Y-74900000D02*
X138200000Y-77300000D01*
X151100000Y-77100000D02*
X138400000Y-77100000D01*
X151100000Y-47900000D02*
X151100000Y-77100000D01*
X149900000Y-47900000D02*
X151100000Y-47900000D01*
X142400000Y-47900000D02*
X147100000Y-47900000D01*
X138400000Y-47900000D02*
X139600000Y-47900000D01*
X138400000Y-77100000D02*
X138400000Y-47900000D01*
X143540000Y-71460000D02*
X144810000Y-68920000D01*
X147350000Y-70190000D02*
X148620000Y-70190000D01*
X148620000Y-70190000D02*
X148620000Y-71460000D01*
X141000000Y-71460000D02*
X141000000Y-70190000D01*
X141000000Y-70190000D02*
X142270000Y-70190000D01*
X142270000Y-70190000D02*
X142270000Y-68920000D01*
X142270000Y-68920000D02*
X147350000Y-68920000D01*
X147350000Y-68920000D02*
X147350000Y-71460000D01*
X147350000Y-71460000D02*
X142270000Y-71460000D01*
X142270000Y-71460000D02*
X142270000Y-70190000D01*
%TO.C,J3*%
X158470617Y-36319550D02*
G75*
G02*
X159289000Y-36516000I29383J-1680450D01*
G01*
X159983953Y-37210912D02*
G75*
G02*
X159984000Y-38789000I-1483953J-789088D01*
G01*
X159289088Y-39483953D02*
G75*
G02*
X157711000Y-39484000I-789088J1483953D01*
G01*
X157016047Y-38789088D02*
G75*
G02*
X157016000Y-37211000I1483953J789088D01*
G01*
X157711288Y-36516648D02*
G75*
G02*
X158500000Y-36320000I788712J-1483352D01*
G01*
X159400000Y-41000000D02*
G75*
G03*
X159400000Y-41000000I-900000J0D01*
G01*
X155180000Y-38000000D02*
G75*
G03*
X155180000Y-38000000I-1680000J0D01*
G01*
X154400000Y-41000000D02*
G75*
G03*
X154400000Y-41000000I-900000J0D01*
G01*
X150180000Y-38000000D02*
G75*
G03*
X150180000Y-38000000I-1680000J0D01*
G01*
X149400000Y-41000000D02*
G75*
G03*
X149400000Y-41000000I-900000J0D01*
G01*
X161060000Y-35500000D02*
X145940000Y-35500000D01*
X161060000Y-43060000D02*
X145940000Y-43060000D01*
X161060000Y-33940000D02*
X145940000Y-33940000D01*
X161060000Y-43060000D02*
X161060000Y-33940000D01*
X145940000Y-43060000D02*
X145940000Y-33940000D01*
X152225000Y-39069000D02*
X152319000Y-38976000D01*
X154510000Y-36784000D02*
X154569000Y-36726000D01*
X152430000Y-39275000D02*
X152489000Y-39216000D01*
X154680000Y-37024000D02*
X154774000Y-36931000D01*
X147225000Y-39069000D02*
X147319000Y-38976000D01*
X149510000Y-36784000D02*
X149569000Y-36726000D01*
X147430000Y-39275000D02*
X147489000Y-39216000D01*
X149680000Y-37024000D02*
X149774000Y-36931000D01*
X161300000Y-35440000D02*
X161300000Y-33700000D01*
X161300000Y-33700000D02*
X159800000Y-33700000D01*
%TO.C,J2*%
X140970617Y-36319550D02*
G75*
G02*
X141789000Y-36516000I29383J-1680450D01*
G01*
X142483953Y-37210912D02*
G75*
G02*
X142484000Y-38789000I-1483953J-789088D01*
G01*
X141789088Y-39483953D02*
G75*
G02*
X140211000Y-39484000I-789088J1483953D01*
G01*
X139516047Y-38789088D02*
G75*
G02*
X139516000Y-37211000I1483953J789088D01*
G01*
X140211288Y-36516648D02*
G75*
G02*
X141000000Y-36320000I788712J-1483352D01*
G01*
X141900000Y-41000000D02*
G75*
G03*
X141900000Y-41000000I-900000J0D01*
G01*
X137680000Y-38000000D02*
G75*
G03*
X137680000Y-38000000I-1680000J0D01*
G01*
X136900000Y-41000000D02*
G75*
G03*
X136900000Y-41000000I-900000J0D01*
G01*
X132680000Y-38000000D02*
G75*
G03*
X132680000Y-38000000I-1680000J0D01*
G01*
X131900000Y-41000000D02*
G75*
G03*
X131900000Y-41000000I-900000J0D01*
G01*
X143560000Y-35500000D02*
X128440000Y-35500000D01*
X143560000Y-43060000D02*
X128440000Y-43060000D01*
X143560000Y-33940000D02*
X128440000Y-33940000D01*
X143560000Y-43060000D02*
X143560000Y-33940000D01*
X128440000Y-43060000D02*
X128440000Y-33940000D01*
X134725000Y-39069000D02*
X134819000Y-38976000D01*
X137010000Y-36784000D02*
X137069000Y-36726000D01*
X134930000Y-39275000D02*
X134989000Y-39216000D01*
X137180000Y-37024000D02*
X137274000Y-36931000D01*
X129725000Y-39069000D02*
X129819000Y-38976000D01*
X132010000Y-36784000D02*
X132069000Y-36726000D01*
X129930000Y-39275000D02*
X129989000Y-39216000D01*
X132180000Y-37024000D02*
X132274000Y-36931000D01*
X143800000Y-35440000D02*
X143800000Y-33700000D01*
X143800000Y-33700000D02*
X142300000Y-33700000D01*
%TO.C,J1*%
X142279383Y-86930450D02*
G75*
G02*
X141461000Y-86734000I-29383J1680450D01*
G01*
X140766047Y-86039088D02*
G75*
G02*
X140766000Y-84461000I1483953J789088D01*
G01*
X141460912Y-83766047D02*
G75*
G02*
X143039000Y-83766000I789088J-1483953D01*
G01*
X143733953Y-84460912D02*
G75*
G02*
X143734000Y-86039000I-1483953J-789088D01*
G01*
X143038712Y-86733352D02*
G75*
G02*
X142250000Y-86930000I-788712J1483352D01*
G01*
X143150000Y-82250000D02*
G75*
G03*
X143150000Y-82250000I-900000J0D01*
G01*
X148930000Y-85250000D02*
G75*
G03*
X148930000Y-85250000I-1680000J0D01*
G01*
X148150000Y-82250000D02*
G75*
G03*
X148150000Y-82250000I-900000J0D01*
G01*
X139690000Y-87750000D02*
X149810000Y-87750000D01*
X139690000Y-80190000D02*
X149810000Y-80190000D01*
X139690000Y-89310000D02*
X149810000Y-89310000D01*
X139690000Y-80190000D02*
X139690000Y-89310000D01*
X149810000Y-80190000D02*
X149810000Y-89310000D01*
X148525000Y-84181000D02*
X148431000Y-84274000D01*
X146240000Y-86466000D02*
X146181000Y-86524000D01*
X148320000Y-83975000D02*
X148261000Y-84034000D01*
X146070000Y-86226000D02*
X145976000Y-86319000D01*
X139450000Y-87810000D02*
X139450000Y-89550000D01*
X139450000Y-89550000D02*
X140950000Y-89550000D01*
%TO.C,K1*%
D10*
X137852380Y-64738095D02*
X136852380Y-64738095D01*
X137852380Y-64166666D02*
X137280952Y-64595238D01*
X136852380Y-64166666D02*
X137423809Y-64738095D01*
X137852380Y-63214285D02*
X137852380Y-63785714D01*
X137852380Y-63500000D02*
X136852380Y-63500000D01*
X136995238Y-63595238D01*
X137090476Y-63690476D01*
X137138095Y-63785714D01*
%TO.C,J3*%
X145166666Y-44952380D02*
X145166666Y-45666666D01*
X145119047Y-45809523D01*
X145023809Y-45904761D01*
X144880952Y-45952380D01*
X144785714Y-45952380D01*
X145547619Y-44952380D02*
X146166666Y-44952380D01*
X145833333Y-45333333D01*
X145976190Y-45333333D01*
X146071428Y-45380952D01*
X146119047Y-45428571D01*
X146166666Y-45523809D01*
X146166666Y-45761904D01*
X146119047Y-45857142D01*
X146071428Y-45904761D01*
X145976190Y-45952380D01*
X145690476Y-45952380D01*
X145595238Y-45904761D01*
X145547619Y-45857142D01*
%TO.C,J2*%
X128416666Y-45452380D02*
X128416666Y-46166666D01*
X128369047Y-46309523D01*
X128273809Y-46404761D01*
X128130952Y-46452380D01*
X128035714Y-46452380D01*
X128845238Y-45547619D02*
X128892857Y-45500000D01*
X128988095Y-45452380D01*
X129226190Y-45452380D01*
X129321428Y-45500000D01*
X129369047Y-45547619D01*
X129416666Y-45642857D01*
X129416666Y-45738095D01*
X129369047Y-45880952D01*
X128797619Y-46452380D01*
X129416666Y-46452380D01*
%TO.C,J1*%
X144416666Y-78642380D02*
X144416666Y-79356666D01*
X144369047Y-79499523D01*
X144273809Y-79594761D01*
X144130952Y-79642380D01*
X144035714Y-79642380D01*
X145416666Y-79642380D02*
X144845238Y-79642380D01*
X145130952Y-79642380D02*
X145130952Y-78642380D01*
X145035714Y-78785238D01*
X144940476Y-78880476D01*
X144845238Y-78928095D01*
%TD*%
M02*
