%TF.GenerationSoftware,KiCad,Pcbnew,5.1.9*%
%TF.CreationDate,2021-02-07T15:24:09+01:00*%
%TF.ProjectId,detector_wiring,64657465-6374-46f7-925f-776972696e67,rev?*%
%TF.SameCoordinates,Original*%
%TF.FileFunction,Legend,Top*%
%TF.FilePolarity,Positive*%
%FSLAX46Y46*%
G04 Gerber Fmt 4.6, Leading zero omitted, Abs format (unit mm)*
G04 Created by KiCad (PCBNEW 5.1.9) date 2021-02-07 15:24:09*
%MOMM*%
%LPD*%
G01*
G04 APERTURE LIST*
%ADD10C,0.150000*%
%ADD11C,0.120000*%
G04 APERTURE END LIST*
D10*
X128683333Y-92337380D02*
X128683333Y-91337380D01*
X129064285Y-91337380D01*
X129159523Y-91385000D01*
X129207142Y-91432619D01*
X129254761Y-91527857D01*
X129254761Y-91670714D01*
X129207142Y-91765952D01*
X129159523Y-91813571D01*
X129064285Y-91861190D01*
X128683333Y-91861190D01*
X129683333Y-92337380D02*
X129683333Y-91670714D01*
X129683333Y-91861190D02*
X129730952Y-91765952D01*
X129778571Y-91718333D01*
X129873809Y-91670714D01*
X129969047Y-91670714D01*
X130302380Y-92337380D02*
X130302380Y-91670714D01*
X130302380Y-91337380D02*
X130254761Y-91385000D01*
X130302380Y-91432619D01*
X130350000Y-91385000D01*
X130302380Y-91337380D01*
X130302380Y-91432619D01*
X130778571Y-91670714D02*
X130778571Y-92337380D01*
X130778571Y-91765952D02*
X130826190Y-91718333D01*
X130921428Y-91670714D01*
X131064285Y-91670714D01*
X131159523Y-91718333D01*
X131207142Y-91813571D01*
X131207142Y-92337380D01*
X131540476Y-91670714D02*
X131921428Y-91670714D01*
X131683333Y-91337380D02*
X131683333Y-92194523D01*
X131730952Y-92289761D01*
X131826190Y-92337380D01*
X131921428Y-92337380D01*
X132635714Y-92289761D02*
X132540476Y-92337380D01*
X132350000Y-92337380D01*
X132254761Y-92289761D01*
X132207142Y-92194523D01*
X132207142Y-91813571D01*
X132254761Y-91718333D01*
X132350000Y-91670714D01*
X132540476Y-91670714D01*
X132635714Y-91718333D01*
X132683333Y-91813571D01*
X132683333Y-91908809D01*
X132207142Y-92004047D01*
X133111904Y-92337380D02*
X133111904Y-91670714D01*
X133111904Y-91861190D02*
X133159523Y-91765952D01*
X133207142Y-91718333D01*
X133302380Y-91670714D01*
X133397619Y-91670714D01*
X134492857Y-92337380D02*
X134492857Y-91337380D01*
X134921428Y-92337380D02*
X134921428Y-91813571D01*
X134873809Y-91718333D01*
X134778571Y-91670714D01*
X134635714Y-91670714D01*
X134540476Y-91718333D01*
X134492857Y-91765952D01*
X135540476Y-92337380D02*
X135445238Y-92289761D01*
X135397619Y-92242142D01*
X135350000Y-92146904D01*
X135350000Y-91861190D01*
X135397619Y-91765952D01*
X135445238Y-91718333D01*
X135540476Y-91670714D01*
X135683333Y-91670714D01*
X135778571Y-91718333D01*
X135826190Y-91765952D01*
X135873809Y-91861190D01*
X135873809Y-92146904D01*
X135826190Y-92242142D01*
X135778571Y-92289761D01*
X135683333Y-92337380D01*
X135540476Y-92337380D01*
X136302380Y-92337380D02*
X136302380Y-91670714D01*
X136302380Y-91765952D02*
X136350000Y-91718333D01*
X136445238Y-91670714D01*
X136588095Y-91670714D01*
X136683333Y-91718333D01*
X136730952Y-91813571D01*
X136730952Y-92337380D01*
X136730952Y-91813571D02*
X136778571Y-91718333D01*
X136873809Y-91670714D01*
X137016666Y-91670714D01*
X137111904Y-91718333D01*
X137159523Y-91813571D01*
X137159523Y-92337380D01*
X138016666Y-92289761D02*
X137921428Y-92337380D01*
X137730952Y-92337380D01*
X137635714Y-92289761D01*
X137588095Y-92194523D01*
X137588095Y-91813571D01*
X137635714Y-91718333D01*
X137730952Y-91670714D01*
X137921428Y-91670714D01*
X138016666Y-91718333D01*
X138064285Y-91813571D01*
X138064285Y-91908809D01*
X137588095Y-92004047D01*
X127969047Y-93320714D02*
X128350000Y-93320714D01*
X128111904Y-92987380D02*
X128111904Y-93844523D01*
X128159523Y-93939761D01*
X128254761Y-93987380D01*
X128350000Y-93987380D01*
X129064285Y-93939761D02*
X128969047Y-93987380D01*
X128778571Y-93987380D01*
X128683333Y-93939761D01*
X128635714Y-93844523D01*
X128635714Y-93463571D01*
X128683333Y-93368333D01*
X128778571Y-93320714D01*
X128969047Y-93320714D01*
X129064285Y-93368333D01*
X129111904Y-93463571D01*
X129111904Y-93558809D01*
X128635714Y-93654047D01*
X129540476Y-93987380D02*
X129540476Y-93320714D01*
X129540476Y-93511190D02*
X129588095Y-93415952D01*
X129635714Y-93368333D01*
X129730952Y-93320714D01*
X129826190Y-93320714D01*
X130159523Y-93987380D02*
X130159523Y-93320714D01*
X130159523Y-93415952D02*
X130207142Y-93368333D01*
X130302380Y-93320714D01*
X130445238Y-93320714D01*
X130540476Y-93368333D01*
X130588095Y-93463571D01*
X130588095Y-93987380D01*
X130588095Y-93463571D02*
X130635714Y-93368333D01*
X130730952Y-93320714D01*
X130873809Y-93320714D01*
X130969047Y-93368333D01*
X131016666Y-93463571D01*
X131016666Y-93987380D01*
X131492857Y-93987380D02*
X131492857Y-93320714D01*
X131492857Y-92987380D02*
X131445238Y-93035000D01*
X131492857Y-93082619D01*
X131540476Y-93035000D01*
X131492857Y-92987380D01*
X131492857Y-93082619D01*
X131969047Y-93320714D02*
X131969047Y-93987380D01*
X131969047Y-93415952D02*
X132016666Y-93368333D01*
X132111904Y-93320714D01*
X132254761Y-93320714D01*
X132350000Y-93368333D01*
X132397619Y-93463571D01*
X132397619Y-93987380D01*
X133302380Y-93987380D02*
X133302380Y-93463571D01*
X133254761Y-93368333D01*
X133159523Y-93320714D01*
X132969047Y-93320714D01*
X132873809Y-93368333D01*
X133302380Y-93939761D02*
X133207142Y-93987380D01*
X132969047Y-93987380D01*
X132873809Y-93939761D01*
X132826190Y-93844523D01*
X132826190Y-93749285D01*
X132873809Y-93654047D01*
X132969047Y-93606428D01*
X133207142Y-93606428D01*
X133302380Y-93558809D01*
X133921428Y-93987380D02*
X133826190Y-93939761D01*
X133778571Y-93844523D01*
X133778571Y-92987380D01*
X135064285Y-93987380D02*
X135064285Y-92987380D01*
X135064285Y-93368333D02*
X135159523Y-93320714D01*
X135350000Y-93320714D01*
X135445238Y-93368333D01*
X135492857Y-93415952D01*
X135540476Y-93511190D01*
X135540476Y-93796904D01*
X135492857Y-93892142D01*
X135445238Y-93939761D01*
X135350000Y-93987380D01*
X135159523Y-93987380D01*
X135064285Y-93939761D01*
X136111904Y-93987380D02*
X136016666Y-93939761D01*
X135969047Y-93844523D01*
X135969047Y-92987380D01*
X136635714Y-93987380D02*
X136540476Y-93939761D01*
X136492857Y-93892142D01*
X136445238Y-93796904D01*
X136445238Y-93511190D01*
X136492857Y-93415952D01*
X136540476Y-93368333D01*
X136635714Y-93320714D01*
X136778571Y-93320714D01*
X136873809Y-93368333D01*
X136921428Y-93415952D01*
X136969047Y-93511190D01*
X136969047Y-93796904D01*
X136921428Y-93892142D01*
X136873809Y-93939761D01*
X136778571Y-93987380D01*
X136635714Y-93987380D01*
X137826190Y-93939761D02*
X137730952Y-93987380D01*
X137540476Y-93987380D01*
X137445238Y-93939761D01*
X137397619Y-93892142D01*
X137350000Y-93796904D01*
X137350000Y-93511190D01*
X137397619Y-93415952D01*
X137445238Y-93368333D01*
X137540476Y-93320714D01*
X137730952Y-93320714D01*
X137826190Y-93368333D01*
X138254761Y-93987380D02*
X138254761Y-92987380D01*
X138350000Y-93606428D02*
X138635714Y-93987380D01*
X138635714Y-93320714D02*
X138254761Y-93701666D01*
X137184523Y-96924761D02*
X137327380Y-96972380D01*
X137565476Y-96972380D01*
X137660714Y-96924761D01*
X137708333Y-96877142D01*
X137755952Y-96781904D01*
X137755952Y-96686666D01*
X137708333Y-96591428D01*
X137660714Y-96543809D01*
X137565476Y-96496190D01*
X137375000Y-96448571D01*
X137279761Y-96400952D01*
X137232142Y-96353333D01*
X137184523Y-96258095D01*
X137184523Y-96162857D01*
X137232142Y-96067619D01*
X137279761Y-96020000D01*
X137375000Y-95972380D01*
X137613095Y-95972380D01*
X137755952Y-96020000D01*
X138184523Y-96972380D02*
X138184523Y-96305714D01*
X138184523Y-96400952D02*
X138232142Y-96353333D01*
X138327380Y-96305714D01*
X138470238Y-96305714D01*
X138565476Y-96353333D01*
X138613095Y-96448571D01*
X138613095Y-96972380D01*
X138613095Y-96448571D02*
X138660714Y-96353333D01*
X138755952Y-96305714D01*
X138898809Y-96305714D01*
X138994047Y-96353333D01*
X139041666Y-96448571D01*
X139041666Y-96972380D01*
X139660714Y-96972380D02*
X139565476Y-96924761D01*
X139517857Y-96877142D01*
X139470238Y-96781904D01*
X139470238Y-96496190D01*
X139517857Y-96400952D01*
X139565476Y-96353333D01*
X139660714Y-96305714D01*
X139803571Y-96305714D01*
X139898809Y-96353333D01*
X139946428Y-96400952D01*
X139994047Y-96496190D01*
X139994047Y-96781904D01*
X139946428Y-96877142D01*
X139898809Y-96924761D01*
X139803571Y-96972380D01*
X139660714Y-96972380D01*
X140422619Y-96972380D02*
X140422619Y-95972380D01*
X140517857Y-96591428D02*
X140803571Y-96972380D01*
X140803571Y-96305714D02*
X140422619Y-96686666D01*
X141613095Y-96924761D02*
X141517857Y-96972380D01*
X141327380Y-96972380D01*
X141232142Y-96924761D01*
X141184523Y-96829523D01*
X141184523Y-96448571D01*
X141232142Y-96353333D01*
X141327380Y-96305714D01*
X141517857Y-96305714D01*
X141613095Y-96353333D01*
X141660714Y-96448571D01*
X141660714Y-96543809D01*
X141184523Y-96639047D01*
X143279761Y-96972380D02*
X143279761Y-95972380D01*
X143279761Y-96924761D02*
X143184523Y-96972380D01*
X142994047Y-96972380D01*
X142898809Y-96924761D01*
X142851190Y-96877142D01*
X142803571Y-96781904D01*
X142803571Y-96496190D01*
X142851190Y-96400952D01*
X142898809Y-96353333D01*
X142994047Y-96305714D01*
X143184523Y-96305714D01*
X143279761Y-96353333D01*
X144136904Y-96924761D02*
X144041666Y-96972380D01*
X143851190Y-96972380D01*
X143755952Y-96924761D01*
X143708333Y-96829523D01*
X143708333Y-96448571D01*
X143755952Y-96353333D01*
X143851190Y-96305714D01*
X144041666Y-96305714D01*
X144136904Y-96353333D01*
X144184523Y-96448571D01*
X144184523Y-96543809D01*
X143708333Y-96639047D01*
X144470238Y-96305714D02*
X144851190Y-96305714D01*
X144613095Y-95972380D02*
X144613095Y-96829523D01*
X144660714Y-96924761D01*
X144755952Y-96972380D01*
X144851190Y-96972380D01*
X145565476Y-96924761D02*
X145470238Y-96972380D01*
X145279761Y-96972380D01*
X145184523Y-96924761D01*
X145136904Y-96829523D01*
X145136904Y-96448571D01*
X145184523Y-96353333D01*
X145279761Y-96305714D01*
X145470238Y-96305714D01*
X145565476Y-96353333D01*
X145613095Y-96448571D01*
X145613095Y-96543809D01*
X145136904Y-96639047D01*
X146470238Y-96924761D02*
X146375000Y-96972380D01*
X146184523Y-96972380D01*
X146089285Y-96924761D01*
X146041666Y-96877142D01*
X145994047Y-96781904D01*
X145994047Y-96496190D01*
X146041666Y-96400952D01*
X146089285Y-96353333D01*
X146184523Y-96305714D01*
X146375000Y-96305714D01*
X146470238Y-96353333D01*
X146755952Y-96305714D02*
X147136904Y-96305714D01*
X146898809Y-95972380D02*
X146898809Y-96829523D01*
X146946428Y-96924761D01*
X147041666Y-96972380D01*
X147136904Y-96972380D01*
X147613095Y-96972380D02*
X147517857Y-96924761D01*
X147470238Y-96877142D01*
X147422619Y-96781904D01*
X147422619Y-96496190D01*
X147470238Y-96400952D01*
X147517857Y-96353333D01*
X147613095Y-96305714D01*
X147755952Y-96305714D01*
X147851190Y-96353333D01*
X147898809Y-96400952D01*
X147946428Y-96496190D01*
X147946428Y-96781904D01*
X147898809Y-96877142D01*
X147851190Y-96924761D01*
X147755952Y-96972380D01*
X147613095Y-96972380D01*
X148375000Y-96972380D02*
X148375000Y-96305714D01*
X148375000Y-96496190D02*
X148422619Y-96400952D01*
X148470238Y-96353333D01*
X148565476Y-96305714D01*
X148660714Y-96305714D01*
X137446428Y-88987380D02*
X138017857Y-88987380D01*
X137732142Y-89987380D02*
X137732142Y-88987380D01*
X138351190Y-89987380D02*
X138351190Y-88987380D01*
X138779761Y-89987380D02*
X138779761Y-89463571D01*
X138732142Y-89368333D01*
X138636904Y-89320714D01*
X138494047Y-89320714D01*
X138398809Y-89368333D01*
X138351190Y-89415952D01*
X139636904Y-89939761D02*
X139541666Y-89987380D01*
X139351190Y-89987380D01*
X139255952Y-89939761D01*
X139208333Y-89844523D01*
X139208333Y-89463571D01*
X139255952Y-89368333D01*
X139351190Y-89320714D01*
X139541666Y-89320714D01*
X139636904Y-89368333D01*
X139684523Y-89463571D01*
X139684523Y-89558809D01*
X139208333Y-89654047D01*
X140113095Y-89987380D02*
X140113095Y-89320714D01*
X140113095Y-89511190D02*
X140160714Y-89415952D01*
X140208333Y-89368333D01*
X140303571Y-89320714D01*
X140398809Y-89320714D01*
X140732142Y-89987380D02*
X140732142Y-89320714D01*
X140732142Y-89415952D02*
X140779761Y-89368333D01*
X140875000Y-89320714D01*
X141017857Y-89320714D01*
X141113095Y-89368333D01*
X141160714Y-89463571D01*
X141160714Y-89987380D01*
X141160714Y-89463571D02*
X141208333Y-89368333D01*
X141303571Y-89320714D01*
X141446428Y-89320714D01*
X141541666Y-89368333D01*
X141589285Y-89463571D01*
X141589285Y-89987380D01*
X142494047Y-89987380D02*
X142494047Y-89463571D01*
X142446428Y-89368333D01*
X142351190Y-89320714D01*
X142160714Y-89320714D01*
X142065476Y-89368333D01*
X142494047Y-89939761D02*
X142398809Y-89987380D01*
X142160714Y-89987380D01*
X142065476Y-89939761D01*
X142017857Y-89844523D01*
X142017857Y-89749285D01*
X142065476Y-89654047D01*
X142160714Y-89606428D01*
X142398809Y-89606428D01*
X142494047Y-89558809D01*
X143113095Y-89987380D02*
X143017857Y-89939761D01*
X142970238Y-89844523D01*
X142970238Y-88987380D01*
X144684523Y-89939761D02*
X144589285Y-89987380D01*
X144398809Y-89987380D01*
X144303571Y-89939761D01*
X144255952Y-89892142D01*
X144208333Y-89796904D01*
X144208333Y-89511190D01*
X144255952Y-89415952D01*
X144303571Y-89368333D01*
X144398809Y-89320714D01*
X144589285Y-89320714D01*
X144684523Y-89368333D01*
X145541666Y-89320714D02*
X145541666Y-89987380D01*
X145113095Y-89320714D02*
X145113095Y-89844523D01*
X145160714Y-89939761D01*
X145255952Y-89987380D01*
X145398809Y-89987380D01*
X145494047Y-89939761D01*
X145541666Y-89892142D01*
X145875000Y-89320714D02*
X146255952Y-89320714D01*
X146017857Y-88987380D02*
X146017857Y-89844523D01*
X146065476Y-89939761D01*
X146160714Y-89987380D01*
X146255952Y-89987380D01*
X146732142Y-89987380D02*
X146636904Y-89939761D01*
X146589285Y-89892142D01*
X146541666Y-89796904D01*
X146541666Y-89511190D01*
X146589285Y-89415952D01*
X146636904Y-89368333D01*
X146732142Y-89320714D01*
X146875000Y-89320714D01*
X146970238Y-89368333D01*
X147017857Y-89415952D01*
X147065476Y-89511190D01*
X147065476Y-89796904D01*
X147017857Y-89892142D01*
X146970238Y-89939761D01*
X146875000Y-89987380D01*
X146732142Y-89987380D01*
X147351190Y-89320714D02*
X147732142Y-89320714D01*
X147494047Y-89987380D02*
X147494047Y-89130238D01*
X147541666Y-89035000D01*
X147636904Y-88987380D01*
X147732142Y-88987380D01*
X147922619Y-89320714D02*
X148303571Y-89320714D01*
X148065476Y-89987380D02*
X148065476Y-89130238D01*
X148113095Y-89035000D01*
X148208333Y-88987380D01*
X148303571Y-88987380D01*
X127150952Y-88527380D02*
X126674761Y-88527380D01*
X126674761Y-87527380D01*
X127484285Y-88527380D02*
X127484285Y-87860714D01*
X127484285Y-87527380D02*
X127436666Y-87575000D01*
X127484285Y-87622619D01*
X127531904Y-87575000D01*
X127484285Y-87527380D01*
X127484285Y-87622619D01*
X128389047Y-87860714D02*
X128389047Y-88670238D01*
X128341428Y-88765476D01*
X128293809Y-88813095D01*
X128198571Y-88860714D01*
X128055714Y-88860714D01*
X127960476Y-88813095D01*
X128389047Y-88479761D02*
X128293809Y-88527380D01*
X128103333Y-88527380D01*
X128008095Y-88479761D01*
X127960476Y-88432142D01*
X127912857Y-88336904D01*
X127912857Y-88051190D01*
X127960476Y-87955952D01*
X128008095Y-87908333D01*
X128103333Y-87860714D01*
X128293809Y-87860714D01*
X128389047Y-87908333D01*
X128865238Y-88527380D02*
X128865238Y-87527380D01*
X129293809Y-88527380D02*
X129293809Y-88003571D01*
X129246190Y-87908333D01*
X129150952Y-87860714D01*
X129008095Y-87860714D01*
X128912857Y-87908333D01*
X128865238Y-87955952D01*
X129627142Y-87860714D02*
X130008095Y-87860714D01*
X129770000Y-87527380D02*
X129770000Y-88384523D01*
X129817619Y-88479761D01*
X129912857Y-88527380D01*
X130008095Y-88527380D01*
X125603333Y-89225000D02*
X125508095Y-89177380D01*
X125365238Y-89177380D01*
X125222380Y-89225000D01*
X125127142Y-89320238D01*
X125079523Y-89415476D01*
X125031904Y-89605952D01*
X125031904Y-89748809D01*
X125079523Y-89939285D01*
X125127142Y-90034523D01*
X125222380Y-90129761D01*
X125365238Y-90177380D01*
X125460476Y-90177380D01*
X125603333Y-90129761D01*
X125650952Y-90082142D01*
X125650952Y-89748809D01*
X125460476Y-89748809D01*
X126079523Y-90177380D02*
X126079523Y-89177380D01*
X126650952Y-90177380D01*
X126650952Y-89177380D01*
X127127142Y-90177380D02*
X127127142Y-89177380D01*
X127365238Y-89177380D01*
X127508095Y-89225000D01*
X127603333Y-89320238D01*
X127650952Y-89415476D01*
X127698571Y-89605952D01*
X127698571Y-89748809D01*
X127650952Y-89939285D01*
X127603333Y-90034523D01*
X127508095Y-90129761D01*
X127365238Y-90177380D01*
X127127142Y-90177380D01*
X129603333Y-89129761D02*
X128746190Y-90415476D01*
X130698571Y-89796428D02*
X131460476Y-89796428D01*
X131079523Y-90177380D02*
X131079523Y-89415476D01*
X124405000Y-95147380D02*
X124976428Y-95147380D01*
X124690714Y-96147380D02*
X124690714Y-95147380D01*
X125690714Y-96099761D02*
X125595476Y-96147380D01*
X125405000Y-96147380D01*
X125309761Y-96099761D01*
X125262142Y-96004523D01*
X125262142Y-95623571D01*
X125309761Y-95528333D01*
X125405000Y-95480714D01*
X125595476Y-95480714D01*
X125690714Y-95528333D01*
X125738333Y-95623571D01*
X125738333Y-95718809D01*
X125262142Y-95814047D01*
X126166904Y-96147380D02*
X126166904Y-95480714D01*
X126166904Y-95575952D02*
X126214523Y-95528333D01*
X126309761Y-95480714D01*
X126452619Y-95480714D01*
X126547857Y-95528333D01*
X126595476Y-95623571D01*
X126595476Y-96147380D01*
X126595476Y-95623571D02*
X126643095Y-95528333D01*
X126738333Y-95480714D01*
X126881190Y-95480714D01*
X126976428Y-95528333D01*
X127024047Y-95623571D01*
X127024047Y-96147380D01*
X127500238Y-95480714D02*
X127500238Y-96480714D01*
X127500238Y-95528333D02*
X127595476Y-95480714D01*
X127785952Y-95480714D01*
X127881190Y-95528333D01*
X127928809Y-95575952D01*
X127976428Y-95671190D01*
X127976428Y-95956904D01*
X127928809Y-96052142D01*
X127881190Y-96099761D01*
X127785952Y-96147380D01*
X127595476Y-96147380D01*
X127500238Y-96099761D01*
X128785952Y-96099761D02*
X128690714Y-96147380D01*
X128500238Y-96147380D01*
X128405000Y-96099761D01*
X128357380Y-96004523D01*
X128357380Y-95623571D01*
X128405000Y-95528333D01*
X128500238Y-95480714D01*
X128690714Y-95480714D01*
X128785952Y-95528333D01*
X128833571Y-95623571D01*
X128833571Y-95718809D01*
X128357380Y-95814047D01*
X129262142Y-96147380D02*
X129262142Y-95480714D01*
X129262142Y-95671190D02*
X129309761Y-95575952D01*
X129357380Y-95528333D01*
X129452619Y-95480714D01*
X129547857Y-95480714D01*
X130309761Y-96147380D02*
X130309761Y-95623571D01*
X130262142Y-95528333D01*
X130166904Y-95480714D01*
X129976428Y-95480714D01*
X129881190Y-95528333D01*
X130309761Y-96099761D02*
X130214523Y-96147380D01*
X129976428Y-96147380D01*
X129881190Y-96099761D01*
X129833571Y-96004523D01*
X129833571Y-95909285D01*
X129881190Y-95814047D01*
X129976428Y-95766428D01*
X130214523Y-95766428D01*
X130309761Y-95718809D01*
X130643095Y-95480714D02*
X131024047Y-95480714D01*
X130785952Y-95147380D02*
X130785952Y-96004523D01*
X130833571Y-96099761D01*
X130928809Y-96147380D01*
X131024047Y-96147380D01*
X131785952Y-95480714D02*
X131785952Y-96147380D01*
X131357380Y-95480714D02*
X131357380Y-96004523D01*
X131405000Y-96099761D01*
X131500238Y-96147380D01*
X131643095Y-96147380D01*
X131738333Y-96099761D01*
X131785952Y-96052142D01*
X132262142Y-96147380D02*
X132262142Y-95480714D01*
X132262142Y-95671190D02*
X132309761Y-95575952D01*
X132357380Y-95528333D01*
X132452619Y-95480714D01*
X132547857Y-95480714D01*
X133262142Y-96099761D02*
X133166904Y-96147380D01*
X132976428Y-96147380D01*
X132881190Y-96099761D01*
X132833571Y-96004523D01*
X132833571Y-95623571D01*
X132881190Y-95528333D01*
X132976428Y-95480714D01*
X133166904Y-95480714D01*
X133262142Y-95528333D01*
X133309761Y-95623571D01*
X133309761Y-95718809D01*
X132833571Y-95814047D01*
X126643095Y-97749761D02*
X126738333Y-97797380D01*
X126928809Y-97797380D01*
X127024047Y-97749761D01*
X127071666Y-97654523D01*
X127071666Y-97606904D01*
X127024047Y-97511666D01*
X126928809Y-97464047D01*
X126785952Y-97464047D01*
X126690714Y-97416428D01*
X126643095Y-97321190D01*
X126643095Y-97273571D01*
X126690714Y-97178333D01*
X126785952Y-97130714D01*
X126928809Y-97130714D01*
X127024047Y-97178333D01*
X127881190Y-97749761D02*
X127785952Y-97797380D01*
X127595476Y-97797380D01*
X127500238Y-97749761D01*
X127452619Y-97654523D01*
X127452619Y-97273571D01*
X127500238Y-97178333D01*
X127595476Y-97130714D01*
X127785952Y-97130714D01*
X127881190Y-97178333D01*
X127928809Y-97273571D01*
X127928809Y-97368809D01*
X127452619Y-97464047D01*
X128357380Y-97130714D02*
X128357380Y-97797380D01*
X128357380Y-97225952D02*
X128405000Y-97178333D01*
X128500238Y-97130714D01*
X128643095Y-97130714D01*
X128738333Y-97178333D01*
X128785952Y-97273571D01*
X128785952Y-97797380D01*
X129214523Y-97749761D02*
X129309761Y-97797380D01*
X129500238Y-97797380D01*
X129595476Y-97749761D01*
X129643095Y-97654523D01*
X129643095Y-97606904D01*
X129595476Y-97511666D01*
X129500238Y-97464047D01*
X129357380Y-97464047D01*
X129262142Y-97416428D01*
X129214523Y-97321190D01*
X129214523Y-97273571D01*
X129262142Y-97178333D01*
X129357380Y-97130714D01*
X129500238Y-97130714D01*
X129595476Y-97178333D01*
X130214523Y-97797380D02*
X130119285Y-97749761D01*
X130071666Y-97702142D01*
X130024047Y-97606904D01*
X130024047Y-97321190D01*
X130071666Y-97225952D01*
X130119285Y-97178333D01*
X130214523Y-97130714D01*
X130357380Y-97130714D01*
X130452619Y-97178333D01*
X130500238Y-97225952D01*
X130547857Y-97321190D01*
X130547857Y-97606904D01*
X130500238Y-97702142D01*
X130452619Y-97749761D01*
X130357380Y-97797380D01*
X130214523Y-97797380D01*
X130976428Y-97797380D02*
X130976428Y-97130714D01*
X130976428Y-97321190D02*
X131024047Y-97225952D01*
X131071666Y-97178333D01*
X131166904Y-97130714D01*
X131262142Y-97130714D01*
X120752619Y-99005000D02*
X120752619Y-99576428D01*
X119752619Y-99290714D02*
X120752619Y-99290714D01*
X119800238Y-100290714D02*
X119752619Y-100195476D01*
X119752619Y-100005000D01*
X119800238Y-99909761D01*
X119895476Y-99862142D01*
X120276428Y-99862142D01*
X120371666Y-99909761D01*
X120419285Y-100005000D01*
X120419285Y-100195476D01*
X120371666Y-100290714D01*
X120276428Y-100338333D01*
X120181190Y-100338333D01*
X120085952Y-99862142D01*
X119752619Y-100766904D02*
X120419285Y-100766904D01*
X120324047Y-100766904D02*
X120371666Y-100814523D01*
X120419285Y-100909761D01*
X120419285Y-101052619D01*
X120371666Y-101147857D01*
X120276428Y-101195476D01*
X119752619Y-101195476D01*
X120276428Y-101195476D02*
X120371666Y-101243095D01*
X120419285Y-101338333D01*
X120419285Y-101481190D01*
X120371666Y-101576428D01*
X120276428Y-101624047D01*
X119752619Y-101624047D01*
X120419285Y-102100238D02*
X119419285Y-102100238D01*
X120371666Y-102100238D02*
X120419285Y-102195476D01*
X120419285Y-102385952D01*
X120371666Y-102481190D01*
X120324047Y-102528809D01*
X120228809Y-102576428D01*
X119943095Y-102576428D01*
X119847857Y-102528809D01*
X119800238Y-102481190D01*
X119752619Y-102385952D01*
X119752619Y-102195476D01*
X119800238Y-102100238D01*
X119800238Y-103385952D02*
X119752619Y-103290714D01*
X119752619Y-103100238D01*
X119800238Y-103005000D01*
X119895476Y-102957380D01*
X120276428Y-102957380D01*
X120371666Y-103005000D01*
X120419285Y-103100238D01*
X120419285Y-103290714D01*
X120371666Y-103385952D01*
X120276428Y-103433571D01*
X120181190Y-103433571D01*
X120085952Y-102957380D01*
X119752619Y-103862142D02*
X120419285Y-103862142D01*
X120228809Y-103862142D02*
X120324047Y-103909761D01*
X120371666Y-103957380D01*
X120419285Y-104052619D01*
X120419285Y-104147857D01*
X119752619Y-104909761D02*
X120276428Y-104909761D01*
X120371666Y-104862142D01*
X120419285Y-104766904D01*
X120419285Y-104576428D01*
X120371666Y-104481190D01*
X119800238Y-104909761D02*
X119752619Y-104814523D01*
X119752619Y-104576428D01*
X119800238Y-104481190D01*
X119895476Y-104433571D01*
X119990714Y-104433571D01*
X120085952Y-104481190D01*
X120133571Y-104576428D01*
X120133571Y-104814523D01*
X120181190Y-104909761D01*
X120419285Y-105243095D02*
X120419285Y-105624047D01*
X120752619Y-105385952D02*
X119895476Y-105385952D01*
X119800238Y-105433571D01*
X119752619Y-105528809D01*
X119752619Y-105624047D01*
X120419285Y-106385952D02*
X119752619Y-106385952D01*
X120419285Y-105957380D02*
X119895476Y-105957380D01*
X119800238Y-106005000D01*
X119752619Y-106100238D01*
X119752619Y-106243095D01*
X119800238Y-106338333D01*
X119847857Y-106385952D01*
X119752619Y-106862142D02*
X120419285Y-106862142D01*
X120228809Y-106862142D02*
X120324047Y-106909761D01*
X120371666Y-106957380D01*
X120419285Y-107052619D01*
X120419285Y-107147857D01*
X119800238Y-107862142D02*
X119752619Y-107766904D01*
X119752619Y-107576428D01*
X119800238Y-107481190D01*
X119895476Y-107433571D01*
X120276428Y-107433571D01*
X120371666Y-107481190D01*
X120419285Y-107576428D01*
X120419285Y-107766904D01*
X120371666Y-107862142D01*
X120276428Y-107909761D01*
X120181190Y-107909761D01*
X120085952Y-107433571D01*
X118150238Y-101243095D02*
X118102619Y-101338333D01*
X118102619Y-101528809D01*
X118150238Y-101624047D01*
X118245476Y-101671666D01*
X118293095Y-101671666D01*
X118388333Y-101624047D01*
X118435952Y-101528809D01*
X118435952Y-101385952D01*
X118483571Y-101290714D01*
X118578809Y-101243095D01*
X118626428Y-101243095D01*
X118721666Y-101290714D01*
X118769285Y-101385952D01*
X118769285Y-101528809D01*
X118721666Y-101624047D01*
X118150238Y-102481190D02*
X118102619Y-102385952D01*
X118102619Y-102195476D01*
X118150238Y-102100238D01*
X118245476Y-102052619D01*
X118626428Y-102052619D01*
X118721666Y-102100238D01*
X118769285Y-102195476D01*
X118769285Y-102385952D01*
X118721666Y-102481190D01*
X118626428Y-102528809D01*
X118531190Y-102528809D01*
X118435952Y-102052619D01*
X118769285Y-102957380D02*
X118102619Y-102957380D01*
X118674047Y-102957380D02*
X118721666Y-103005000D01*
X118769285Y-103100238D01*
X118769285Y-103243095D01*
X118721666Y-103338333D01*
X118626428Y-103385952D01*
X118102619Y-103385952D01*
X118150238Y-103814523D02*
X118102619Y-103909761D01*
X118102619Y-104100238D01*
X118150238Y-104195476D01*
X118245476Y-104243095D01*
X118293095Y-104243095D01*
X118388333Y-104195476D01*
X118435952Y-104100238D01*
X118435952Y-103957380D01*
X118483571Y-103862142D01*
X118578809Y-103814523D01*
X118626428Y-103814523D01*
X118721666Y-103862142D01*
X118769285Y-103957380D01*
X118769285Y-104100238D01*
X118721666Y-104195476D01*
X118102619Y-104814523D02*
X118150238Y-104719285D01*
X118197857Y-104671666D01*
X118293095Y-104624047D01*
X118578809Y-104624047D01*
X118674047Y-104671666D01*
X118721666Y-104719285D01*
X118769285Y-104814523D01*
X118769285Y-104957380D01*
X118721666Y-105052619D01*
X118674047Y-105100238D01*
X118578809Y-105147857D01*
X118293095Y-105147857D01*
X118197857Y-105100238D01*
X118150238Y-105052619D01*
X118102619Y-104957380D01*
X118102619Y-104814523D01*
X118102619Y-105576428D02*
X118769285Y-105576428D01*
X118578809Y-105576428D02*
X118674047Y-105624047D01*
X118721666Y-105671666D01*
X118769285Y-105766904D01*
X118769285Y-105862142D01*
X117657619Y-89829047D02*
X118657619Y-89829047D01*
X118657619Y-90067142D01*
X118610000Y-90210000D01*
X118514761Y-90305238D01*
X118419523Y-90352857D01*
X118229047Y-90400476D01*
X118086190Y-90400476D01*
X117895714Y-90352857D01*
X117800476Y-90305238D01*
X117705238Y-90210000D01*
X117657619Y-90067142D01*
X117657619Y-89829047D01*
X117705238Y-91210000D02*
X117657619Y-91114761D01*
X117657619Y-90924285D01*
X117705238Y-90829047D01*
X117800476Y-90781428D01*
X118181428Y-90781428D01*
X118276666Y-90829047D01*
X118324285Y-90924285D01*
X118324285Y-91114761D01*
X118276666Y-91210000D01*
X118181428Y-91257619D01*
X118086190Y-91257619D01*
X117990952Y-90781428D01*
X118324285Y-91543333D02*
X118324285Y-91924285D01*
X118657619Y-91686190D02*
X117800476Y-91686190D01*
X117705238Y-91733809D01*
X117657619Y-91829047D01*
X117657619Y-91924285D01*
X117705238Y-92638571D02*
X117657619Y-92543333D01*
X117657619Y-92352857D01*
X117705238Y-92257619D01*
X117800476Y-92210000D01*
X118181428Y-92210000D01*
X118276666Y-92257619D01*
X118324285Y-92352857D01*
X118324285Y-92543333D01*
X118276666Y-92638571D01*
X118181428Y-92686190D01*
X118086190Y-92686190D01*
X117990952Y-92210000D01*
X117705238Y-93543333D02*
X117657619Y-93448095D01*
X117657619Y-93257619D01*
X117705238Y-93162380D01*
X117752857Y-93114761D01*
X117848095Y-93067142D01*
X118133809Y-93067142D01*
X118229047Y-93114761D01*
X118276666Y-93162380D01*
X118324285Y-93257619D01*
X118324285Y-93448095D01*
X118276666Y-93543333D01*
X118324285Y-93829047D02*
X118324285Y-94210000D01*
X118657619Y-93971904D02*
X117800476Y-93971904D01*
X117705238Y-94019523D01*
X117657619Y-94114761D01*
X117657619Y-94210000D01*
X117657619Y-94686190D02*
X117705238Y-94590952D01*
X117752857Y-94543333D01*
X117848095Y-94495714D01*
X118133809Y-94495714D01*
X118229047Y-94543333D01*
X118276666Y-94590952D01*
X118324285Y-94686190D01*
X118324285Y-94829047D01*
X118276666Y-94924285D01*
X118229047Y-94971904D01*
X118133809Y-95019523D01*
X117848095Y-95019523D01*
X117752857Y-94971904D01*
X117705238Y-94924285D01*
X117657619Y-94829047D01*
X117657619Y-94686190D01*
X117657619Y-95448095D02*
X118324285Y-95448095D01*
X118133809Y-95448095D02*
X118229047Y-95495714D01*
X118276666Y-95543333D01*
X118324285Y-95638571D01*
X118324285Y-95733809D01*
X120387619Y-81430952D02*
X120387619Y-80954761D01*
X121387619Y-80954761D01*
X120387619Y-81764285D02*
X121054285Y-81764285D01*
X121387619Y-81764285D02*
X121340000Y-81716666D01*
X121292380Y-81764285D01*
X121340000Y-81811904D01*
X121387619Y-81764285D01*
X121292380Y-81764285D01*
X121054285Y-82669047D02*
X120244761Y-82669047D01*
X120149523Y-82621428D01*
X120101904Y-82573809D01*
X120054285Y-82478571D01*
X120054285Y-82335714D01*
X120101904Y-82240476D01*
X120435238Y-82669047D02*
X120387619Y-82573809D01*
X120387619Y-82383333D01*
X120435238Y-82288095D01*
X120482857Y-82240476D01*
X120578095Y-82192857D01*
X120863809Y-82192857D01*
X120959047Y-82240476D01*
X121006666Y-82288095D01*
X121054285Y-82383333D01*
X121054285Y-82573809D01*
X121006666Y-82669047D01*
X120387619Y-83145238D02*
X121387619Y-83145238D01*
X120387619Y-83573809D02*
X120911428Y-83573809D01*
X121006666Y-83526190D01*
X121054285Y-83430952D01*
X121054285Y-83288095D01*
X121006666Y-83192857D01*
X120959047Y-83145238D01*
X121054285Y-83907142D02*
X121054285Y-84288095D01*
X121387619Y-84050000D02*
X120530476Y-84050000D01*
X120435238Y-84097619D01*
X120387619Y-84192857D01*
X120387619Y-84288095D01*
X119118571Y-79359523D02*
X119118571Y-80121428D01*
X118737619Y-79740476D02*
X119499523Y-79740476D01*
X119785238Y-82073809D02*
X118499523Y-81216666D01*
X119690000Y-83692857D02*
X119737619Y-83597619D01*
X119737619Y-83454761D01*
X119690000Y-83311904D01*
X119594761Y-83216666D01*
X119499523Y-83169047D01*
X119309047Y-83121428D01*
X119166190Y-83121428D01*
X118975714Y-83169047D01*
X118880476Y-83216666D01*
X118785238Y-83311904D01*
X118737619Y-83454761D01*
X118737619Y-83550000D01*
X118785238Y-83692857D01*
X118832857Y-83740476D01*
X119166190Y-83740476D01*
X119166190Y-83550000D01*
X118737619Y-84169047D02*
X119737619Y-84169047D01*
X118737619Y-84740476D01*
X119737619Y-84740476D01*
X118737619Y-85216666D02*
X119737619Y-85216666D01*
X119737619Y-85454761D01*
X119690000Y-85597619D01*
X119594761Y-85692857D01*
X119499523Y-85740476D01*
X119309047Y-85788095D01*
X119166190Y-85788095D01*
X118975714Y-85740476D01*
X118880476Y-85692857D01*
X118785238Y-85597619D01*
X118737619Y-85454761D01*
X118737619Y-85216666D01*
D11*
%TO.C,J5*%
X123010000Y-108210000D02*
X124510000Y-108210000D01*
X123010000Y-106470000D02*
X123010000Y-108210000D01*
X129630000Y-104886000D02*
X129536000Y-104979000D01*
X131880000Y-102635000D02*
X131821000Y-102694000D01*
X129800000Y-105126000D02*
X129741000Y-105184000D01*
X132085000Y-102841000D02*
X131991000Y-102934000D01*
X133370000Y-98850000D02*
X133370000Y-107970000D01*
X123250000Y-98850000D02*
X123250000Y-107970000D01*
X123250000Y-107970000D02*
X133370000Y-107970000D01*
X123250000Y-98850000D02*
X133370000Y-98850000D01*
X123250000Y-106410000D02*
X133370000Y-106410000D01*
X131710000Y-100910000D02*
G75*
G03*
X131710000Y-100910000I-900000J0D01*
G01*
X132490000Y-103910000D02*
G75*
G03*
X132490000Y-103910000I-1680000J0D01*
G01*
X126710000Y-100910000D02*
G75*
G03*
X126710000Y-100910000I-900000J0D01*
G01*
X125839383Y-105590450D02*
G75*
G02*
X125021000Y-105394000I-29383J1680450D01*
G01*
X124326047Y-104699088D02*
G75*
G02*
X124326000Y-103121000I1483953J789088D01*
G01*
X125020912Y-102426047D02*
G75*
G02*
X126599000Y-102426000I789088J-1483953D01*
G01*
X127293953Y-103120912D02*
G75*
G02*
X127294000Y-104699000I-1483953J-789088D01*
G01*
X126598712Y-105393352D02*
G75*
G02*
X125810000Y-105590000I-788712J1483352D01*
G01*
%TO.C,J4*%
X149080000Y-108210000D02*
X149080000Y-106710000D01*
X147340000Y-108210000D02*
X149080000Y-108210000D01*
X145756000Y-101590000D02*
X145849000Y-101684000D01*
X143505000Y-99340000D02*
X143564000Y-99399000D01*
X145996000Y-101420000D02*
X146054000Y-101479000D01*
X143711000Y-99135000D02*
X143804000Y-99229000D01*
X139720000Y-97850000D02*
X148840000Y-97850000D01*
X139720000Y-107970000D02*
X148840000Y-107970000D01*
X148840000Y-107970000D02*
X148840000Y-97850000D01*
X139720000Y-107970000D02*
X139720000Y-97850000D01*
X147280000Y-107970000D02*
X147280000Y-97850000D01*
X142680000Y-100410000D02*
G75*
G03*
X142680000Y-100410000I-900000J0D01*
G01*
X146460000Y-100410000D02*
G75*
G03*
X146460000Y-100410000I-1680000J0D01*
G01*
X142680000Y-105410000D02*
G75*
G03*
X142680000Y-105410000I-900000J0D01*
G01*
X146460450Y-105380617D02*
G75*
G02*
X146264000Y-106199000I-1680450J-29383D01*
G01*
X145569088Y-106893953D02*
G75*
G02*
X143991000Y-106894000I-789088J1483953D01*
G01*
X143296047Y-106199088D02*
G75*
G02*
X143296000Y-104621000I1483953J789088D01*
G01*
X143990912Y-103926047D02*
G75*
G02*
X145569000Y-103926000I789088J-1483953D01*
G01*
X146263352Y-104621288D02*
G75*
G02*
X146460000Y-105410000I-1483352J-788712D01*
G01*
%TO.C,J3*%
X149080000Y-88210000D02*
X149080000Y-86710000D01*
X147340000Y-88210000D02*
X149080000Y-88210000D01*
X145756000Y-81590000D02*
X145849000Y-81684000D01*
X143505000Y-79340000D02*
X143564000Y-79399000D01*
X145996000Y-81420000D02*
X146054000Y-81479000D01*
X143711000Y-79135000D02*
X143804000Y-79229000D01*
X139720000Y-77850000D02*
X148840000Y-77850000D01*
X139720000Y-87970000D02*
X148840000Y-87970000D01*
X148840000Y-87970000D02*
X148840000Y-77850000D01*
X139720000Y-87970000D02*
X139720000Y-77850000D01*
X147280000Y-87970000D02*
X147280000Y-77850000D01*
X142680000Y-80410000D02*
G75*
G03*
X142680000Y-80410000I-900000J0D01*
G01*
X146460000Y-80410000D02*
G75*
G03*
X146460000Y-80410000I-1680000J0D01*
G01*
X142680000Y-85410000D02*
G75*
G03*
X142680000Y-85410000I-900000J0D01*
G01*
X146460450Y-85380617D02*
G75*
G02*
X146264000Y-86199000I-1680450J-29383D01*
G01*
X145569088Y-86893953D02*
G75*
G02*
X143991000Y-86894000I-789088J1483953D01*
G01*
X143296047Y-86199088D02*
G75*
G02*
X143296000Y-84621000I1483953J789088D01*
G01*
X143990912Y-83926047D02*
G75*
G02*
X145569000Y-83926000I789088J-1483953D01*
G01*
X146263352Y-84621288D02*
G75*
G02*
X146460000Y-85410000I-1483352J-788712D01*
G01*
%TO.C,J2*%
X133610000Y-77610000D02*
X132110000Y-77610000D01*
X133610000Y-79350000D02*
X133610000Y-77610000D01*
X126990000Y-80934000D02*
X127084000Y-80841000D01*
X124740000Y-83185000D02*
X124799000Y-83126000D01*
X126820000Y-80694000D02*
X126879000Y-80636000D01*
X124535000Y-82979000D02*
X124629000Y-82886000D01*
X123250000Y-86970000D02*
X123250000Y-77850000D01*
X133370000Y-86970000D02*
X133370000Y-77850000D01*
X133370000Y-77850000D02*
X123250000Y-77850000D01*
X133370000Y-86970000D02*
X123250000Y-86970000D01*
X133370000Y-79410000D02*
X123250000Y-79410000D01*
X126710000Y-84910000D02*
G75*
G03*
X126710000Y-84910000I-900000J0D01*
G01*
X127490000Y-81910000D02*
G75*
G03*
X127490000Y-81910000I-1680000J0D01*
G01*
X131710000Y-84910000D02*
G75*
G03*
X131710000Y-84910000I-900000J0D01*
G01*
X130780617Y-80229550D02*
G75*
G02*
X131599000Y-80426000I29383J-1680450D01*
G01*
X132293953Y-81120912D02*
G75*
G02*
X132294000Y-82699000I-1483953J-789088D01*
G01*
X131599088Y-83393953D02*
G75*
G02*
X130021000Y-83394000I-789088J1483953D01*
G01*
X129326047Y-82699088D02*
G75*
G02*
X129326000Y-81121000I1483953J789088D01*
G01*
X130021288Y-80426648D02*
G75*
G02*
X130810000Y-80230000I788712J-1483352D01*
G01*
%TO.C,J1*%
X107460000Y-77610000D02*
X107460000Y-79110000D01*
X109200000Y-77610000D02*
X107460000Y-77610000D01*
X110784000Y-104230000D02*
X110691000Y-104136000D01*
X113035000Y-106480000D02*
X112976000Y-106421000D01*
X110544000Y-104400000D02*
X110486000Y-104341000D01*
X112829000Y-106685000D02*
X112736000Y-106591000D01*
X110784000Y-99230000D02*
X110691000Y-99136000D01*
X113035000Y-101480000D02*
X112976000Y-101421000D01*
X110544000Y-99400000D02*
X110486000Y-99341000D01*
X112829000Y-101685000D02*
X112736000Y-101591000D01*
X110784000Y-94230000D02*
X110691000Y-94136000D01*
X113035000Y-96480000D02*
X112976000Y-96421000D01*
X110544000Y-94400000D02*
X110486000Y-94341000D01*
X112829000Y-96685000D02*
X112736000Y-96591000D01*
X110784000Y-89230000D02*
X110691000Y-89136000D01*
X113035000Y-91480000D02*
X112976000Y-91421000D01*
X110544000Y-89400000D02*
X110486000Y-89341000D01*
X112829000Y-91685000D02*
X112736000Y-91591000D01*
X110784000Y-84230000D02*
X110691000Y-84136000D01*
X113035000Y-86480000D02*
X112976000Y-86421000D01*
X110544000Y-84400000D02*
X110486000Y-84341000D01*
X112829000Y-86685000D02*
X112736000Y-86591000D01*
X116820000Y-107970000D02*
X107700000Y-107970000D01*
X116820000Y-77850000D02*
X107700000Y-77850000D01*
X107700000Y-77850000D02*
X107700000Y-107970000D01*
X116820000Y-77850000D02*
X116820000Y-107970000D01*
X109260000Y-77850000D02*
X109260000Y-107970000D01*
X115660000Y-105410000D02*
G75*
G03*
X115660000Y-105410000I-900000J0D01*
G01*
X113440000Y-105410000D02*
G75*
G03*
X113440000Y-105410000I-1680000J0D01*
G01*
X115660000Y-100410000D02*
G75*
G03*
X115660000Y-100410000I-900000J0D01*
G01*
X113440000Y-100410000D02*
G75*
G03*
X113440000Y-100410000I-1680000J0D01*
G01*
X115660000Y-95410000D02*
G75*
G03*
X115660000Y-95410000I-900000J0D01*
G01*
X113440000Y-95410000D02*
G75*
G03*
X113440000Y-95410000I-1680000J0D01*
G01*
X115660000Y-90410000D02*
G75*
G03*
X115660000Y-90410000I-900000J0D01*
G01*
X113440000Y-90410000D02*
G75*
G03*
X113440000Y-90410000I-1680000J0D01*
G01*
X115660000Y-85410000D02*
G75*
G03*
X115660000Y-85410000I-900000J0D01*
G01*
X113440000Y-85410000D02*
G75*
G03*
X113440000Y-85410000I-1680000J0D01*
G01*
X115660000Y-80410000D02*
G75*
G03*
X115660000Y-80410000I-900000J0D01*
G01*
X110079550Y-80439383D02*
G75*
G02*
X110276000Y-79621000I1680450J29383D01*
G01*
X110970912Y-78926047D02*
G75*
G02*
X112549000Y-78926000I789088J-1483953D01*
G01*
X113243953Y-79620912D02*
G75*
G02*
X113244000Y-81199000I-1483953J-789088D01*
G01*
X112549088Y-81893953D02*
G75*
G02*
X110971000Y-81894000I-789088J1483953D01*
G01*
X110276648Y-81198712D02*
G75*
G02*
X110080000Y-80410000I1483352J788712D01*
G01*
%TO.C,J5*%
D10*
X122856666Y-97242380D02*
X122856666Y-97956666D01*
X122809047Y-98099523D01*
X122713809Y-98194761D01*
X122570952Y-98242380D01*
X122475714Y-98242380D01*
X123809047Y-97242380D02*
X123332857Y-97242380D01*
X123285238Y-97718571D01*
X123332857Y-97670952D01*
X123428095Y-97623333D01*
X123666190Y-97623333D01*
X123761428Y-97670952D01*
X123809047Y-97718571D01*
X123856666Y-97813809D01*
X123856666Y-98051904D01*
X123809047Y-98147142D01*
X123761428Y-98194761D01*
X123666190Y-98242380D01*
X123428095Y-98242380D01*
X123332857Y-98194761D01*
X123285238Y-98147142D01*
%TO.C,J4*%
X138172380Y-103243333D02*
X138886666Y-103243333D01*
X139029523Y-103290952D01*
X139124761Y-103386190D01*
X139172380Y-103529047D01*
X139172380Y-103624285D01*
X138505714Y-102338571D02*
X139172380Y-102338571D01*
X138124761Y-102576666D02*
X138839047Y-102814761D01*
X138839047Y-102195714D01*
%TO.C,J3*%
X138172380Y-83243333D02*
X138886666Y-83243333D01*
X139029523Y-83290952D01*
X139124761Y-83386190D01*
X139172380Y-83529047D01*
X139172380Y-83624285D01*
X138172380Y-82862380D02*
X138172380Y-82243333D01*
X138553333Y-82576666D01*
X138553333Y-82433809D01*
X138600952Y-82338571D01*
X138648571Y-82290952D01*
X138743809Y-82243333D01*
X138981904Y-82243333D01*
X139077142Y-82290952D01*
X139124761Y-82338571D01*
X139172380Y-82433809D01*
X139172380Y-82719523D01*
X139124761Y-82814761D01*
X139077142Y-82862380D01*
%TO.C,J2*%
X134286666Y-78192380D02*
X134286666Y-78906666D01*
X134239047Y-79049523D01*
X134143809Y-79144761D01*
X134000952Y-79192380D01*
X133905714Y-79192380D01*
X134715238Y-78287619D02*
X134762857Y-78240000D01*
X134858095Y-78192380D01*
X135096190Y-78192380D01*
X135191428Y-78240000D01*
X135239047Y-78287619D01*
X135286666Y-78382857D01*
X135286666Y-78478095D01*
X135239047Y-78620952D01*
X134667619Y-79192380D01*
X135286666Y-79192380D01*
%TO.C,J1*%
X117776666Y-77557380D02*
X117776666Y-78271666D01*
X117729047Y-78414523D01*
X117633809Y-78509761D01*
X117490952Y-78557380D01*
X117395714Y-78557380D01*
X118776666Y-78557380D02*
X118205238Y-78557380D01*
X118490952Y-78557380D02*
X118490952Y-77557380D01*
X118395714Y-77700238D01*
X118300476Y-77795476D01*
X118205238Y-77843095D01*
%TD*%
M02*
