%TF.GenerationSoftware,KiCad,Pcbnew,5.1.9*%
%TF.CreationDate,2021-02-07T15:24:09+01:00*%
%TF.ProjectId,detector_wiring,64657465-6374-46f7-925f-776972696e67,rev?*%
%TF.SameCoordinates,Original*%
%TF.FileFunction,Copper,L2,Bot*%
%TF.FilePolarity,Positive*%
%FSLAX46Y46*%
G04 Gerber Fmt 4.6, Leading zero omitted, Abs format (unit mm)*
G04 Created by KiCad (PCBNEW 5.1.9) date 2021-02-07 15:24:09*
%MOMM*%
%LPD*%
G01*
G04 APERTURE LIST*
%TA.AperFunction,ComponentPad*%
%ADD10C,2.500000*%
%TD*%
%TA.AperFunction,ComponentPad*%
%ADD11R,2.500000X2.500000*%
%TD*%
%TA.AperFunction,Conductor*%
%ADD12C,1.000000*%
%TD*%
%TA.AperFunction,Conductor*%
%ADD13C,0.254000*%
%TD*%
%TA.AperFunction,Conductor*%
%ADD14C,0.100000*%
%TD*%
G04 APERTURE END LIST*
D10*
%TO.P,J5,2*%
%TO.N,/TempSensorA*%
X130810000Y-103910000D03*
D11*
%TO.P,J5,1*%
%TO.N,/TempSensorB*%
X125810000Y-103910000D03*
%TD*%
D10*
%TO.P,J4,2*%
%TO.N,/FuseOutput*%
X144780000Y-100410000D03*
D11*
%TO.P,J4,1*%
%TO.N,/FuseInput*%
X144780000Y-105410000D03*
%TD*%
D10*
%TO.P,J3,2*%
%TO.N,/DetectorCommon*%
X144780000Y-80410000D03*
D11*
%TO.P,J3,1*%
%TO.N,/FuseOutput*%
X144780000Y-85410000D03*
%TD*%
D10*
%TO.P,J2,2*%
%TO.N,/LightGND*%
X125810000Y-81910000D03*
D11*
%TO.P,J2,1*%
%TO.N,/Light+*%
X130810000Y-81910000D03*
%TD*%
D10*
%TO.P,J1,6*%
%TO.N,/TempSensorA*%
X111760000Y-105410000D03*
%TO.P,J1,5*%
%TO.N,/TempSensorB*%
X111760000Y-100410000D03*
%TO.P,J1,4*%
%TO.N,/DetectorCommon*%
X111760000Y-95410000D03*
%TO.P,J1,3*%
%TO.N,/FuseInput*%
X111760000Y-90410000D03*
%TO.P,J1,2*%
%TO.N,/LightGND*%
X111760000Y-85410000D03*
D11*
%TO.P,J1,1*%
%TO.N,/Light+*%
X111760000Y-80410000D03*
%TD*%
D12*
%TO.N,/TempSensorA*%
X111760000Y-105410000D02*
X114935000Y-105410000D01*
X114935000Y-105410000D02*
X120015000Y-100330000D01*
X120015000Y-100330000D02*
X128905000Y-100330000D01*
X130810000Y-102235000D02*
X130810000Y-103910000D01*
X128905000Y-100330000D02*
X130810000Y-102235000D01*
%TO.N,/DetectorCommon*%
X111760000Y-95410000D02*
X114775000Y-95410000D01*
X114775000Y-95410000D02*
X117475000Y-92710000D01*
X117475000Y-92710000D02*
X117475000Y-90170000D01*
X117475000Y-90170000D02*
X119380000Y-88265000D01*
X119380000Y-88265000D02*
X138430000Y-88265000D01*
X138430000Y-88265000D02*
X140335000Y-86360000D01*
X140335000Y-86360000D02*
X140335000Y-82550000D01*
X142475000Y-80410000D02*
X144780000Y-80410000D01*
X140335000Y-82550000D02*
X142475000Y-80410000D01*
%TO.N,/LightGND*%
X111760000Y-85410000D02*
X124140000Y-85410000D01*
X125810000Y-83740000D02*
X125810000Y-81910000D01*
X124140000Y-85410000D02*
X125810000Y-83740000D01*
%TD*%
D13*
%TO.N,/LightGND*%
X128143000Y-85598000D02*
X113636428Y-85598000D01*
X113653389Y-85357294D01*
X113606725Y-84988925D01*
X113489094Y-84636738D01*
X113363577Y-84401914D01*
X113073605Y-84276000D01*
X111939605Y-85410000D01*
X111953748Y-85424143D01*
X111779890Y-85598000D01*
X111768395Y-85598000D01*
X111760000Y-85589605D01*
X111751605Y-85598000D01*
X111740110Y-85598000D01*
X111566253Y-85424143D01*
X111580395Y-85410000D01*
X110446395Y-84276000D01*
X110156423Y-84401914D01*
X109990567Y-84734126D01*
X109892710Y-85092312D01*
X109866611Y-85462706D01*
X109883750Y-85598000D01*
X109347000Y-85598000D01*
X109347000Y-84096395D01*
X110626000Y-84096395D01*
X111760000Y-85230395D01*
X112894000Y-84096395D01*
X112768086Y-83806423D01*
X112435874Y-83640567D01*
X112077688Y-83542710D01*
X111707294Y-83516611D01*
X111338925Y-83563275D01*
X110986738Y-83680906D01*
X110751914Y-83806423D01*
X110626000Y-84096395D01*
X109347000Y-84096395D01*
X109347000Y-83223605D01*
X124676000Y-83223605D01*
X124801914Y-83513577D01*
X125134126Y-83679433D01*
X125492312Y-83777290D01*
X125862706Y-83803389D01*
X126231075Y-83756725D01*
X126583262Y-83639094D01*
X126818086Y-83513577D01*
X126944000Y-83223605D01*
X125810000Y-82089605D01*
X124676000Y-83223605D01*
X109347000Y-83223605D01*
X109347000Y-79160000D01*
X109871928Y-79160000D01*
X109871928Y-81660000D01*
X109884188Y-81784482D01*
X109920498Y-81904180D01*
X109979463Y-82014494D01*
X110058815Y-82111185D01*
X110155506Y-82190537D01*
X110265820Y-82249502D01*
X110385518Y-82285812D01*
X110510000Y-82298072D01*
X113010000Y-82298072D01*
X113134482Y-82285812D01*
X113254180Y-82249502D01*
X113364494Y-82190537D01*
X113461185Y-82111185D01*
X113540537Y-82014494D01*
X113568218Y-81962706D01*
X123916611Y-81962706D01*
X123963275Y-82331075D01*
X124080906Y-82683262D01*
X124206423Y-82918086D01*
X124496395Y-83044000D01*
X125630395Y-81910000D01*
X125989605Y-81910000D01*
X127123605Y-83044000D01*
X127413577Y-82918086D01*
X127579433Y-82585874D01*
X127677290Y-82227688D01*
X127703389Y-81857294D01*
X127656725Y-81488925D01*
X127539094Y-81136738D01*
X127413577Y-80901914D01*
X127123605Y-80776000D01*
X125989605Y-81910000D01*
X125630395Y-81910000D01*
X124496395Y-80776000D01*
X124206423Y-80901914D01*
X124040567Y-81234126D01*
X123942710Y-81592312D01*
X123916611Y-81962706D01*
X113568218Y-81962706D01*
X113599502Y-81904180D01*
X113635812Y-81784482D01*
X113648072Y-81660000D01*
X113648072Y-80596395D01*
X124676000Y-80596395D01*
X125810000Y-81730395D01*
X126944000Y-80596395D01*
X126818086Y-80306423D01*
X126485874Y-80140567D01*
X126127688Y-80042710D01*
X125757294Y-80016611D01*
X125388925Y-80063275D01*
X125036738Y-80180906D01*
X124801914Y-80306423D01*
X124676000Y-80596395D01*
X113648072Y-80596395D01*
X113648072Y-79160000D01*
X113635812Y-79035518D01*
X113599502Y-78915820D01*
X113540537Y-78805506D01*
X113461185Y-78708815D01*
X113364494Y-78629463D01*
X113254180Y-78570498D01*
X113134482Y-78534188D01*
X113010000Y-78521928D01*
X110510000Y-78521928D01*
X110385518Y-78534188D01*
X110265820Y-78570498D01*
X110155506Y-78629463D01*
X110058815Y-78708815D01*
X109979463Y-78805506D01*
X109920498Y-78915820D01*
X109884188Y-79035518D01*
X109871928Y-79160000D01*
X109347000Y-79160000D01*
X109347000Y-78232000D01*
X128143000Y-78232000D01*
X128143000Y-85598000D01*
%TA.AperFunction,Conductor*%
D14*
G36*
X128143000Y-85598000D02*
G01*
X113636428Y-85598000D01*
X113653389Y-85357294D01*
X113606725Y-84988925D01*
X113489094Y-84636738D01*
X113363577Y-84401914D01*
X113073605Y-84276000D01*
X111939605Y-85410000D01*
X111953748Y-85424143D01*
X111779890Y-85598000D01*
X111768395Y-85598000D01*
X111760000Y-85589605D01*
X111751605Y-85598000D01*
X111740110Y-85598000D01*
X111566253Y-85424143D01*
X111580395Y-85410000D01*
X110446395Y-84276000D01*
X110156423Y-84401914D01*
X109990567Y-84734126D01*
X109892710Y-85092312D01*
X109866611Y-85462706D01*
X109883750Y-85598000D01*
X109347000Y-85598000D01*
X109347000Y-84096395D01*
X110626000Y-84096395D01*
X111760000Y-85230395D01*
X112894000Y-84096395D01*
X112768086Y-83806423D01*
X112435874Y-83640567D01*
X112077688Y-83542710D01*
X111707294Y-83516611D01*
X111338925Y-83563275D01*
X110986738Y-83680906D01*
X110751914Y-83806423D01*
X110626000Y-84096395D01*
X109347000Y-84096395D01*
X109347000Y-83223605D01*
X124676000Y-83223605D01*
X124801914Y-83513577D01*
X125134126Y-83679433D01*
X125492312Y-83777290D01*
X125862706Y-83803389D01*
X126231075Y-83756725D01*
X126583262Y-83639094D01*
X126818086Y-83513577D01*
X126944000Y-83223605D01*
X125810000Y-82089605D01*
X124676000Y-83223605D01*
X109347000Y-83223605D01*
X109347000Y-79160000D01*
X109871928Y-79160000D01*
X109871928Y-81660000D01*
X109884188Y-81784482D01*
X109920498Y-81904180D01*
X109979463Y-82014494D01*
X110058815Y-82111185D01*
X110155506Y-82190537D01*
X110265820Y-82249502D01*
X110385518Y-82285812D01*
X110510000Y-82298072D01*
X113010000Y-82298072D01*
X113134482Y-82285812D01*
X113254180Y-82249502D01*
X113364494Y-82190537D01*
X113461185Y-82111185D01*
X113540537Y-82014494D01*
X113568218Y-81962706D01*
X123916611Y-81962706D01*
X123963275Y-82331075D01*
X124080906Y-82683262D01*
X124206423Y-82918086D01*
X124496395Y-83044000D01*
X125630395Y-81910000D01*
X125989605Y-81910000D01*
X127123605Y-83044000D01*
X127413577Y-82918086D01*
X127579433Y-82585874D01*
X127677290Y-82227688D01*
X127703389Y-81857294D01*
X127656725Y-81488925D01*
X127539094Y-81136738D01*
X127413577Y-80901914D01*
X127123605Y-80776000D01*
X125989605Y-81910000D01*
X125630395Y-81910000D01*
X124496395Y-80776000D01*
X124206423Y-80901914D01*
X124040567Y-81234126D01*
X123942710Y-81592312D01*
X123916611Y-81962706D01*
X113568218Y-81962706D01*
X113599502Y-81904180D01*
X113635812Y-81784482D01*
X113648072Y-81660000D01*
X113648072Y-80596395D01*
X124676000Y-80596395D01*
X125810000Y-81730395D01*
X126944000Y-80596395D01*
X126818086Y-80306423D01*
X126485874Y-80140567D01*
X126127688Y-80042710D01*
X125757294Y-80016611D01*
X125388925Y-80063275D01*
X125036738Y-80180906D01*
X124801914Y-80306423D01*
X124676000Y-80596395D01*
X113648072Y-80596395D01*
X113648072Y-79160000D01*
X113635812Y-79035518D01*
X113599502Y-78915820D01*
X113540537Y-78805506D01*
X113461185Y-78708815D01*
X113364494Y-78629463D01*
X113254180Y-78570498D01*
X113134482Y-78534188D01*
X113010000Y-78521928D01*
X110510000Y-78521928D01*
X110385518Y-78534188D01*
X110265820Y-78570498D01*
X110155506Y-78629463D01*
X110058815Y-78708815D01*
X109979463Y-78805506D01*
X109920498Y-78915820D01*
X109884188Y-79035518D01*
X109871928Y-79160000D01*
X109347000Y-79160000D01*
X109347000Y-78232000D01*
X128143000Y-78232000D01*
X128143000Y-85598000D01*
G37*
%TD.AperFunction*%
%TD*%
D13*
%TO.N,/DetectorCommon*%
X142886611Y-80462706D02*
X142933275Y-80831075D01*
X143050906Y-81183262D01*
X143176423Y-81418086D01*
X143466395Y-81544000D01*
X144408937Y-80601458D01*
X144648410Y-80721195D01*
X143646000Y-81723605D01*
X143771914Y-82013577D01*
X144104126Y-82179433D01*
X144462312Y-82277290D01*
X144832706Y-82303389D01*
X145201075Y-82256725D01*
X145553262Y-82139094D01*
X145788086Y-82013577D01*
X145914000Y-81723605D01*
X144929043Y-80738648D01*
X145216411Y-80666806D01*
X146093605Y-81544000D01*
X146383577Y-81418086D01*
X146549433Y-81085874D01*
X146647290Y-80727688D01*
X146673389Y-80357294D01*
X146666668Y-80304242D01*
X147193000Y-80172659D01*
X147193000Y-97663000D01*
X109347000Y-97663000D01*
X109347000Y-96723605D01*
X110626000Y-96723605D01*
X110751914Y-97013577D01*
X111084126Y-97179433D01*
X111442312Y-97277290D01*
X111812706Y-97303389D01*
X112181075Y-97256725D01*
X112533262Y-97139094D01*
X112768086Y-97013577D01*
X112894000Y-96723605D01*
X111760000Y-95589605D01*
X110626000Y-96723605D01*
X109347000Y-96723605D01*
X109347000Y-95462706D01*
X109866611Y-95462706D01*
X109913275Y-95831075D01*
X110030906Y-96183262D01*
X110156423Y-96418086D01*
X110446395Y-96544000D01*
X111580395Y-95410000D01*
X111939605Y-95410000D01*
X113073605Y-96544000D01*
X113363577Y-96418086D01*
X113529433Y-96085874D01*
X113627290Y-95727688D01*
X113653389Y-95357294D01*
X113606725Y-94988925D01*
X113489094Y-94636738D01*
X113363577Y-94401914D01*
X113073605Y-94276000D01*
X111939605Y-95410000D01*
X111580395Y-95410000D01*
X110446395Y-94276000D01*
X110156423Y-94401914D01*
X109990567Y-94734126D01*
X109892710Y-95092312D01*
X109866611Y-95462706D01*
X109347000Y-95462706D01*
X109347000Y-94096395D01*
X110626000Y-94096395D01*
X111760000Y-95230395D01*
X112894000Y-94096395D01*
X112768086Y-93806423D01*
X112435874Y-93640567D01*
X112077688Y-93542710D01*
X111707294Y-93516611D01*
X111338925Y-93563275D01*
X110986738Y-93680906D01*
X110751914Y-93806423D01*
X110626000Y-94096395D01*
X109347000Y-94096395D01*
X109347000Y-93159344D01*
X120035000Y-93159344D01*
X120035000Y-93530656D01*
X120107439Y-93894834D01*
X120249534Y-94237882D01*
X120455825Y-94546618D01*
X120718382Y-94809175D01*
X121027118Y-95015466D01*
X121370166Y-95157561D01*
X121734344Y-95230000D01*
X122105656Y-95230000D01*
X122469834Y-95157561D01*
X122812882Y-95015466D01*
X123121618Y-94809175D01*
X123384175Y-94546618D01*
X123590466Y-94237882D01*
X123732561Y-93894834D01*
X123805000Y-93530656D01*
X123805000Y-93159344D01*
X142260000Y-93159344D01*
X142260000Y-93530656D01*
X142332439Y-93894834D01*
X142474534Y-94237882D01*
X142680825Y-94546618D01*
X142943382Y-94809175D01*
X143252118Y-95015466D01*
X143595166Y-95157561D01*
X143959344Y-95230000D01*
X144330656Y-95230000D01*
X144694834Y-95157561D01*
X145037882Y-95015466D01*
X145346618Y-94809175D01*
X145609175Y-94546618D01*
X145815466Y-94237882D01*
X145957561Y-93894834D01*
X146030000Y-93530656D01*
X146030000Y-93159344D01*
X145957561Y-92795166D01*
X145815466Y-92452118D01*
X145609175Y-92143382D01*
X145346618Y-91880825D01*
X145037882Y-91674534D01*
X144694834Y-91532439D01*
X144330656Y-91460000D01*
X143959344Y-91460000D01*
X143595166Y-91532439D01*
X143252118Y-91674534D01*
X142943382Y-91880825D01*
X142680825Y-92143382D01*
X142474534Y-92452118D01*
X142332439Y-92795166D01*
X142260000Y-93159344D01*
X123805000Y-93159344D01*
X123732561Y-92795166D01*
X123590466Y-92452118D01*
X123384175Y-92143382D01*
X123121618Y-91880825D01*
X122812882Y-91674534D01*
X122469834Y-91532439D01*
X122105656Y-91460000D01*
X121734344Y-91460000D01*
X121370166Y-91532439D01*
X121027118Y-91674534D01*
X120718382Y-91880825D01*
X120455825Y-92143382D01*
X120249534Y-92452118D01*
X120107439Y-92795166D01*
X120035000Y-93159344D01*
X109347000Y-93159344D01*
X109347000Y-92837000D01*
X114935000Y-92837000D01*
X114959776Y-92834560D01*
X114983601Y-92827333D01*
X115005557Y-92815597D01*
X115024803Y-92799803D01*
X115040597Y-92780557D01*
X115052333Y-92758601D01*
X115059560Y-92734776D01*
X115062000Y-92710000D01*
X115062000Y-87122000D01*
X133985000Y-87122000D01*
X134009776Y-87119560D01*
X134033601Y-87112333D01*
X134055557Y-87100597D01*
X134074803Y-87084803D01*
X134090597Y-87065557D01*
X134102333Y-87043601D01*
X134109560Y-87019776D01*
X134112000Y-86995000D01*
X134112000Y-84160000D01*
X142891928Y-84160000D01*
X142891928Y-86660000D01*
X142904188Y-86784482D01*
X142940498Y-86904180D01*
X142999463Y-87014494D01*
X143078815Y-87111185D01*
X143175506Y-87190537D01*
X143285820Y-87249502D01*
X143405518Y-87285812D01*
X143530000Y-87298072D01*
X146030000Y-87298072D01*
X146154482Y-87285812D01*
X146274180Y-87249502D01*
X146384494Y-87190537D01*
X146481185Y-87111185D01*
X146560537Y-87014494D01*
X146619502Y-86904180D01*
X146655812Y-86784482D01*
X146668072Y-86660000D01*
X146668072Y-84160000D01*
X146655812Y-84035518D01*
X146619502Y-83915820D01*
X146560537Y-83805506D01*
X146481185Y-83708815D01*
X146384494Y-83629463D01*
X146274180Y-83570498D01*
X146154482Y-83534188D01*
X146030000Y-83521928D01*
X143530000Y-83521928D01*
X143405518Y-83534188D01*
X143285820Y-83570498D01*
X143175506Y-83629463D01*
X143078815Y-83708815D01*
X142999463Y-83805506D01*
X142940498Y-83915820D01*
X142904188Y-84035518D01*
X142891928Y-84160000D01*
X134112000Y-84160000D01*
X134112000Y-80137000D01*
X142909561Y-80137000D01*
X142886611Y-80462706D01*
%TA.AperFunction,Conductor*%
D14*
G36*
X142886611Y-80462706D02*
G01*
X142933275Y-80831075D01*
X143050906Y-81183262D01*
X143176423Y-81418086D01*
X143466395Y-81544000D01*
X144408937Y-80601458D01*
X144648410Y-80721195D01*
X143646000Y-81723605D01*
X143771914Y-82013577D01*
X144104126Y-82179433D01*
X144462312Y-82277290D01*
X144832706Y-82303389D01*
X145201075Y-82256725D01*
X145553262Y-82139094D01*
X145788086Y-82013577D01*
X145914000Y-81723605D01*
X144929043Y-80738648D01*
X145216411Y-80666806D01*
X146093605Y-81544000D01*
X146383577Y-81418086D01*
X146549433Y-81085874D01*
X146647290Y-80727688D01*
X146673389Y-80357294D01*
X146666668Y-80304242D01*
X147193000Y-80172659D01*
X147193000Y-97663000D01*
X109347000Y-97663000D01*
X109347000Y-96723605D01*
X110626000Y-96723605D01*
X110751914Y-97013577D01*
X111084126Y-97179433D01*
X111442312Y-97277290D01*
X111812706Y-97303389D01*
X112181075Y-97256725D01*
X112533262Y-97139094D01*
X112768086Y-97013577D01*
X112894000Y-96723605D01*
X111760000Y-95589605D01*
X110626000Y-96723605D01*
X109347000Y-96723605D01*
X109347000Y-95462706D01*
X109866611Y-95462706D01*
X109913275Y-95831075D01*
X110030906Y-96183262D01*
X110156423Y-96418086D01*
X110446395Y-96544000D01*
X111580395Y-95410000D01*
X111939605Y-95410000D01*
X113073605Y-96544000D01*
X113363577Y-96418086D01*
X113529433Y-96085874D01*
X113627290Y-95727688D01*
X113653389Y-95357294D01*
X113606725Y-94988925D01*
X113489094Y-94636738D01*
X113363577Y-94401914D01*
X113073605Y-94276000D01*
X111939605Y-95410000D01*
X111580395Y-95410000D01*
X110446395Y-94276000D01*
X110156423Y-94401914D01*
X109990567Y-94734126D01*
X109892710Y-95092312D01*
X109866611Y-95462706D01*
X109347000Y-95462706D01*
X109347000Y-94096395D01*
X110626000Y-94096395D01*
X111760000Y-95230395D01*
X112894000Y-94096395D01*
X112768086Y-93806423D01*
X112435874Y-93640567D01*
X112077688Y-93542710D01*
X111707294Y-93516611D01*
X111338925Y-93563275D01*
X110986738Y-93680906D01*
X110751914Y-93806423D01*
X110626000Y-94096395D01*
X109347000Y-94096395D01*
X109347000Y-93159344D01*
X120035000Y-93159344D01*
X120035000Y-93530656D01*
X120107439Y-93894834D01*
X120249534Y-94237882D01*
X120455825Y-94546618D01*
X120718382Y-94809175D01*
X121027118Y-95015466D01*
X121370166Y-95157561D01*
X121734344Y-95230000D01*
X122105656Y-95230000D01*
X122469834Y-95157561D01*
X122812882Y-95015466D01*
X123121618Y-94809175D01*
X123384175Y-94546618D01*
X123590466Y-94237882D01*
X123732561Y-93894834D01*
X123805000Y-93530656D01*
X123805000Y-93159344D01*
X142260000Y-93159344D01*
X142260000Y-93530656D01*
X142332439Y-93894834D01*
X142474534Y-94237882D01*
X142680825Y-94546618D01*
X142943382Y-94809175D01*
X143252118Y-95015466D01*
X143595166Y-95157561D01*
X143959344Y-95230000D01*
X144330656Y-95230000D01*
X144694834Y-95157561D01*
X145037882Y-95015466D01*
X145346618Y-94809175D01*
X145609175Y-94546618D01*
X145815466Y-94237882D01*
X145957561Y-93894834D01*
X146030000Y-93530656D01*
X146030000Y-93159344D01*
X145957561Y-92795166D01*
X145815466Y-92452118D01*
X145609175Y-92143382D01*
X145346618Y-91880825D01*
X145037882Y-91674534D01*
X144694834Y-91532439D01*
X144330656Y-91460000D01*
X143959344Y-91460000D01*
X143595166Y-91532439D01*
X143252118Y-91674534D01*
X142943382Y-91880825D01*
X142680825Y-92143382D01*
X142474534Y-92452118D01*
X142332439Y-92795166D01*
X142260000Y-93159344D01*
X123805000Y-93159344D01*
X123732561Y-92795166D01*
X123590466Y-92452118D01*
X123384175Y-92143382D01*
X123121618Y-91880825D01*
X122812882Y-91674534D01*
X122469834Y-91532439D01*
X122105656Y-91460000D01*
X121734344Y-91460000D01*
X121370166Y-91532439D01*
X121027118Y-91674534D01*
X120718382Y-91880825D01*
X120455825Y-92143382D01*
X120249534Y-92452118D01*
X120107439Y-92795166D01*
X120035000Y-93159344D01*
X109347000Y-93159344D01*
X109347000Y-92837000D01*
X114935000Y-92837000D01*
X114959776Y-92834560D01*
X114983601Y-92827333D01*
X115005557Y-92815597D01*
X115024803Y-92799803D01*
X115040597Y-92780557D01*
X115052333Y-92758601D01*
X115059560Y-92734776D01*
X115062000Y-92710000D01*
X115062000Y-87122000D01*
X133985000Y-87122000D01*
X134009776Y-87119560D01*
X134033601Y-87112333D01*
X134055557Y-87100597D01*
X134074803Y-87084803D01*
X134090597Y-87065557D01*
X134102333Y-87043601D01*
X134109560Y-87019776D01*
X134112000Y-86995000D01*
X134112000Y-84160000D01*
X142891928Y-84160000D01*
X142891928Y-86660000D01*
X142904188Y-86784482D01*
X142940498Y-86904180D01*
X142999463Y-87014494D01*
X143078815Y-87111185D01*
X143175506Y-87190537D01*
X143285820Y-87249502D01*
X143405518Y-87285812D01*
X143530000Y-87298072D01*
X146030000Y-87298072D01*
X146154482Y-87285812D01*
X146274180Y-87249502D01*
X146384494Y-87190537D01*
X146481185Y-87111185D01*
X146560537Y-87014494D01*
X146619502Y-86904180D01*
X146655812Y-86784482D01*
X146668072Y-86660000D01*
X146668072Y-84160000D01*
X146655812Y-84035518D01*
X146619502Y-83915820D01*
X146560537Y-83805506D01*
X146481185Y-83708815D01*
X146384494Y-83629463D01*
X146274180Y-83570498D01*
X146154482Y-83534188D01*
X146030000Y-83521928D01*
X143530000Y-83521928D01*
X143405518Y-83534188D01*
X143285820Y-83570498D01*
X143175506Y-83629463D01*
X143078815Y-83708815D01*
X142999463Y-83805506D01*
X142940498Y-83915820D01*
X142904188Y-84035518D01*
X142891928Y-84160000D01*
X134112000Y-84160000D01*
X134112000Y-80137000D01*
X142909561Y-80137000D01*
X142886611Y-80462706D01*
G37*
%TD.AperFunction*%
%TD*%
D13*
%TO.N,/TempSensorA*%
X130699383Y-99818707D02*
X131015973Y-102034838D01*
X130757294Y-102016611D01*
X130388925Y-102063275D01*
X130036738Y-102180906D01*
X129801914Y-102306423D01*
X129676000Y-102596395D01*
X130810000Y-103730395D01*
X130824143Y-103716253D01*
X131003748Y-103895858D01*
X130989605Y-103910000D01*
X131003748Y-103924143D01*
X130824143Y-104103748D01*
X130810000Y-104089605D01*
X129676000Y-105223605D01*
X129801914Y-105513577D01*
X130134126Y-105679433D01*
X130492312Y-105777290D01*
X130862706Y-105803389D01*
X131231075Y-105756725D01*
X131583262Y-105639094D01*
X131776414Y-105535851D01*
X131903797Y-105918000D01*
X113575296Y-105918000D01*
X113627290Y-105727688D01*
X113653389Y-105357294D01*
X113606725Y-104988925D01*
X113489094Y-104636738D01*
X113363577Y-104401914D01*
X113073605Y-104276000D01*
X111939605Y-105410000D01*
X111953748Y-105424143D01*
X111774143Y-105603748D01*
X111760000Y-105589605D01*
X111745858Y-105603748D01*
X111566253Y-105424143D01*
X111580395Y-105410000D01*
X110446395Y-104276000D01*
X110156423Y-104401914D01*
X109990567Y-104734126D01*
X109982000Y-104765484D01*
X109982000Y-104096395D01*
X110626000Y-104096395D01*
X111760000Y-105230395D01*
X112894000Y-104096395D01*
X112768086Y-103806423D01*
X112435874Y-103640567D01*
X112077688Y-103542710D01*
X111707294Y-103516611D01*
X111338925Y-103563275D01*
X110986738Y-103680906D01*
X110751914Y-103806423D01*
X110626000Y-104096395D01*
X109982000Y-104096395D01*
X109982000Y-102660000D01*
X123921928Y-102660000D01*
X123921928Y-105160000D01*
X123934188Y-105284482D01*
X123970498Y-105404180D01*
X124029463Y-105514494D01*
X124108815Y-105611185D01*
X124205506Y-105690537D01*
X124315820Y-105749502D01*
X124435518Y-105785812D01*
X124560000Y-105798072D01*
X127060000Y-105798072D01*
X127184482Y-105785812D01*
X127304180Y-105749502D01*
X127414494Y-105690537D01*
X127511185Y-105611185D01*
X127590537Y-105514494D01*
X127649502Y-105404180D01*
X127685812Y-105284482D01*
X127698072Y-105160000D01*
X127698072Y-103962706D01*
X128916611Y-103962706D01*
X128963275Y-104331075D01*
X129080906Y-104683262D01*
X129206423Y-104918086D01*
X129496395Y-105044000D01*
X130630395Y-103910000D01*
X129496395Y-102776000D01*
X129206423Y-102901914D01*
X129040567Y-103234126D01*
X128942710Y-103592312D01*
X128916611Y-103962706D01*
X127698072Y-103962706D01*
X127698072Y-102660000D01*
X127685812Y-102535518D01*
X127649502Y-102415820D01*
X127590537Y-102305506D01*
X127511185Y-102208815D01*
X127414494Y-102129463D01*
X127304180Y-102070498D01*
X127184482Y-102034188D01*
X127060000Y-102021928D01*
X124560000Y-102021928D01*
X124435518Y-102034188D01*
X124315820Y-102070498D01*
X124205506Y-102129463D01*
X124108815Y-102208815D01*
X124029463Y-102305506D01*
X123970498Y-102415820D01*
X123934188Y-102535518D01*
X123921928Y-102660000D01*
X109982000Y-102660000D01*
X109982000Y-101043272D01*
X110089534Y-101302882D01*
X110295825Y-101611618D01*
X110558382Y-101874175D01*
X110867118Y-102080466D01*
X111210166Y-102222561D01*
X111574344Y-102295000D01*
X111945656Y-102295000D01*
X112309834Y-102222561D01*
X112652882Y-102080466D01*
X112961618Y-101874175D01*
X113224175Y-101611618D01*
X113430466Y-101302882D01*
X113572561Y-100959834D01*
X113645000Y-100595656D01*
X113645000Y-100224344D01*
X113572561Y-99860166D01*
X113430466Y-99517118D01*
X113279261Y-99290824D01*
X130699383Y-99818707D01*
%TA.AperFunction,Conductor*%
D14*
G36*
X130699383Y-99818707D02*
G01*
X131015973Y-102034838D01*
X130757294Y-102016611D01*
X130388925Y-102063275D01*
X130036738Y-102180906D01*
X129801914Y-102306423D01*
X129676000Y-102596395D01*
X130810000Y-103730395D01*
X130824143Y-103716253D01*
X131003748Y-103895858D01*
X130989605Y-103910000D01*
X131003748Y-103924143D01*
X130824143Y-104103748D01*
X130810000Y-104089605D01*
X129676000Y-105223605D01*
X129801914Y-105513577D01*
X130134126Y-105679433D01*
X130492312Y-105777290D01*
X130862706Y-105803389D01*
X131231075Y-105756725D01*
X131583262Y-105639094D01*
X131776414Y-105535851D01*
X131903797Y-105918000D01*
X113575296Y-105918000D01*
X113627290Y-105727688D01*
X113653389Y-105357294D01*
X113606725Y-104988925D01*
X113489094Y-104636738D01*
X113363577Y-104401914D01*
X113073605Y-104276000D01*
X111939605Y-105410000D01*
X111953748Y-105424143D01*
X111774143Y-105603748D01*
X111760000Y-105589605D01*
X111745858Y-105603748D01*
X111566253Y-105424143D01*
X111580395Y-105410000D01*
X110446395Y-104276000D01*
X110156423Y-104401914D01*
X109990567Y-104734126D01*
X109982000Y-104765484D01*
X109982000Y-104096395D01*
X110626000Y-104096395D01*
X111760000Y-105230395D01*
X112894000Y-104096395D01*
X112768086Y-103806423D01*
X112435874Y-103640567D01*
X112077688Y-103542710D01*
X111707294Y-103516611D01*
X111338925Y-103563275D01*
X110986738Y-103680906D01*
X110751914Y-103806423D01*
X110626000Y-104096395D01*
X109982000Y-104096395D01*
X109982000Y-102660000D01*
X123921928Y-102660000D01*
X123921928Y-105160000D01*
X123934188Y-105284482D01*
X123970498Y-105404180D01*
X124029463Y-105514494D01*
X124108815Y-105611185D01*
X124205506Y-105690537D01*
X124315820Y-105749502D01*
X124435518Y-105785812D01*
X124560000Y-105798072D01*
X127060000Y-105798072D01*
X127184482Y-105785812D01*
X127304180Y-105749502D01*
X127414494Y-105690537D01*
X127511185Y-105611185D01*
X127590537Y-105514494D01*
X127649502Y-105404180D01*
X127685812Y-105284482D01*
X127698072Y-105160000D01*
X127698072Y-103962706D01*
X128916611Y-103962706D01*
X128963275Y-104331075D01*
X129080906Y-104683262D01*
X129206423Y-104918086D01*
X129496395Y-105044000D01*
X130630395Y-103910000D01*
X129496395Y-102776000D01*
X129206423Y-102901914D01*
X129040567Y-103234126D01*
X128942710Y-103592312D01*
X128916611Y-103962706D01*
X127698072Y-103962706D01*
X127698072Y-102660000D01*
X127685812Y-102535518D01*
X127649502Y-102415820D01*
X127590537Y-102305506D01*
X127511185Y-102208815D01*
X127414494Y-102129463D01*
X127304180Y-102070498D01*
X127184482Y-102034188D01*
X127060000Y-102021928D01*
X124560000Y-102021928D01*
X124435518Y-102034188D01*
X124315820Y-102070498D01*
X124205506Y-102129463D01*
X124108815Y-102208815D01*
X124029463Y-102305506D01*
X123970498Y-102415820D01*
X123934188Y-102535518D01*
X123921928Y-102660000D01*
X109982000Y-102660000D01*
X109982000Y-101043272D01*
X110089534Y-101302882D01*
X110295825Y-101611618D01*
X110558382Y-101874175D01*
X110867118Y-102080466D01*
X111210166Y-102222561D01*
X111574344Y-102295000D01*
X111945656Y-102295000D01*
X112309834Y-102222561D01*
X112652882Y-102080466D01*
X112961618Y-101874175D01*
X113224175Y-101611618D01*
X113430466Y-101302882D01*
X113572561Y-100959834D01*
X113645000Y-100595656D01*
X113645000Y-100224344D01*
X113572561Y-99860166D01*
X113430466Y-99517118D01*
X113279261Y-99290824D01*
X130699383Y-99818707D01*
G37*
%TD.AperFunction*%
%TD*%
D13*
%TO.N,/TempSensorA*%
X132588000Y-103283162D02*
X132539094Y-103136738D01*
X132413577Y-102901914D01*
X132123605Y-102776000D01*
X130989605Y-103910000D01*
X132123605Y-105044000D01*
X132413577Y-104918086D01*
X132579433Y-104585874D01*
X132588000Y-104554516D01*
X132588000Y-106553000D01*
X113082608Y-106553000D01*
X113073607Y-106543999D01*
X113363577Y-106418086D01*
X113529433Y-106085874D01*
X113627290Y-105727688D01*
X113653389Y-105357294D01*
X113606725Y-104988925D01*
X113489094Y-104636738D01*
X113363577Y-104401914D01*
X113073605Y-104276000D01*
X111939605Y-105410000D01*
X111953748Y-105424143D01*
X111774143Y-105603748D01*
X111760000Y-105589605D01*
X111745858Y-105603748D01*
X111566253Y-105424143D01*
X111580395Y-105410000D01*
X110446395Y-104276000D01*
X110223809Y-104372653D01*
X110377285Y-104096395D01*
X110626000Y-104096395D01*
X111760000Y-105230395D01*
X112894000Y-104096395D01*
X112768086Y-103806423D01*
X112435874Y-103640567D01*
X112077688Y-103542710D01*
X111707294Y-103516611D01*
X111338925Y-103563275D01*
X110986738Y-103680906D01*
X110751914Y-103806423D01*
X110626000Y-104096395D01*
X110377285Y-104096395D01*
X111175282Y-102660000D01*
X123921928Y-102660000D01*
X123921928Y-105160000D01*
X123934188Y-105284482D01*
X123970498Y-105404180D01*
X124029463Y-105514494D01*
X124108815Y-105611185D01*
X124205506Y-105690537D01*
X124315820Y-105749502D01*
X124435518Y-105785812D01*
X124560000Y-105798072D01*
X127060000Y-105798072D01*
X127184482Y-105785812D01*
X127304180Y-105749502D01*
X127414494Y-105690537D01*
X127511185Y-105611185D01*
X127590537Y-105514494D01*
X127649502Y-105404180D01*
X127685812Y-105284482D01*
X127691807Y-105223605D01*
X129676000Y-105223605D01*
X129801914Y-105513577D01*
X130134126Y-105679433D01*
X130492312Y-105777290D01*
X130862706Y-105803389D01*
X131231075Y-105756725D01*
X131583262Y-105639094D01*
X131818086Y-105513577D01*
X131944000Y-105223605D01*
X130810000Y-104089605D01*
X129676000Y-105223605D01*
X127691807Y-105223605D01*
X127698072Y-105160000D01*
X127698072Y-103962706D01*
X128916611Y-103962706D01*
X128963275Y-104331075D01*
X129080906Y-104683262D01*
X129206423Y-104918086D01*
X129496395Y-105044000D01*
X130630395Y-103910000D01*
X129496395Y-102776000D01*
X129206423Y-102901914D01*
X129040567Y-103234126D01*
X128942710Y-103592312D01*
X128916611Y-103962706D01*
X127698072Y-103962706D01*
X127698072Y-102660000D01*
X127691808Y-102596395D01*
X129676000Y-102596395D01*
X130810000Y-103730395D01*
X131944000Y-102596395D01*
X131818086Y-102306423D01*
X131485874Y-102140567D01*
X131127688Y-102042710D01*
X130757294Y-102016611D01*
X130388925Y-102063275D01*
X130036738Y-102180906D01*
X129801914Y-102306423D01*
X129676000Y-102596395D01*
X127691808Y-102596395D01*
X127685812Y-102535518D01*
X127649502Y-102415820D01*
X127590537Y-102305506D01*
X127511185Y-102208815D01*
X127414494Y-102129463D01*
X127304180Y-102070498D01*
X127184482Y-102034188D01*
X127060000Y-102021928D01*
X124560000Y-102021928D01*
X124435518Y-102034188D01*
X124315820Y-102070498D01*
X124205506Y-102129463D01*
X124108815Y-102208815D01*
X124029463Y-102305506D01*
X123970498Y-102415820D01*
X123934188Y-102535518D01*
X123921928Y-102660000D01*
X111175282Y-102660000D01*
X111397593Y-102259842D01*
X111574344Y-102295000D01*
X111945656Y-102295000D01*
X112309834Y-102222561D01*
X112652882Y-102080466D01*
X112961618Y-101874175D01*
X113224175Y-101611618D01*
X113430466Y-101302882D01*
X113572561Y-100959834D01*
X113645000Y-100595656D01*
X113645000Y-100224344D01*
X113572561Y-99860166D01*
X113430466Y-99517118D01*
X113224175Y-99208382D01*
X113202793Y-99187000D01*
X132588000Y-99187000D01*
X132588000Y-103283162D01*
%TA.AperFunction,Conductor*%
D14*
G36*
X132588000Y-103283162D02*
G01*
X132539094Y-103136738D01*
X132413577Y-102901914D01*
X132123605Y-102776000D01*
X130989605Y-103910000D01*
X132123605Y-105044000D01*
X132413577Y-104918086D01*
X132579433Y-104585874D01*
X132588000Y-104554516D01*
X132588000Y-106553000D01*
X113082608Y-106553000D01*
X113073607Y-106543999D01*
X113363577Y-106418086D01*
X113529433Y-106085874D01*
X113627290Y-105727688D01*
X113653389Y-105357294D01*
X113606725Y-104988925D01*
X113489094Y-104636738D01*
X113363577Y-104401914D01*
X113073605Y-104276000D01*
X111939605Y-105410000D01*
X111953748Y-105424143D01*
X111774143Y-105603748D01*
X111760000Y-105589605D01*
X111745858Y-105603748D01*
X111566253Y-105424143D01*
X111580395Y-105410000D01*
X110446395Y-104276000D01*
X110223809Y-104372653D01*
X110377285Y-104096395D01*
X110626000Y-104096395D01*
X111760000Y-105230395D01*
X112894000Y-104096395D01*
X112768086Y-103806423D01*
X112435874Y-103640567D01*
X112077688Y-103542710D01*
X111707294Y-103516611D01*
X111338925Y-103563275D01*
X110986738Y-103680906D01*
X110751914Y-103806423D01*
X110626000Y-104096395D01*
X110377285Y-104096395D01*
X111175282Y-102660000D01*
X123921928Y-102660000D01*
X123921928Y-105160000D01*
X123934188Y-105284482D01*
X123970498Y-105404180D01*
X124029463Y-105514494D01*
X124108815Y-105611185D01*
X124205506Y-105690537D01*
X124315820Y-105749502D01*
X124435518Y-105785812D01*
X124560000Y-105798072D01*
X127060000Y-105798072D01*
X127184482Y-105785812D01*
X127304180Y-105749502D01*
X127414494Y-105690537D01*
X127511185Y-105611185D01*
X127590537Y-105514494D01*
X127649502Y-105404180D01*
X127685812Y-105284482D01*
X127691807Y-105223605D01*
X129676000Y-105223605D01*
X129801914Y-105513577D01*
X130134126Y-105679433D01*
X130492312Y-105777290D01*
X130862706Y-105803389D01*
X131231075Y-105756725D01*
X131583262Y-105639094D01*
X131818086Y-105513577D01*
X131944000Y-105223605D01*
X130810000Y-104089605D01*
X129676000Y-105223605D01*
X127691807Y-105223605D01*
X127698072Y-105160000D01*
X127698072Y-103962706D01*
X128916611Y-103962706D01*
X128963275Y-104331075D01*
X129080906Y-104683262D01*
X129206423Y-104918086D01*
X129496395Y-105044000D01*
X130630395Y-103910000D01*
X129496395Y-102776000D01*
X129206423Y-102901914D01*
X129040567Y-103234126D01*
X128942710Y-103592312D01*
X128916611Y-103962706D01*
X127698072Y-103962706D01*
X127698072Y-102660000D01*
X127691808Y-102596395D01*
X129676000Y-102596395D01*
X130810000Y-103730395D01*
X131944000Y-102596395D01*
X131818086Y-102306423D01*
X131485874Y-102140567D01*
X131127688Y-102042710D01*
X130757294Y-102016611D01*
X130388925Y-102063275D01*
X130036738Y-102180906D01*
X129801914Y-102306423D01*
X129676000Y-102596395D01*
X127691808Y-102596395D01*
X127685812Y-102535518D01*
X127649502Y-102415820D01*
X127590537Y-102305506D01*
X127511185Y-102208815D01*
X127414494Y-102129463D01*
X127304180Y-102070498D01*
X127184482Y-102034188D01*
X127060000Y-102021928D01*
X124560000Y-102021928D01*
X124435518Y-102034188D01*
X124315820Y-102070498D01*
X124205506Y-102129463D01*
X124108815Y-102208815D01*
X124029463Y-102305506D01*
X123970498Y-102415820D01*
X123934188Y-102535518D01*
X123921928Y-102660000D01*
X111175282Y-102660000D01*
X111397593Y-102259842D01*
X111574344Y-102295000D01*
X111945656Y-102295000D01*
X112309834Y-102222561D01*
X112652882Y-102080466D01*
X112961618Y-101874175D01*
X113224175Y-101611618D01*
X113430466Y-101302882D01*
X113572561Y-100959834D01*
X113645000Y-100595656D01*
X113645000Y-100224344D01*
X113572561Y-99860166D01*
X113430466Y-99517118D01*
X113224175Y-99208382D01*
X113202793Y-99187000D01*
X132588000Y-99187000D01*
X132588000Y-103283162D01*
G37*
%TD.AperFunction*%
%TD*%
M02*
