  0
SECTION
  2
HEADER
  9
$ACADVER
  1
AC1015
  9
$ACADMAINTVER
 70
     6
  9
$DWGCODEPAGE
  3
ANSI_1250
  9
$INSBASE
 10
0.0
 20
0.0
 30
0.0
  9
$EXTMIN
 10
0.0
 20
0.0
 30
0.0
  9
$EXTMAX
 10
2970.0
 20
2100.0
 30
0.0
  9
$LIMMIN
 10
0.0
 20
0.0
  9
$LIMMAX
 10
2970.0
 20
2100.0
  9
$ORTHOMODE
 70
     0
  9
$REGENMODE
 70
     1
  9
$FILLMODE
 70
     1
  9
$QTEXTMODE
 70
     0
  9
$MIRRTEXT
 70
     1
  9
$LTSCALE
 40
10.0
  9
$ATTMODE
 70
     1
  9
$TEXTSIZE
 40
35.0
  9
$TRACEWID
 40
1.0
  9
$TEXTSTYLE
  7
Standard
  9
$CLAYER
  8
0
  9
$CELTYPE
  6
ByLayer
  9
$CECOLOR
 62
   256
  9
$CELTSCALE
 40
1.0
  9
$DISPSILH
 70
     0
  9
$DIMSCALE
 40
1.0
  9
$DIMASZ
 40
33.02
  9
$DIMEXO
 40
10.0
  9
$DIMDLI
 40
3.75
  9
$DIMRND
 40
0.0
  9
$DIMDLE
 40
0.0
  9
$DIMEXE
 40
10.0
  9
$DIMTP
 40
0.0
  9
$DIMTM
 40
0.0
  9
$DIMTXT
 40
35.0
  9
$DIMCEN
 40
2.5
  9
$DIMTSZ
 40
0.0
  9
$DIMTOL
 70
     0
  9
$DIMLIM
 70
     0
  9
$DIMTIH
 70
     1
  9
$DIMTOH
 70
     1
  9
$DIMSE1
 70
     0
  9
$DIMSE2
 70
     0
  9
$DIMTAD
 70
     1
  9
$DIMZIN
 70
     0
  9
$DIMBLK
  1

  9
$DIMASO
 70
     1
  9
$DIMSHO
 70
     1
  9
$DIMPOST
  1

  9
$DIMAPOST
  1

  9
$DIMALT
 70
     0
  9
$DIMALTD
 70
     3
  9
$DIMALTF
 40
0.0393700787
  9
$DIMLFAC
 40
1.0
  9
$DIMTOFL
 70
     1
  9
$DIMTVP
 40
0.0
  9
$DIMTIX
 70
     0
  9
$DIMSOXD
 70
     0
  9
$DIMSAH
 70
     0
  9
$DIMBLK1
  1

  9
$DIMBLK2
  1

  9
$DIMSTYLE
  2
ISO-25
  9
$DIMCLRD
 70
     0
  9
$DIMCLRE
 70
     0
  9
$DIMCLRT
 70
     0
  9
$DIMTFAC
 40
1.0
  9
$DIMGAP
 40
15.24
  9
$DIMJUST
 70
     0
  9
$DIMSD1
 70
     0
  9
$DIMSD2
 70
     0
  9
$DIMTOLJ
 70
     0
  9
$DIMTZIN
 70
     0
  9
$DIMALTZ
 70
     0
  9
$DIMALTTZ
 70
     0
  9
$DIMUPT
 70
     0
  9
$DIMDEC
 70
     2
  9
$DIMTDEC
 70
     2
  9
$DIMALTU
 70
     2
  9
$DIMALTTD
 70
     3
  9
$DIMTXSTY
  7
Standard
  9
$DIMAUNIT
 70
     0
  9
$DIMADEC
 70
     2
  9
$DIMALTRND
 40
0.0
  9
$DIMAZIN
 70
     0
  9
$DIMDSEP
 70
    44
  9
$DIMATFIT
 70
     3
  9
$DIMFRAC
 70
     0
  9
$DIMLDRBLK
  1

  9
$DIMLUNIT
 70
     2
  9
$DIMLWD
 70
    -2
  9
$DIMLWE
 70
    -2
  9
$DIMTMOVE
 70
     0
  9
$LUNITS
 70
     2
  9
$LUPREC
 70
     2
  9
$SKETCHINC
 40
1.0
  9
$FILLETRAD
 40
10.0
  9
$AUNITS
 70
     0
  9
$AUPREC
 70
     2
  9
$MENU
  1
.
  9
$ELEVATION
 40
0.0
  9
$PELEVATION
 40
0.0
  9
$THICKNESS
 40
0.0
  9
$LIMCHECK
 70
     0
  9
$CHAMFERA
 40
0.0
  9
$CHAMFERB
 40
0.0
  9
$CHAMFERC
 40
0.0
  9
$CHAMFERD
 40
0.0
  9
$SKPOLY
 70
     0
  9
$TDCREATE
 40
2459351.548828194
  9
$TDUCREATE
 40
2459351.465494861
  9
$TDUPDATE
 40
2459351.548831088
  9
$TDUUPDATE
 40
2459351.465497755
  9
$TDINDWG
 40
0.0000000116
  9
$TDUSRTIMER
 40
0.0000000116
  9
$USRTIMER
 70
     1
  9
$ANGBASE
 50
0.0
  9
$ANGDIR
 70
     0
  9
$PDMODE
 70
     0
  9
$PDSIZE
 40
-1.0
  9
$PLINEWID
 40
0.0
  9
$SPLFRAME
 70
     0
  9
$SPLINETYPE
 70
     6
  9
$SPLINESEGS
 70
     8
  9
$HANDSEED
  5
1E6
  9
$SURFTAB1
 70
     6
  9
$SURFTAB2
 70
     6
  9
$SURFTYPE
 70
     6
  9
$SURFU
 70
     6
  9
$SURFV
 70
     6
  9
$UCSBASE
  2

  9
$UCSNAME
  2

  9
$UCSORG
 10
0.0
 20
0.0
 30
0.0
  9
$UCSXDIR
 10
1.0
 20
0.0
 30
0.0
  9
$UCSYDIR
 10
0.0
 20
1.0
 30
0.0
  9
$UCSORTHOREF
  2

  9
$UCSORTHOVIEW
 70
     0
  9
$UCSORGTOP
 10
0.0
 20
0.0
 30
0.0
  9
$UCSORGBOTTOM
 10
0.0
 20
0.0
 30
0.0
  9
$UCSORGLEFT
 10
0.0
 20
0.0
 30
0.0
  9
$UCSORGRIGHT
 10
0.0
 20
0.0
 30
0.0
  9
$UCSORGFRONT
 10
0.0
 20
0.0
 30
0.0
  9
$UCSORGBACK
 10
0.0
 20
0.0
 30
0.0
  9
$PUCSBASE
  2

  9
$PUCSNAME
  2

  9
$PUCSORG
 10
0.0
 20
0.0
 30
0.0
  9
$PUCSXDIR
 10
1.0
 20
0.0
 30
0.0
  9
$PUCSYDIR
 10
0.0
 20
1.0
 30
0.0
  9
$PUCSORTHOREF
  2

  9
$PUCSORTHOVIEW
 70
     0
  9
$PUCSORGTOP
 10
0.0
 20
0.0
 30
0.0
  9
$PUCSORGBOTTOM
 10
0.0
 20
0.0
 30
0.0
  9
$PUCSORGLEFT
 10
0.0
 20
0.0
 30
0.0
  9
$PUCSORGRIGHT
 10
0.0
 20
0.0
 30
0.0
  9
$PUCSORGFRONT
 10
0.0
 20
0.0
 30
0.0
  9
$PUCSORGBACK
 10
0.0
 20
0.0
 30
0.0
  9
$USERI1
 70
     0
  9
$USERI2
 70
     0
  9
$USERI3
 70
     0
  9
$USERI4
 70
     0
  9
$USERI5
 70
     0
  9
$USERR1
 40
0.0
  9
$USERR2
 40
0.0
  9
$USERR3
 40
0.0
  9
$USERR4
 40
0.0
  9
$USERR5
 40
0.0
  9
$WORLDVIEW
 70
     1
  9
$SHADEDGE
 70
     3
  9
$SHADEDIF
 70
    70
  9
$TILEMODE
 70
     1
  9
$MAXACTVP
 70
    64
  9
$PINSBASE
 10
0.0
 20
0.0
 30
0.0
  9
$PLIMCHECK
 70
     0
  9
$PEXTMIN
 10
1.0000000000E+20
 20
1.0000000000E+20
 30
1.0000000000E+20
  9
$PEXTMAX
 10
-1.0000000000E+20
 20
-1.0000000000E+20
 30
-1.0000000000E+20
  9
$PLIMMIN
 10
0.0
 20
0.0
  9
$PLIMMAX
 10
420.0
 20
297.0
  9
$UNITMODE
 70
     0
  9
$VISRETAIN
 70
     1
  9
$PLINEGEN
 70
     0
  9
$PSLTSCALE
 70
     1
  9
$TREEDEPTH
 70
  3020
  9
$CMLSTYLE
  2
Standard
  9
$CMLJUST
 70
     0
  9
$CMLSCALE
 40
20.0
  9
$PROXYGRAPHICS
 70
     1
  9
$MEASUREMENT
 70
     1
  9
$CELWEIGHT
370
    -1
  9
$ENDCAPS
280
     0
  9
$JOINSTYLE
280
     0
  9
$LWDISPLAY
290
     1
  9
$INSUNITS
 70
     4
  9
$HYPERLINKBASE
  1

  9
$STYLESHEET
  1

  9
$XEDIT
290
     1
  9
$CEPSNTYPE
380
     0
  9
$PSTYLEMODE
290
     1
  9
$FINGERPRINTGUID
  2
{8F2ACF47-5FA3-4C8F-B436-F2CA2784448D}
  9
$VERSIONGUID
  2
{FAEB1C32-E019-11D5-929B-00C0DF256EC4}
  9
$EXTNAMES
290
     1
  9
$PSVPSCALE
 40
0.0
  9
$OLESTARTUP
290
     0
  0
ENDSEC
  0
SECTION
  2
CLASSES
  0
CLASS
  1
ACDBDICTIONARYWDFLT
  2
AcDbDictionaryWithDefault
  3
ObjectDBX Classes
 90
        0
280
     0
281
     0
  0
CLASS
  1
VISUALSTYLE
  2
AcDbVisualStyle
  3
ObjectDBX Classes
 90
     4095
280
     0
281
     0
  0
CLASS
  1
MATERIAL
  2
AcDbMaterial
  3
ObjectDBX Classes
 90
     1153
280
     0
281
     0
  0
CLASS
  1
SCALE
  2
AcDbScale
  3
ObjectDBX Classes
 90
     1153
280
     0
281
     0
  0
CLASS
  1
TABLESTYLE
  2
AcDbTableStyle
  3
ObjectDBX Classes
 90
     4095
280
     0
281
     0
  0
CLASS
  1
MLEADERSTYLE
  2
AcDbMLeaderStyle
  3
ACDB_MLEADERSTYLE_CLASS
 90
     4095
280
     0
281
     0
  0
CLASS
  1
SUN
  2
AcDbSun
  3
SCENEOE
 90
     1153
280
     0
281
     0
  0
CLASS
  1
ACDBPLACEHOLDER
  2
AcDbPlaceHolder
  3
ObjectDBX Classes
 90
        0
280
     0
281
     0
  0
CLASS
  1
LAYOUT
  2
AcDbLayout
  3
ObjectDBX Classes
 90
        0
280
     0
281
     0
  0
ENDSEC
  0
SECTION
  2
TABLES
  0
TABLE
  2
VPORT
  5
8
330
0
100
AcDbSymbolTable
 70
     1
  0
VPORT
  5
29
330
8
100
AcDbSymbolTableRecord
100
AcDbViewportTableRecord
  2
*Active
 70
     0
 10
0.0
 20
0.0
 11
1.0
 21
1.0
 12
1485.0
 22
1050.0
 13
0.0
 23
0.0
 14
10.0
 24
10.0
 15
10.0
 25
10.0
 16
0.0
 26
0.0
 36
1.0
 17
0.0
 27
0.0
 37
0.0
 40
2100.0
 41
1.4142857143
 42
50.0
 43
0.0
 44
0.0
 50
0.0
 51
0.0
 71
     0
 72
  2000
 73
     1
 74
     3
 75
     0
 76
     0
 77
     0
 78
     0
281
     0
 65
     1
110
0.0
120
0.0
130
0.0
111
1.0
121
0.0
131
0.0
112
0.0
122
1.0
132
0.0
 79
     0
146
0.0
  0
ENDTAB
  0
TABLE
  2
LTYPE
  5
5
330
0
100
AcDbSymbolTable
 70
     6
  0
LTYPE
  5
14
330
5
100
AcDbSymbolTableRecord
100
AcDbLinetypeTableRecord
  2
ByBlock
 70
     0
  3

 72
    65
 73
     0
 40
0.0
  0
LTYPE
  5
15
330
5
100
AcDbSymbolTableRecord
100
AcDbLinetypeTableRecord
  2
ByLayer
 70
     0
  3

 72
    65
 73
     0
 40
0.0
  0
LTYPE
  5
16
330
5
100
AcDbSymbolTableRecord
100
AcDbLinetypeTableRecord
  2
Continuous
 70
     0
  3
Solid line
 72
    65
 73
     0
 40
0.0
  0
LTYPE
  5
6E
330
5
100
AcDbSymbolTableRecord
100
AcDbLinetypeTableRecord
  2
HIDDEN
 70
     0
  3
Hidden __ __ __ __ __ __ __ __ __ __ __ __ __ __
 72
    65
 73
     2
 40
1.905
 49
1.27
 74
     0
 49
-0.635
 74
     0
  0
LTYPE
  5
6F
330
5
100
AcDbSymbolTableRecord
100
AcDbLinetypeTableRecord
  2
PHANTOM
 70
     0
  3
Phantom ______  __  __  ______  __  __  ______
 72
    65
 73
     6
 40
12.7
 49
6.35
 74
     0
 49
-1.27
 74
     0
 49
1.27
 74
     0
 49
-1.27
 74
     0
 49
1.27
 74
     0
 49
-1.27
 74
     0
  0
LTYPE
  5
70
330
5
100
AcDbSymbolTableRecord
100
AcDbLinetypeTableRecord
  2
CENTER
 70
     0
  3
Center ____ _ ____ _ ____ _ ____ _ ____ _ ____
 72
    65
 73
     4
 40
10.16
 49
6.35
 74
     0
 49
-1.27
 74
     0
 49
1.27
 74
     0
 49
-1.27
 74
     0
  0
LTYPE
  5
71
330
5
100
AcDbSymbolTableRecord
100
AcDbLinetypeTableRecord
  2
CENTERX2
 70
     0
  3
Center (2x) ________  __  ________  __  _____
 72
    65
 73
     4
 40
20.32
 49
12.7
 74
     0
 49
-2.54
 74
     0
 49
2.54
 74
     0
 49
-2.54
 74
     0
  0
LTYPE
  5
72
330
5
100
AcDbSymbolTableRecord
100
AcDbLinetypeTableRecord
  2
DOT2
 70
     0
  3
Dot (.5x) ........................................
 72
    65
 73
     2
 40
0.635
 49
0.0
 74
     0
 49
-0.635
 74
     0
  0
ENDTAB
  0
TABLE
  2
LAYER
  5
2
330
0
100
AcDbSymbolTable
 70
     2
  0
LAYER
  5
10
330
2
100
AcDbSymbolTableRecord
100
AcDbLayerTableRecord
  2
0
 70
     0
 62
     7
  6
Continuous
370
    -3
390
F
  0
LAYER
  5
73
330
2
100
AcDbSymbolTableRecord
100
AcDbLayerTableRecord
  2
FORMAT
 70
     0
 62
     7
  6
Continuous
370
    -3
390
F
  0
ENDTAB
  0
TABLE
  2
STYLE
  5
3
330
0
100
AcDbSymbolTable
 70
     4
  0
STYLE
  5
11
330
3
100
AcDbSymbolTableRecord
100
AcDbTextStyleTableRecord
  2
Standard
 70
     0
 40
0.0
 41
1.0
 50
0.0
 71
     0
 42
35.0
  3
txt
  4

  0
STYLE
  5
A5
330
3
100
AcDbSymbolTableRecord
100
AcDbTextStyleTableRecord
  2
SLDTEXTSTYLE0
 70
     0
 40
0.0
 41
0.75
 50
0.0
 71
     0
 42
35.0
  3
TXT
  4

  0
STYLE
  5
BD
330
3
100
AcDbSymbolTableRecord
100
AcDbTextStyleTableRecord
  2
SLDTEXTSTYLE1
 70
     0
 40
0.0
 41
0.6875
 50
0.0
 71
     0
 42
35.0
  3
TXT
  4
bigfont
  0
STYLE
  5
BF
330
3
100
AcDbSymbolTableRecord
100
AcDbTextStyleTableRecord
  2
SLDTEXTSTYLE2
 70
     0
 40
0.0
 41
0.75
 50
0.0
 71
     0
 42
35.0
  3
TXT
  4
bigfont
  0
ENDTAB
  0
TABLE
  2
VIEW
  5
6
330
0
100
AcDbSymbolTable
 70
     0
  0
ENDTAB
  0
TABLE
  2
UCS
  5
7
330
0
100
AcDbSymbolTable
 70
     0
  0
ENDTAB
  0
TABLE
  2
APPID
  5
9
330
0
100
AcDbSymbolTable
 70
     1
  0
APPID
  5
12
330
9
100
AcDbSymbolTableRecord
100
AcDbRegAppTableRecord
  2
ACAD
 70
     0
  0
ENDTAB
  0
TABLE
  2
DIMSTYLE
  5
A
330
0
100
AcDbSymbolTable
 70
     4
100
AcDbDimStyleTable
  0
DIMSTYLE
105
27
330
A
100
AcDbSymbolTableRecord
100
AcDbDimStyleTableRecord
  2
ISO-25
 70
     0
 41
2.5
 42
0.625
 43
3.75
 44
1.25
 73
     0
 74
     0
 77
     1
 78
     8
140
2.5
141
2.5
143
0.0393700787
147
0.625
171
     3
172
     1
178
     0
271
     2
272
     2
274
     3
278
    44
283
     0
284
     8
340
11
  0
DIMSTYLE
105
123
102
{ACAD_REACTORS
330
122
330
12D
330
137
102
}
330
A
100
AcDbSymbolTableRecord
100
AcDbDimStyleTableRecord
  2
SLDDIMSTYLE0
 70
     0
 41
33.02
 44
0.0
 45
0.000000001
 73
     0
 74
     0
 77
     1
 78
    12
 79
     3
140
35.0
147
8.75
173
     1
178
     0
271
     2
272
     2
276
     2
284
    12
340
A5
  0
DIMSTYLE
105
142
102
{ACAD_REACTORS
330
141
330
164
330
170
330
17C
330
188
330
1A6
330
1B2
330
1BE
330
1DA
102
}
330
A
100
AcDbSymbolTableRecord
100
AcDbDimStyleTableRecord
  2
SLDDIMSTYLE1
 70
     0
 41
33.02
 44
0.0
 45
0.000000001
 73
     0
 74
     0
 77
     1
 78
    12
 79
     3
140
35.0
147
8.75
172
     1
173
     1
178
     0
271
     2
272
     2
276
     2
284
    12
289
     0
340
A5
  0
DIMSTYLE
105
14F
102
{ACAD_REACTORS
330
14E
330
15B
330
194
330
19D
102
}
330
A
100
AcDbSymbolTableRecord
100
AcDbDimStyleTableRecord
  2
SLDDIMSTYLE2
 70
     0
 41
33.02
 44
0.0
 45
0.000000001
 73
     0
 74
     0
 77
     1
 78
    12
 79
     3
140
35.0
141
0.0
147
8.75
172
     1
173
     1
178
     0
271
     2
272
     2
276
     2
284
    12
340
A5
341
150
343
150
  0
ENDTAB
  0
TABLE
  2
BLOCK_RECORD
  5
1
330
0
100
AcDbSymbolTable
 70
    21
  0
BLOCK_RECORD
  5
1F
330
1
100
AcDbSymbolTableRecord
100
AcDbBlockTableRecord
  2
*Model_Space
340
22
  0
BLOCK_RECORD
  5
1B
330
1
100
AcDbSymbolTableRecord
100
AcDbBlockTableRecord
  2
*Paper_Space
340
1E
  0
BLOCK_RECORD
  5
23
330
1
100
AcDbSymbolTableRecord
100
AcDbBlockTableRecord
  2
*Paper_Space0
340
26
  0
BLOCK_RECORD
  5
C9
330
1
100
AcDbSymbolTableRecord
100
AcDbBlockTableRecord
  2
SW_NOTE_0
340
0
102
{BLKREFS
331
CE
102
}
  0
BLOCK_RECORD
  5
D0
330
1
100
AcDbSymbolTableRecord
100
AcDbBlockTableRecord
  2
SW_NOTE_1
340
0
102
{BLKREFS
331
D9
102
}
  0
BLOCK_RECORD
  5
124
330
1
100
AcDbSymbolTableRecord
100
AcDbBlockTableRecord
  2
_D
340
0
  0
BLOCK_RECORD
  5
12E
330
1
100
AcDbSymbolTableRecord
100
AcDbBlockTableRecord
  2
_D_1
340
0
  0
BLOCK_RECORD
  5
138
330
1
100
AcDbSymbolTableRecord
100
AcDbBlockTableRecord
  2
_D_2
340
0
  0
BLOCK_RECORD
  5
143
330
1
100
AcDbSymbolTableRecord
100
AcDbBlockTableRecord
  2
_D_3
340
0
  0
BLOCK_RECORD
  5
150
330
1
100
AcDbSymbolTableRecord
100
AcDbBlockTableRecord
  2
_NONE
340
0
  0
BLOCK_RECORD
  5
153
330
1
100
AcDbSymbolTableRecord
100
AcDbBlockTableRecord
  2
_D_4
340
0
  0
BLOCK_RECORD
  5
15C
330
1
100
AcDbSymbolTableRecord
100
AcDbBlockTableRecord
  2
_D_5
340
0
  0
BLOCK_RECORD
  5
165
330
1
100
AcDbSymbolTableRecord
100
AcDbBlockTableRecord
  2
_D_6
340
0
  0
BLOCK_RECORD
  5
171
330
1
100
AcDbSymbolTableRecord
100
AcDbBlockTableRecord
  2
_D_7
340
0
  0
BLOCK_RECORD
  5
17D
330
1
100
AcDbSymbolTableRecord
100
AcDbBlockTableRecord
  2
_D_8
340
0
  0
BLOCK_RECORD
  5
189
330
1
100
AcDbSymbolTableRecord
100
AcDbBlockTableRecord
  2
_D_9
340
0
  0
BLOCK_RECORD
  5
195
330
1
100
AcDbSymbolTableRecord
100
AcDbBlockTableRecord
  2
_D_10
340
0
  0
BLOCK_RECORD
  5
19E
330
1
100
AcDbSymbolTableRecord
100
AcDbBlockTableRecord
  2
_D_11
340
0
  0
BLOCK_RECORD
  5
1A7
330
1
100
AcDbSymbolTableRecord
100
AcDbBlockTableRecord
  2
_D_12
340
0
  0
BLOCK_RECORD
  5
1B3
330
1
100
AcDbSymbolTableRecord
100
AcDbBlockTableRecord
  2
_D_13
340
0
  0
BLOCK_RECORD
  5
1BF
330
1
100
AcDbSymbolTableRecord
100
AcDbBlockTableRecord
  2
_D_14
340
0
  0
BLOCK_RECORD
  5
1CA
330
1
100
AcDbSymbolTableRecord
100
AcDbBlockTableRecord
  2
SW_CENTERMARKSYMBOL_0
340
0
102
{BLKREFS
331
1D5
102
}
  0
BLOCK_RECORD
  5
1DB
330
1
100
AcDbSymbolTableRecord
100
AcDbBlockTableRecord
  2
_D_15
340
0
  0
ENDTAB
  0
ENDSEC
  0
SECTION
  2
BLOCKS
  0
BLOCK
  5
20
330
1F
100
AcDbEntity
  8
0
100
AcDbBlockBegin
  2
*Model_Space
 70
     0
 10
0.0
 20
0.0
 30
0.0
  3
*Model_Space
  1

  0
ENDBLK
  5
21
330
1F
100
AcDbEntity
  8
0
100
AcDbBlockEnd
  0
BLOCK
  5
1C
330
1B
100
AcDbEntity
 67
     1
  8
0
100
AcDbBlockBegin
  2
*Paper_Space
 70
     0
 10
0.0
 20
0.0
 30
0.0
  3
*Paper_Space
  1

  0
ENDBLK
  5
1D
330
1B
100
AcDbEntity
 67
     1
  8
0
100
AcDbBlockEnd
  0
BLOCK
  5
24
330
23
100
AcDbEntity
  8
0
100
AcDbBlockBegin
  2
*Paper_Space0
 70
     0
 10
0.0
 20
0.0
 30
0.0
  3
*Paper_Space0
  1

  0
ENDBLK
  5
25
330
23
100
AcDbEntity
  8
0
100
AcDbBlockEnd
  0
BLOCK
  5
CA
330
C9
100
AcDbEntity
  8
0
100
AcDbBlockBegin
  2
SW_NOTE_0
 70
     0
 10
0.0
 20
0.0
 30
0.0
  3
SW_NOTE_0
  1

  0
MTEXT
  5
CC
330
C9
100
AcDbEntity
  8
0
  6
Continuous
 62
     0
370
     0
100
AcDbMText
 10
0.0
 20
19.3360160966
 30
0.0
 40
15.0
 41
0.0
 71
     1
 72
     1
  1
ODSTRANIT
  7
SLDTEXTSTYLE0
 73
     1
 44
1.0
  0
MTEXT
  5
CD
330
C9
100
AcDbEntity
  8
0
  6
Continuous
 62
     0
370
     0
100
AcDbMText
 10
0.0
 20
-5.6639833446
 30
0.0
 40
15.0
 41
0.0
 71
     1
 72
     1
  1
OSTRÉ HRANY
  7
SLDTEXTSTYLE0
 73
     1
 44
1.0
  0
ENDBLK
  5
CB
330
C9
100
AcDbEntity
  8
0
100
AcDbBlockEnd
  0
BLOCK
  5
D1
330
D0
100
AcDbEntity
  8
0
100
AcDbBlockBegin
  2
SW_NOTE_1
 70
     0
 10
0.0
 20
0.0
 30
0.0
  3
SW_NOTE_1
  1

  0
MTEXT
  5
D3
330
D0
100
AcDbEntity
  8
0
  6
Continuous
 62
     0
370
     0
100
AcDbMText
 10
0.0
 20
19.3360160966
 30
0.0
 40
15.0
 41
0.0
 71
     1
 72
     1
  1
POKUD NENÍ UVEDENO JINAK:
  7
SLDTEXTSTYLE0
 73
     1
 44
1.0
  0
MTEXT
  5
D4
330
D0
100
AcDbEntity
  8
0
  6
Continuous
 62
     0
370
     0
100
AcDbMText
 10
0.0
 20
-5.6639833446
 30
0.0
 40
15.0
 41
0.0
 71
     1
 72
     1
  1
JEDNOTKY JSOU V MILIMETRECH
  7
SLDTEXTSTYLE0
 73
     1
 44
1.0
  0
MTEXT
  5
D5
330
D0
100
AcDbEntity
  8
0
  6
Continuous
 62
     0
370
     0
100
AcDbMText
 10
0.0
 20
-30.6639827858
 30
0.0
 40
15.0
 41
0.0
 71
     1
 72
     1
  1
DRSNOST:
  7
SLDTEXTSTYLE0
 73
     1
 44
1.0
  0
MTEXT
  5
D6
330
D0
100
AcDbEntity
  8
0
  6
Continuous
 62
     0
370
     0
100
AcDbMText
 10
0.0
 20
-55.663982227
 30
0.0
 40
15.0
 41
0.0
 71
     1
 72
     1
  1
TOLERANCE:
  7
SLDTEXTSTYLE0
 73
     1
 44
1.0
  0
MTEXT
  5
D7
330
D0
100
AcDbEntity
  8
0
  6
Continuous
 62
     0
370
     0
100
AcDbMText
 10
16.875
 20
-80.6639816682
 30
0.0
 40
15.0
 41
0.0
 71
     1
 72
     1
  1
LINEÁRNÍ:
  7
SLDTEXTSTYLE0
 73
     1
 44
1.0
  0
MTEXT
  5
D8
330
D0
100
AcDbEntity
  8
0
  6
Continuous
 62
     0
370
     0
100
AcDbMText
 10
16.875
 20
-105.6639811095
 30
0.0
 40
15.0
 41
0.0
 71
     1
 72
     1
  1
ÚHLOVÁ:
  7
SLDTEXTSTYLE0
 73
     1
 44
1.0
  0
ENDBLK
  5
D2
330
D0
100
AcDbEntity
  8
0
100
AcDbBlockEnd
  0
BLOCK
  5
125
330
124
100
AcDbEntity
  8
0
100
AcDbBlockBegin
  2
_D
 70
     0
 10
0.0
 20
0.0
 30
0.0
  3
_D
  1

  0
SOLID
  5
127
330
124
100
AcDbEntity
  8
0
  6
Continuous
 62
     7
370
    18
100
AcDbTrace
 10
426.657480315
 20
851.2204724409
 30
0.0
 11
459.677480315
 21
846.1404724409
 31
0.0
 12
459.677480315
 22
856.3004724409
 32
0.0
 13
459.677480315
 23
856.3004724409
 33
0.0
  0
SOLID
  5
128
330
124
100
AcDbEntity
  8
0
  6
Continuous
 62
     7
370
    18
100
AcDbTrace
 10
991.657480315
 20
851.2204724409
 30
0.0
 11
958.637480315
 21
856.3004724409
 31
0.0
 12
958.637480315
 22
846.1404724409
 32
0.0
 13
958.637480315
 23
846.1404724409
 33
0.0
  0
LINE
  5
129
330
124
100
AcDbEntity
  8
0
  6
Continuous
 62
     7
370
    18
100
AcDbLine
 10
426.657480315
 20
1034.342519685
 30
0.0
 11
426.657480315
 21
841.2204724409
 31
0.0
  0
LINE
  5
12A
330
124
100
AcDbEntity
  8
0
  6
Continuous
 62
     7
370
    18
100
AcDbLine
 10
991.657480315
 20
1034.342519685
 30
0.0
 11
991.657480315
 21
841.2204724409
 31
0.0
  0
LINE
  5
12B
330
124
100
AcDbEntity
  8
0
  6
Continuous
 62
     7
370
    18
100
AcDbLine
 10
426.657480315
 20
851.2204724409
 30
0.0
 11
991.657480315
 21
851.2204724409
 31
0.0
  0
MTEXT
  5
12C
330
124
100
AcDbEntity
  8
0
  6
Continuous
 62
     7
370
    18
100
AcDbMText
 10
682.4130576708
 20
896.3378415867
 30
0.0
 40
35.0
 41
0.0
 71
     1
 72
     1
  1
565
  7
SLDTEXTSTYLE0
 73
     1
 44
1.0
  0
ENDBLK
  5
126
330
124
100
AcDbEntity
  8
0
100
AcDbBlockEnd
  0
BLOCK
  5
12F
330
12E
100
AcDbEntity
  8
0
100
AcDbBlockBegin
  2
_D_1
 70
     0
 10
0.0
 20
0.0
 30
0.0
  3
_D_1
  1

  0
SOLID
  5
131
330
12E
100
AcDbEntity
  8
0
  6
Continuous
 62
     7
370
    18
100
AcDbTrace
 10
217.6299212598
 20
1689.342519685
 30
0.0
 11
212.5499212598
 21
1656.322519685
 31
0.0
 12
222.7099212598
 22
1656.322519685
 32
0.0
 13
222.7099212598
 23
1656.322519685
 33
0.0
  0
SOLID
  5
132
330
12E
100
AcDbEntity
  8
0
  6
Continuous
 62
     7
370
    18
100
AcDbTrace
 10
217.6299212598
 20
1044.342519685
 30
0.0
 11
222.7099212598
 21
1077.362519685
 31
0.0
 12
212.5499212598
 22
1077.362519685
 32
0.0
 13
212.5499212598
 23
1077.362519685
 33
0.0
  0
LINE
  5
133
330
12E
100
AcDbEntity
  8
0
  6
Continuous
 62
     7
370
    18
100
AcDbLine
 10
416.657480315
 20
1689.342519685
 30
0.0
 11
207.6299212598
 21
1689.342519685
 31
0.0
  0
LINE
  5
134
330
12E
100
AcDbEntity
  8
0
  6
Continuous
 62
     7
370
    18
100
AcDbLine
 10
416.657480315
 20
1044.342519685
 30
0.0
 11
207.6299212598
 21
1044.342519685
 31
0.0
  0
LINE
  5
135
330
12E
100
AcDbEntity
  8
0
  6
Continuous
 62
     7
370
    18
100
AcDbLine
 10
217.6299212598
 20
1689.342519685
 30
0.0
 11
217.6299212598
 21
1044.342519685
 31
0.0
  0
MTEXT
  5
136
330
12E
100
AcDbEntity
  8
0
  6
Continuous
 62
     7
370
    18
100
AcDbMText
 10
172.5125521141
 20
1369.0114828676
 30
0.0
 40
35.0
 41
0.0
 71
     1
 72
     1
  1
645
  7
SLDTEXTSTYLE0
 11
-7.044195017643634E-15
 21
1.0
 31
0.0
 73
     1
 44
1.0
  0
ENDBLK
  5
130
330
12E
100
AcDbEntity
  8
0
100
AcDbBlockEnd
  0
BLOCK
  5
139
330
138
100
AcDbEntity
  8
0
100
AcDbBlockBegin
  2
_D_2
 70
     0
 10
0.0
 20
0.0
 30
0.0
  3
_D_2
  1

  0
SOLID
  5
13B
330
138
100
AcDbEntity
  8
0
  6
Continuous
 62
     7
370
    18
100
AcDbTrace
 10
362.1968503937
 20
1366.842519685
 30
0.0
 11
357.1168503937
 21
1333.822519685
 31
0.0
 12
367.2768503937
 22
1333.822519685
 32
0.0
 13
367.2768503937
 23
1333.822519685
 33
0.0
  0
SOLID
  5
13C
330
138
100
AcDbEntity
  8
0
  6
Continuous
 62
     7
370
    18
100
AcDbTrace
 10
362.1968503937
 20
1044.342519685
 30
0.0
 11
367.2768503937
 21
1077.362519685
 31
0.0
 12
357.1168503937
 22
1077.362519685
 32
0.0
 13
357.1168503937
 23
1077.362519685
 33
0.0
  0
LINE
  5
13D
330
138
100
AcDbEntity
  8
0
  6
Continuous
 62
     7
370
    18
100
AcDbLine
 10
759.157480315
 20
1366.842519685
 30
0.0
 11
352.1968503937
 21
1366.842519685
 31
0.0
  0
LINE
  5
13E
330
138
100
AcDbEntity
  8
0
  6
Continuous
 62
     7
370
    18
100
AcDbLine
 10
416.657480315
 20
1044.342519685
 30
0.0
 11
352.1968503937
 21
1044.342519685
 31
0.0
  0
LINE
  5
13F
330
138
100
AcDbEntity
  8
0
  6
Continuous
 62
     7
370
    18
100
AcDbLine
 10
362.1968503937
 20
1366.842519685
 30
0.0
 11
362.1968503937
 21
1044.342519685
 31
0.0
  0
MTEXT
  5
140
330
138
100
AcDbEntity
  8
0
  6
Continuous
 62
     7
370
    18
100
AcDbMText
 10
317.0794812479
 20
1136.7008380697
 30
0.0
 40
35.0
 41
0.0
 71
     1
 72
     1
  1
322,50
  7
SLDTEXTSTYLE0
 11
-7.044195017643634E-15
 21
1.0
 31
0.0
 73
     1
 44
1.0
  0
ENDBLK
  5
13A
330
138
100
AcDbEntity
  8
0
100
AcDbBlockEnd
  0
BLOCK
  5
144
330
143
100
AcDbEntity
  8
0
100
AcDbBlockBegin
  2
_D_3
 70
     0
 10
0.0
 20
0.0
 30
0.0
  3
_D_3
  1

  0
SOLID
  5
146
330
143
100
AcDbEntity
  8
0
  6
Continuous
 62
     7
370
    18
100
AcDbTrace
 10
841.657480315
 20
944.342519685
 30
0.0
 11
808.637480315
 21
949.422519685
 31
0.0
 12
808.637480315
 22
939.262519685
 32
0.0
 13
808.637480315
 23
939.262519685
 33
0.0
  0
SOLID
  5
147
330
143
100
AcDbEntity
  8
0
  6
Continuous
 62
     7
370
    18
100
AcDbTrace
 10
991.657480315
 20
944.342519685
 30
0.0
 11
1024.677480315
 21
939.262519685
 31
0.0
 12
1024.677480315
 22
949.422519685
 32
0.0
 13
1024.677480315
 23
949.422519685
 33
0.0
  0
LINE
  5
148
330
143
100
AcDbEntity
  8
0
  6
Continuous
 62
     7
370
    18
100
AcDbLine
 10
841.657480315
 20
1284.342519685
 30
0.0
 11
841.657480315
 21
934.342519685
 31
0.0
  0
LINE
  5
149
330
143
100
AcDbEntity
  8
0
  6
Continuous
 62
     7
370
    18
100
AcDbLine
 10
991.657480315
 20
1679.342519685
 30
0.0
 11
991.657480315
 21
934.342519685
 31
0.0
  0
LINE
  5
14A
330
143
100
AcDbEntity
  8
0
  6
Continuous
 62
     7
370
    18
100
AcDbLine
 10
841.657480315
 20
944.342519685
 30
0.0
 11
778.157480315
 21
944.342519685
 31
0.0
  0
LINE
  5
14B
330
143
100
AcDbEntity
  8
0
  6
Continuous
 62
     7
370
    18
100
AcDbLine
 10
841.657480315
 20
944.342519685
 30
0.0
 11
991.657480315
 21
944.342519685
 31
0.0
  0
LINE
  5
14C
330
143
100
AcDbEntity
  8
0
  6
Continuous
 62
     7
370
    18
100
AcDbLine
 10
991.657480315
 20
944.342519685
 30
0.0
 11
1055.157480315
 21
944.342519685
 31
0.0
  0
MTEXT
  5
14D
330
143
100
AcDbEntity
  8
0
  6
Continuous
 62
     7
370
    18
100
AcDbMText
 10
875.1689631826
 20
989.4598888308
 30
0.0
 40
35.0
 41
0.0
 71
     1
 72
     1
  1
150
  7
SLDTEXTSTYLE0
 73
     1
 44
1.0
  0
ENDBLK
  5
145
330
143
100
AcDbEntity
  8
0
100
AcDbBlockEnd
  0
BLOCK
  5
151
330
150
100
AcDbEntity
  8
0
100
AcDbBlockBegin
  2
_NONE
 70
     0
 10
0.0
 20
0.0
 30
0.0
  3
_NONE
  1

  0
ENDBLK
  5
152
330
150
100
AcDbEntity
  8
0
100
AcDbBlockEnd
  0
BLOCK
  5
154
330
153
100
AcDbEntity
  8
0
100
AcDbBlockBegin
  2
_D_4
 70
     0
 10
0.0
 20
0.0
 30
0.0
  3
_D_4
  1

  0
SOLID
  5
156
330
153
100
AcDbEntity
  8
0
  6
Continuous
 62
     7
370
    18
100
AcDbTrace
 10
781.03570205
 20
1331.842519685
 30
0.0
 11
749.8995432171
 21
1319.7319287363
 31
0.0
 12
754.9795432171
 22
1310.9331106338
 32
0.0
 13
754.9795432171
 23
1310.9331106338
 33
0.0
  0
LINE
  5
157
330
153
100
AcDbEntity
  8
0
  6
Continuous
 62
     7
370
    18
100
AcDbLine
 10
781.03570205
 20
1331.842519685
 30
0.0
 11
574.6433578147
 21
1212.6818441821
 31
0.0
  0
LINE
  5
158
330
153
100
AcDbEntity
  8
0
  6
Continuous
 62
     7
370
    18
100
AcDbLine
 10
781.03570205
 20
1331.842519685
 30
0.0
 11
902.2792585799
 21
1401.842519685
 31
0.0
  0
MTEXT
  5
159
330
153
100
AcDbEntity
  8
0
  6
Continuous
 62
     7
370
    18
100
AcDbMText
 10
552.17588388
 20
1251.5966505546
 30
0.0
 40
35.0
 41
0.0
 71
     1
 72
     1
  1
%%c
  7
SLDTEXTSTYLE0
 11
0.8660254037844383
 21
0.5000000000000007
 31
0.0
 73
     1
 44
1.0
  0
MTEXT
  5
15A
330
153
100
AcDbEntity
  8
0
  6
Continuous
 62
     7
370
    18
100
AcDbMText
 10
597.6211317895
 20
1278.4519201803
 30
0.0
 40
35.0
 41
0.0
 71
     1
 72
     1
  1
140
  7
SLDTEXTSTYLE0
 11
0.8660254037844383
 21
0.5000000000000007
 31
0.0
 73
     1
 44
1.0
  0
ENDBLK
  5
155
330
153
100
AcDbEntity
  8
0
100
AcDbBlockEnd
  0
BLOCK
  5
15D
330
15C
100
AcDbEntity
  8
0
100
AcDbBlockBegin
  2
_D_5
 70
     0
 10
0.0
 20
0.0
 30
0.0
  3
_D_5
  1

  0
SOLID
  5
15F
330
15C
100
AcDbEntity
  8
0
  6
Continuous
 62
     7
370
    18
100
AcDbTrace
 10
777.7811347182
 20
1302.9661740883
 30
0.0
 11
750.840366355
 21
1283.209610622
 31
0.0
 12
758.0245712519
 22
1276.0254057251
 32
0.0
 13
758.0245712519
 23
1276.0254057251
 33
0.0
  0
LINE
  5
160
330
15C
100
AcDbEntity
  8
0
  6
Continuous
 62
     7
370
    18
100
AcDbLine
 10
777.7811347182
 20
1302.9661740883
 30
0.0
 11
608.6930523796
 21
1133.8780917497
 31
0.0
  0
LINE
  5
161
330
15C
100
AcDbEntity
  8
0
  6
Continuous
 62
     7
370
    18
100
AcDbLine
 10
777.7811347182
 20
1302.9661740883
 30
0.0
 11
781.0338259117
 21
1306.2188652818
 31
0.0
  0
MTEXT
  5
162
330
15C
100
AcDbEntity
  8
0
  6
Continuous
 62
     7
370
    18
100
AcDbMText
 10
577.0487632246
 20
1165.5223809048
 30
0.0
 40
35.0
 41
0.0
 71
     1
 72
     1
  1
%%c
  7
SLDTEXTSTYLE0
 11
0.7071067811865464
 21
0.7071067811865488
 31
0.0
 73
     1
 44
1.0
  0
MTEXT
  5
163
330
15C
100
AcDbEntity
  8
0
  6
Continuous
 62
     7
370
    18
100
AcDbMText
 10
613.994846622
 20
1203.2246750766
 30
0.0
 40
35.0
 41
0.0
 71
     1
 72
     1
  1
4,60
  7
SLDTEXTSTYLE0
 11
0.7071067811865464
 21
0.7071067811865488
 31
0.0
 73
     1
 44
1.0
  0
ENDBLK
  5
15E
330
15C
100
AcDbEntity
  8
0
100
AcDbBlockEnd
  0
BLOCK
  5
166
330
165
100
AcDbEntity
  8
0
100
AcDbBlockBegin
  2
_D_6
 70
     0
 10
0.0
 20
0.0
 30
0.0
  3
_D_6
  1

  0
SOLID
  5
168
330
165
100
AcDbEntity
  8
0
  6
Continuous
 62
     7
370
    18
100
AcDbTrace
 10
779.407480315
 20
1188.0981104882
 30
0.0
 11
746.387480315
 21
1193.1781104882
 31
0.0
 12
746.387480315
 22
1183.0181104882
 32
0.0
 13
746.387480315
 23
1183.0181104882
 33
0.0
  0
SOLID
  5
169
330
165
100
AcDbEntity
  8
0
  6
Continuous
 62
     7
370
    18
100
AcDbTrace
 10
903.907480315
 20
1188.0981104882
 30
0.0
 11
936.927480315
 21
1183.0181104882
 31
0.0
 12
936.927480315
 22
1193.1781104882
 32
0.0
 13
936.927480315
 23
1193.1781104882
 33
0.0
  0
LINE
  5
16A
330
165
100
AcDbEntity
  8
0
  6
Continuous
 62
     7
370
    18
100
AcDbLine
 10
779.407480315
 20
1294.592519685
 30
0.0
 11
779.407480315
 21
1178.0981104882
 31
0.0
  0
LINE
  5
16B
330
165
100
AcDbEntity
  8
0
  6
Continuous
 62
     7
370
    18
100
AcDbLine
 10
903.907480315
 20
1294.592519685
 30
0.0
 11
903.907480315
 21
1178.0981104882
 31
0.0
  0
LINE
  5
16C
330
165
100
AcDbEntity
  8
0
  6
Continuous
 62
     7
370
    18
100
AcDbLine
 10
779.407480315
 20
1188.0981104882
 30
0.0
 11
715.907480315
 21
1188.0981104882
 31
0.0
  0
LINE
  5
16D
330
165
100
AcDbEntity
  8
0
  6
Continuous
 62
     7
370
    18
100
AcDbLine
 10
779.407480315
 20
1188.0981104882
 30
0.0
 11
903.907480315
 21
1188.0981104882
 31
0.0
  0
LINE
  5
16E
330
165
100
AcDbEntity
  8
0
  6
Continuous
 62
     7
370
    18
100
AcDbLine
 10
903.907480315
 20
1188.0981104882
 30
0.0
 11
967.407480315
 21
1188.0981104882
 31
0.0
  0
MTEXT
  5
16F
330
165
100
AcDbEntity
  8
0
  6
Continuous
 62
     7
370
    18
100
AcDbMText
 10
766.1746514408
 20
1233.215479634
 30
0.0
 40
35.0
 41
0.0
 71
     1
 72
     1
  1
124,50
  7
SLDTEXTSTYLE0
 73
     1
 44
1.0
  0
ENDBLK
  5
167
330
165
100
AcDbEntity
  8
0
100
AcDbBlockEnd
  0
BLOCK
  5
172
330
171
100
AcDbEntity
  8
0
100
AcDbBlockBegin
  2
_D_7
 70
     0
 10
0.0
 20
0.0
 30
0.0
  3
_D_7
  1

  0
SOLID
  5
174
330
171
100
AcDbEntity
  8
0
  6
Continuous
 62
     7
370
    18
100
AcDbTrace
 10
974.3397688375
 20
1304.592519685
 30
0.0
 11
969.2597688375
 21
1271.572519685
 31
0.0
 12
979.4197688375
 22
1271.572519685
 32
0.0
 13
979.4197688375
 23
1271.572519685
 33
0.0
  0
SOLID
  5
175
330
171
100
AcDbEntity
  8
0
  6
Continuous
 62
     7
370
    18
100
AcDbTrace
 10
974.3397688375
 20
1429.092519685
 30
0.0
 11
979.4197688375
 21
1462.112519685
 31
0.0
 12
969.2597688375
 22
1462.112519685
 32
0.0
 13
969.2597688375
 23
1462.112519685
 33
0.0
  0
LINE
  5
176
330
171
100
AcDbEntity
  8
0
  6
Continuous
 62
     7
370
    18
100
AcDbLine
 10
913.907480315
 20
1304.592519685
 30
0.0
 11
984.3397688375
 21
1304.592519685
 31
0.0
  0
LINE
  5
177
330
171
100
AcDbEntity
  8
0
  6
Continuous
 62
     7
370
    18
100
AcDbLine
 10
913.907480315
 20
1429.092519685
 30
0.0
 11
984.3397688375
 21
1429.092519685
 31
0.0
  0
LINE
  5
178
330
171
100
AcDbEntity
  8
0
  6
Continuous
 62
     7
370
    18
100
AcDbLine
 10
974.3397688375
 20
1304.592519685
 30
0.0
 11
974.3397688375
 21
1241.092519685
 31
0.0
  0
LINE
  5
179
330
171
100
AcDbEntity
  8
0
  6
Continuous
 62
     7
370
    18
100
AcDbLine
 10
974.3397688375
 20
1304.592519685
 30
0.0
 11
974.3397688375
 21
1429.092519685
 31
0.0
  0
LINE
  5
17A
330
171
100
AcDbEntity
  8
0
  6
Continuous
 62
     7
370
    18
100
AcDbLine
 10
974.3397688375
 20
1429.092519685
 30
0.0
 11
974.3397688375
 21
1492.592519685
 31
0.0
  0
MTEXT
  5
17B
330
171
100
AcDbEntity
  8
0
  6
Continuous
 62
     7
370
    18
100
AcDbMText
 10
929.2223996917
 20
1305.4133245159
 30
0.0
 40
35.0
 41
0.0
 71
     1
 72
     1
  1
124,50
  7
SLDTEXTSTYLE0
 11
4.946213648308056E-15
 21
1.0
 31
0.0
 73
     1
 44
1.0
  0
ENDBLK
  5
173
330
171
100
AcDbEntity
  8
0
100
AcDbBlockEnd
  0
BLOCK
  5
17E
330
17D
100
AcDbEntity
  8
0
100
AcDbBlockBegin
  2
_D_8
 70
     0
 10
0.0
 20
0.0
 30
0.0
  3
_D_8
  1

  0
SOLID
  5
180
330
17D
100
AcDbEntity
  8
0
  6
Continuous
 62
     7
370
    18
100
AcDbTrace
 10
889.0822552918
 20
1430.592519685
 30
0.0
 11
884.0022552918
 21
1397.572519685
 31
0.0
 12
894.1622552918
 22
1397.572519685
 32
0.0
 13
894.1622552918
 23
1397.572519685
 33
0.0
  0
SOLID
  5
181
330
17D
100
AcDbEntity
  8
0
  6
Continuous
 62
     7
370
    18
100
AcDbTrace
 10
889.0822552918
 20
1433.092519685
 30
0.0
 11
894.1622552918
 21
1466.112519685
 31
0.0
 12
884.0022552918
 22
1466.112519685
 32
0.0
 13
884.0022552918
 23
1466.112519685
 33
0.0
  0
LINE
  5
182
330
17D
100
AcDbEntity
  8
0
  6
Continuous
 62
     7
370
    18
100
AcDbLine
 10
880.5700640805
 20
1430.592519685
 30
0.0
 11
899.0822552918
 21
1430.592519685
 31
0.0
  0
LINE
  5
183
330
17D
100
AcDbEntity
  8
0
  6
Continuous
 62
     7
370
    18
100
AcDbLine
 10
874.261406965
 20
1433.092519685
 30
0.0
 11
899.0822552918
 21
1433.092519685
 31
0.0
  0
LINE
  5
184
330
17D
100
AcDbEntity
  8
0
  6
Continuous
 62
     7
370
    18
100
AcDbLine
 10
889.0822552918
 20
1430.592519685
 30
0.0
 11
889.0822552918
 21
1367.092519685
 31
0.0
  0
LINE
  5
185
330
17D
100
AcDbEntity
  8
0
  6
Continuous
 62
     7
370
    18
100
AcDbLine
 10
889.0822552918
 20
1430.592519685
 30
0.0
 11
889.0822552918
 21
1433.092519685
 31
0.0
  0
LINE
  5
186
330
17D
100
AcDbEntity
  8
0
  6
Continuous
 62
     7
370
    18
100
AcDbLine
 10
889.0822552918
 20
1433.092519685
 30
0.0
 11
889.0822552918
 21
1565.6021782122
 31
0.0
  0
MTEXT
  5
187
330
17D
100
AcDbEntity
  8
0
  6
Continuous
 62
     7
370
    18
100
AcDbMText
 10
843.964886146
 20
1475.088287603
 30
0.0
 40
35.0
 41
0.0
 71
     1
 72
     1
  1
2,50
  7
SLDTEXTSTYLE0
 11
6.123233995736766E-17
 21
1.0
 31
0.0
 73
     1
 44
1.0
  0
ENDBLK
  5
17F
330
17D
100
AcDbEntity
  8
0
100
AcDbBlockEnd
  0
BLOCK
  5
18A
330
189
100
AcDbEntity
  8
0
100
AcDbBlockBegin
  2
_D_9
 70
     0
 10
0.0
 20
0.0
 30
0.0
  3
_D_9
  1

  0
SOLID
  5
18C
330
189
100
AcDbEntity
  8
0
  6
Continuous
 62
     7
370
    18
100
AcDbTrace
 10
720.161977959
 20
1423.092519685
 30
0.0
 11
715.081977959
 21
1390.072519685
 31
0.0
 12
725.241977959
 22
1390.072519685
 32
0.0
 13
725.241977959
 23
1390.072519685
 33
0.0
  0
SOLID
  5
18D
330
189
100
AcDbEntity
  8
0
  6
Continuous
 62
     7
370
    18
100
AcDbTrace
 10
720.161977959
 20
1430.592519685
 30
0.0
 11
725.241977959
 21
1463.612519685
 31
0.0
 12
715.081977959
 22
1463.612519685
 32
0.0
 13
715.081977959
 23
1463.612519685
 33
0.0
  0
LINE
  5
18E
330
189
100
AcDbEntity
  8
0
  6
Continuous
 62
     7
370
    18
100
AcDbLine
 10
789.9928970337
 20
1423.092519685
 30
0.0
 11
710.161977959
 21
1423.092519685
 31
0.0
  0
LINE
  5
18F
330
189
100
AcDbEntity
  8
0
  6
Continuous
 62
     7
370
    18
100
AcDbLine
 10
802.7448965494
 20
1430.592519685
 30
0.0
 11
710.161977959
 21
1430.592519685
 31
0.0
  0
LINE
  5
190
330
189
100
AcDbEntity
  8
0
  6
Continuous
 62
     7
370
    18
100
AcDbLine
 10
720.161977959
 20
1423.092519685
 30
0.0
 11
720.161977959
 21
1359.592519685
 31
0.0
  0
LINE
  5
191
330
189
100
AcDbEntity
  8
0
  6
Continuous
 62
     7
370
    18
100
AcDbLine
 10
720.161977959
 20
1423.092519685
 30
0.0
 11
720.161977959
 21
1430.592519685
 31
0.0
  0
LINE
  5
192
330
189
100
AcDbEntity
  8
0
  6
Continuous
 62
     7
370
    18
100
AcDbLine
 10
720.161977959
 20
1430.592519685
 30
0.0
 11
720.161977959
 21
1558.2022113123
 31
0.0
  0
MTEXT
  5
193
330
189
100
AcDbEntity
  8
0
  6
Continuous
 62
     7
370
    18
100
AcDbMText
 10
675.0446088132
 20
1467.6883207031
 30
0.0
 40
35.0
 41
0.0
 71
     1
 72
     1
  1
7,50
  7
SLDTEXTSTYLE0
 11
6.123233995736766E-17
 21
1.0
 31
0.0
 73
     1
 44
1.0
  0
ENDBLK
  5
18B
330
189
100
AcDbEntity
  8
0
100
AcDbBlockEnd
  0
BLOCK
  5
196
330
195
100
AcDbEntity
  8
0
100
AcDbBlockBegin
  2
_D_10
 70
     0
 10
0.0
 20
0.0
 30
0.0
  3
_D_10
  1

  0
SOLID
  5
198
330
195
100
AcDbEntity
  8
0
  6
Continuous
 62
     7
370
    18
100
AcDbTrace
 10
457.1751184052
 20
1086.2743713376
 30
0.0
 11
470.628226472
 21
1116.8544413726
 31
0.0
 12
460.8144200769
 22
1119.4840428708
 32
0.0
 13
460.8144200769
 23
1119.4840428708
 33
0.0
  0
LINE
  5
199
330
195
100
AcDbEntity
  8
0
  6
Continuous
 62
     7
370
    18
100
AcDbLine
 10
457.1751184052
 20
1086.2743713376
 30
0.0
 11
488.6429691444
 21
1203.7139891016
 31
0.0
  0
LINE
  5
19A
330
195
100
AcDbEntity
  8
0
  6
Continuous
 62
     7
370
    18
100
AcDbLine
 10
457.1751184052
 20
1086.2743713376
 30
0.0
 11
456.1398422248
 21
1082.4106680325
 31
0.0
  0
MTEXT
  5
19B
330
195
100
AcDbEntity
  8
0
  6
Continuous
 62
     7
370
    18
100
AcDbMText
 10
425.9767452973
 20
1139.085552495
 30
0.0
 40
35.0
 41
0.0
 71
     1
 72
     1
  1
%%c
  7
SLDTEXTSTYLE0
 11
0.2588190451025188
 21
0.9659258262890688
 31
0.0
 73
     1
 44
1.0
  0
MTEXT
  5
19C
330
195
100
AcDbEntity
  8
0
  6
Continuous
 62
     7
370
    18
100
AcDbMText
 10
439.1218450039
 20
1190.2097387274
 30
0.0
 40
35.0
 41
0.0
 71
     1
 72
     1
  1
4
  7
SLDTEXTSTYLE0
 11
0.2588190451025188
 21
0.9659258262890688
 31
0.0
 73
     1
 44
1.0
  0
ENDBLK
  5
197
330
195
100
AcDbEntity
  8
0
100
AcDbBlockEnd
  0
BLOCK
  5
19F
330
19E
100
AcDbEntity
  8
0
100
AcDbBlockBegin
  2
_D_11
 70
     0
 10
0.0
 20
0.0
 30
0.0
  3
_D_11
  1

  0
SOLID
  5
1A1
330
19E
100
AcDbEntity
  8
0
  6
Continuous
 62
     7
370
    18
100
AcDbTrace
 10
487.9963150798
 20
1093.1813544499
 30
0.0
 11
514.937083443
 21
1112.9379179162
 31
0.0
 12
507.7528785461
 22
1120.1221228131
 32
0.0
 13
507.7528785461
 23
1120.1221228131
 33
0.0
  0
LINE
  5
1A2
330
19E
100
AcDbEntity
  8
0
  6
Continuous
 62
     7
370
    18
100
AcDbLine
 10
487.9963150798
 20
1093.1813544499
 30
0.0
 11
578.5965855612
 21
1183.7816249313
 31
0.0
  0
LINE
  5
1A3
330
19E
100
AcDbEntity
  8
0
  6
Continuous
 62
     7
370
    18
100
AcDbLine
 10
487.9963150798
 20
1093.1813544499
 30
0.0
 11
470.3186455501
 21
1075.5036849202
 31
0.0
  0
MTEXT
  5
1A4
330
19E
100
AcDbEntity
  8
0
  6
Continuous
 62
     7
370
    18
100
AcDbMText
 10
473.6522735124
 20
1140.9312823518
 30
0.0
 40
35.0
 41
0.0
 71
     1
 72
     1
  1
%%c
  7
SLDTEXTSTYLE0
 11
0.7071067811865449
 21
0.7071067811865501
 31
0.0
 73
     1
 44
1.0
  0
MTEXT
  5
1A5
330
19E
100
AcDbEntity
  8
0
  6
Continuous
 62
     7
370
    18
100
AcDbMText
 10
510.5983569098
 20
1178.6335765236
 30
0.0
 40
35.0
 41
0.0
 71
     1
 72
     1
  1
25
  7
SLDTEXTSTYLE0
 11
0.7071067811865449
 21
0.7071067811865501
 31
0.0
 73
     1
 44
1.0
  0
ENDBLK
  5
1A0
330
19E
100
AcDbEntity
  8
0
100
AcDbBlockEnd
  0
BLOCK
  5
1A8
330
1A7
100
AcDbEntity
  8
0
100
AcDbBlockBegin
  2
_D_12
 70
     0
 10
0.0
 20
0.0
 30
0.0
  3
_D_12
  1

  0
SOLID
  5
1AA
330
1A7
100
AcDbEntity
  8
0
  6
Continuous
 62
     7
370
    18
100
AcDbTrace
 10
456.657480315
 20
981.8932505639
 30
0.0
 11
423.637480315
 21
986.9732505639
 31
0.0
 12
423.637480315
 22
976.8132505639
 32
0.0
 13
423.637480315
 23
976.8132505639
 33
0.0
  0
SOLID
  5
1AB
330
1A7
100
AcDbEntity
  8
0
  6
Continuous
 62
     7
370
    18
100
AcDbTrace
 10
479.157480315
 20
981.8932505639
 30
0.0
 11
512.177480315
 21
976.8132505639
 31
0.0
 12
512.177480315
 22
986.9732505639
 32
0.0
 13
512.177480315
 23
986.9732505639
 33
0.0
  0
LINE
  5
1AC
330
1A7
100
AcDbEntity
  8
0
  6
Continuous
 62
     7
370
    18
100
AcDbLine
 10
456.657480315
 20
1074.342519685
 30
0.0
 11
456.657480315
 21
971.8932505639
 31
0.0
  0
LINE
  5
1AD
330
1A7
100
AcDbEntity
  8
0
  6
Continuous
 62
     7
370
    18
100
AcDbLine
 10
479.157480315
 20
1074.342519685
 30
0.0
 11
479.157480315
 21
971.8932505639
 31
0.0
  0
LINE
  5
1AE
330
1A7
100
AcDbEntity
  8
0
  6
Continuous
 62
     7
370
    18
100
AcDbLine
 10
456.657480315
 20
981.8932505639
 30
0.0
 11
393.157480315
 21
981.8932505639
 31
0.0
  0
LINE
  5
1AF
330
1A7
100
AcDbEntity
  8
0
  6
Continuous
 62
     7
370
    18
100
AcDbLine
 10
456.657480315
 20
981.8932505639
 30
0.0
 11
479.157480315
 21
981.8932505639
 31
0.0
  0
LINE
  5
1B0
330
1A7
100
AcDbEntity
  8
0
  6
Continuous
 62
     7
370
    18
100
AcDbLine
 10
479.157480315
 20
981.8932505639
 30
0.0
 11
617.617076074
 21
981.8932505639
 31
0.0
  0
MTEXT
  5
1B1
330
1A7
100
AcDbEntity
  8
0
  6
Continuous
 62
     7
370
    18
100
AcDbMText
 10
501.2420712013
 20
1027.0106197097
 30
0.0
 40
35.0
 41
0.0
 71
     1
 72
     1
  1
22,50
  7
SLDTEXTSTYLE0
 73
     1
 44
1.0
  0
ENDBLK
  5
1A9
330
1A7
100
AcDbEntity
  8
0
100
AcDbBlockEnd
  0
BLOCK
  5
1B4
330
1B3
100
AcDbEntity
  8
0
100
AcDbBlockBegin
  2
_D_13
 70
     0
 10
0.0
 20
0.0
 30
0.0
  3
_D_13
  1

  0
SOLID
  5
1B6
330
1B3
100
AcDbEntity
  8
0
  6
Continuous
 62
     7
370
    18
100
AcDbTrace
 10
456.657480315
 20
923.2763301015
 30
0.0
 11
489.677480315
 21
918.1963301015
 31
0.0
 12
489.677480315
 22
928.3563301015
 32
0.0
 13
489.677480315
 23
928.3563301015
 33
0.0
  0
SOLID
  5
1B7
330
1B3
100
AcDbEntity
  8
0
  6
Continuous
 62
     7
370
    18
100
AcDbTrace
 10
426.657480315
 20
923.2763301015
 30
0.0
 11
393.637480315
 21
928.3563301015
 31
0.0
 12
393.637480315
 22
918.1963301015
 32
0.0
 13
393.637480315
 23
918.1963301015
 33
0.0
  0
LINE
  5
1B8
330
1B3
100
AcDbEntity
  8
0
  6
Continuous
 62
     7
370
    18
100
AcDbLine
 10
456.657480315
 20
1074.342519685
 30
0.0
 11
456.657480315
 21
913.2763301015
 31
0.0
  0
LINE
  5
1B9
330
1B3
100
AcDbEntity
  8
0
  6
Continuous
 62
     7
370
    18
100
AcDbLine
 10
426.657480315
 20
1034.342519685
 30
0.0
 11
426.657480315
 21
913.2763301015
 31
0.0
  0
LINE
  5
1BA
330
1B3
100
AcDbEntity
  8
0
  6
Continuous
 62
     7
370
    18
100
AcDbLine
 10
456.657480315
 20
923.2763301015
 30
0.0
 11
520.157480315
 21
923.2763301015
 31
0.0
  0
LINE
  5
1BB
330
1B3
100
AcDbEntity
  8
0
  6
Continuous
 62
     7
370
    18
100
AcDbLine
 10
456.657480315
 20
923.2763301015
 30
0.0
 11
426.657480315
 21
923.2763301015
 31
0.0
  0
LINE
  5
1BC
330
1B3
100
AcDbEntity
  8
0
  6
Continuous
 62
     7
370
    18
100
AcDbLine
 10
426.657480315
 20
923.2763301015
 30
0.0
 11
352.079664874
 21
923.2763301015
 31
0.0
  0
MTEXT
  5
1BD
330
1B3
100
AcDbEntity
  8
0
  6
Continuous
 62
     7
370
    18
100
AcDbMText
 10
352.079664874
 20
968.3936992473
 30
0.0
 40
35.0
 41
0.0
 71
     1
 72
     1
  1
30
  7
SLDTEXTSTYLE0
 73
     1
 44
1.0
  0
ENDBLK
  5
1B5
330
1B3
100
AcDbEntity
  8
0
100
AcDbBlockEnd
  0
BLOCK
  5
1C0
330
1BF
100
AcDbEntity
  8
0
100
AcDbBlockBegin
  2
_D_14
 70
     0
 10
0.0
 20
0.0
 30
0.0
  3
_D_14
  1

  0
SOLID
  5
1C2
330
1BF
100
AcDbEntity
  8
0
  6
Continuous
 62
     7
370
    18
100
AcDbTrace
 10
399.9310581233
 20
1084.342519685
 30
0.0
 11
405.0110581233
 21
1117.362519685
 31
0.0
 12
394.8510581233
 22
1117.362519685
 32
0.0
 13
394.8510581233
 23
1117.362519685
 33
0.0
  0
SOLID
  5
1C3
330
1BF
100
AcDbEntity
  8
0
  6
Continuous
 62
     7
370
    18
100
AcDbTrace
 10
399.9310581233
 20
1044.342519685
 30
0.0
 11
394.8510581233
 21
1011.322519685
 31
0.0
 12
405.0110581233
 22
1011.322519685
 32
0.0
 13
405.0110581233
 23
1011.322519685
 33
0.0
  0
LINE
  5
1C4
330
1BF
100
AcDbEntity
  8
0
  6
Continuous
 62
     7
370
    18
100
AcDbLine
 10
446.657480315
 20
1084.342519685
 30
0.0
 11
389.9310581233
 21
1084.342519685
 31
0.0
  0
LINE
  5
1C5
330
1BF
100
AcDbEntity
  8
0
  6
Continuous
 62
     7
370
    18
100
AcDbLine
 10
416.657480315
 20
1044.342519685
 30
0.0
 11
389.9310581233
 21
1044.342519685
 31
0.0
  0
LINE
  5
1C6
330
1BF
100
AcDbEntity
  8
0
  6
Continuous
 62
     7
370
    18
100
AcDbLine
 10
399.9310581233
 20
1084.342519685
 30
0.0
 11
399.9310581233
 21
1147.842519685
 31
0.0
  0
LINE
  5
1C7
330
1BF
100
AcDbEntity
  8
0
  6
Continuous
 62
     7
370
    18
100
AcDbLine
 10
399.9310581233
 20
1084.342519685
 30
0.0
 11
399.9310581233
 21
1044.342519685
 31
0.0
  0
LINE
  5
1C8
330
1BF
100
AcDbEntity
  8
0
  6
Continuous
 62
     7
370
    18
100
AcDbLine
 10
399.9310581233
 20
1044.342519685
 30
0.0
 11
399.9310581233
 21
978.1008021607
 31
0.0
  0
MTEXT
  5
1C9
330
1BF
100
AcDbEntity
  8
0
  6
Continuous
 62
     7
370
    18
100
AcDbMText
 10
354.8136889775
 20
978.1008021607
 30
0.0
 40
35.0
 41
0.0
 71
     1
 72
     1
  1
40
  7
SLDTEXTSTYLE0
 11
-7.044195017643634E-15
 21
1.0
 31
0.0
 73
     1
 44
1.0
  0
ENDBLK
  5
1C1
330
1BF
100
AcDbEntity
  8
0
100
AcDbBlockEnd
  0
BLOCK
  5
1CB
330
1CA
100
AcDbEntity
  8
0
100
AcDbBlockBegin
  2
SW_CENTERMARKSYMBOL_0
 70
     0
 10
0.0
 20
0.0
 30
0.0
  3
SW_CENTERMARKSYMBOL_0
  1

  0
LINE
  5
1CD
330
1CA
100
AcDbEntity
  8
0
  6
Continuous
 62
     0
370
     0
100
AcDbLine
 10
0.0
 20
0.0
 30
0.0
 11
0.0
 21
2.5
 31
0.0
  0
LINE
  5
1CE
330
1CA
100
AcDbEntity
  8
0
  6
Continuous
 62
     0
370
     0
100
AcDbLine
 10
0.0
 20
0.0
 30
0.0
 11
-2.5
 21
0.0
 31
0.0
  0
LINE
  5
1CF
330
1CA
100
AcDbEntity
  8
0
  6
Continuous
 62
     0
370
     0
100
AcDbLine
 10
0.0
 20
0.0
 30
0.0
 11
0.0
 21
-2.5
 31
0.0
  0
LINE
  5
1D0
330
1CA
100
AcDbEntity
  8
0
  6
Continuous
 62
     0
370
     0
100
AcDbLine
 10
0.0
 20
0.0
 30
0.0
 11
2.5
 21
0.0
 31
0.0
  0
LINE
  5
1D1
330
1CA
100
AcDbEntity
  8
0
  6
Continuous
 62
     0
370
     0
100
AcDbLine
 10
0.0
 20
5.0
 30
0.0
 11
0.0
 21
72.5
 31
0.0
  0
LINE
  5
1D2
330
1CA
100
AcDbEntity
  8
0
  6
Continuous
 62
     0
370
     0
100
AcDbLine
 10
-5.0
 20
0.0
 30
0.0
 11
-72.5
 21
0.0
 31
0.0
  0
LINE
  5
1D3
330
1CA
100
AcDbEntity
  8
0
  6
Continuous
 62
     0
370
     0
100
AcDbLine
 10
0.0
 20
-5.0
 30
0.0
 11
0.0
 21
-72.5
 31
0.0
  0
LINE
  5
1D4
330
1CA
100
AcDbEntity
  8
0
  6
Continuous
 62
     0
370
     0
100
AcDbLine
 10
5.0
 20
0.0
 30
0.0
 11
72.5
 21
0.0
 31
0.0
  0
ENDBLK
  5
1CC
330
1CA
100
AcDbEntity
  8
0
100
AcDbBlockEnd
  0
BLOCK
  5
1DC
330
1DB
100
AcDbEntity
  8
0
100
AcDbBlockBegin
  2
_D_15
 70
     0
 10
0.0
 20
0.0
 30
0.0
  3
_D_15
  1

  0
SOLID
  5
1DE
330
1DB
100
AcDbEntity
  8
0
  6
Continuous
 62
     7
370
    18
100
AcDbTrace
 10
1570.2401574803
 20
1001.6586992796
 30
0.0
 11
1537.2201574803
 21
1006.7386992796
 31
0.0
 12
1537.2201574803
 22
996.5786992796
 32
0.0
 13
1537.2201574803
 23
996.5786992796
 33
0.0
  0
SOLID
  5
1DF
330
1DB
100
AcDbEntity
  8
0
  6
Continuous
 62
     7
370
    18
100
AcDbTrace
 10
1573.2401574803
 20
1001.6586992796
 30
0.0
 11
1606.2601574803
 21
996.5786992796
 31
0.0
 12
1606.2601574803
 22
1006.7386992796
 32
0.0
 13
1606.2601574803
 23
1006.7386992796
 33
0.0
  0
LINE
  5
1E0
330
1DB
100
AcDbEntity
  8
0
  6
Continuous
 62
     7
370
    18
100
AcDbLine
 10
1570.2401574803
 20
1034.342519685
 30
0.0
 11
1570.2401574803
 21
991.6586992796
 31
0.0
  0
LINE
  5
1E1
330
1DB
100
AcDbEntity
  8
0
  6
Continuous
 62
     7
370
    18
100
AcDbLine
 10
1573.2401574803
 20
1034.342519685
 30
0.0
 11
1573.2401574803
 21
991.6586992796
 31
0.0
  0
LINE
  5
1E2
330
1DB
100
AcDbEntity
  8
0
  6
Continuous
 62
     7
370
    18
100
AcDbLine
 10
1570.2401574803
 20
1001.6586992796
 30
0.0
 11
1506.7401574803
 21
1001.6586992796
 31
0.0
  0
LINE
  5
1E3
330
1DB
100
AcDbEntity
  8
0
  6
Continuous
 62
     7
370
    18
100
AcDbLine
 10
1570.2401574803
 20
1001.6586992796
 30
0.0
 11
1573.2401574803
 21
1001.6586992796
 31
0.0
  0
LINE
  5
1E4
330
1DB
100
AcDbEntity
  8
0
  6
Continuous
 62
     7
370
    18
100
AcDbLine
 10
1573.2401574803
 20
1001.6586992796
 30
0.0
 11
1621.2140117372
 21
1001.6586992796
 31
0.0
  0
MTEXT
  5
1E5
330
1DB
100
AcDbEntity
  8
0
  6
Continuous
 62
     7
370
    18
100
AcDbMText
 10
1595.3528998019
 20
1046.7760684254
 30
0.0
 40
35.0
 41
0.0
 71
     1
 72
     1
  1
3
  7
SLDTEXTSTYLE0
 73
     1
 44
1.0
  0
ENDBLK
  5
1DD
330
1DB
100
AcDbEntity
  8
0
100
AcDbBlockEnd
  0
ENDSEC
  0
SECTION
  2
ENTITIES
  0
LINE
  5
74
330
1F
100
AcDbEntity
  8
0
  6
Continuous
 62
     7
370
    50
100
AcDbLine
 10
1070.0
 20
142.5
 30
0.0
 11
2870.0
 21
142.5
 31
0.0
  0
LINE
  5
75
330
1F
100
AcDbEntity
  8
0
  6
Continuous
 62
     7
370
    50
100
AcDbLine
 10
2870.0
 20
482.5
 30
0.0
 11
1070.0
 21
482.5
 31
0.0
  0
LINE
  5
76
330
1F
100
AcDbEntity
  8
0
  6
Continuous
 62
     7
370
    50
100
AcDbLine
 10
1070.0
 20
652.5
 30
0.0
 11
2870.0
 21
652.5
 31
0.0
  0
LINE
  5
77
330
1F
100
AcDbEntity
  8
0
  6
Continuous
 62
     7
370
    50
100
AcDbLine
 10
1339.9095243379
 20
482.5
 30
0.0
 11
1339.9095243379
 21
100.0
 31
0.0
  0
LINE
  5
78
330
1F
100
AcDbEntity
  8
0
  6
Continuous
 62
     7
370
    50
100
AcDbLine
 10
2058.0
 20
312.5
 30
0.0
 11
1070.0
 21
312.5
 31
0.0
  0
LINE
  5
79
330
1F
100
AcDbEntity
  8
0
  6
Continuous
 62
     7
370
    50
100
AcDbLine
 10
2058.0
 20
355.0
 30
0.0
 11
1070.0
 21
355.0
 31
0.0
  0
LINE
  5
7A
330
1F
100
AcDbEntity
  8
0
  6
Continuous
 62
     7
370
    50
100
AcDbLine
 10
2058.0
 20
397.5
 30
0.0
 11
1070.0
 21
397.5
 31
0.0
  0
LINE
  5
7B
330
1F
100
AcDbEntity
  8
0
  6
Continuous
 62
     7
370
    50
100
AcDbLine
 10
2058.0
 20
440.0
 30
0.0
 11
1070.0
 21
440.0
 31
0.0
  0
LINE
  5
7C
330
1F
100
AcDbEntity
  8
0
  6
Continuous
 62
     7
370
    50
100
AcDbLine
 10
1616.0
 20
100.0
 30
0.0
 11
1616.0
 21
482.5
 31
0.0
  0
LINE
  5
7D
330
1F
100
AcDbEntity
  8
0
  6
Continuous
 62
     7
370
    50
100
AcDbLine
 10
1070.0
 20
652.5
 30
0.0
 11
1070.0
 21
100.0
 31
0.0
  0
LINE
  5
7E
330
1F
100
AcDbEntity
  8
0
  6
Continuous
 62
     7
370
    50
100
AcDbLine
 10
1190.7037371447
 20
482.5
 30
0.0
 11
1190.7037371447
 21
100.0
 31
0.0
  0
LINE
  5
7F
330
1F
100
AcDbEntity
  8
0
  6
Continuous
 62
     7
370
    50
100
AcDbLine
 10
1408.0
 20
482.5
 30
0.0
 11
1408.0
 21
652.5
 31
0.0
  0
LINE
  5
80
330
1F
100
AcDbEntity
  8
0
  6
Continuous
 62
     7
370
    50
100
AcDbLine
 10
1513.9892616354
 20
482.5
 30
0.0
 11
1513.9892616354
 21
100.0
 31
0.0
  0
LINE
  5
81
330
1F
100
AcDbEntity
  8
0
  6
Continuous
 62
     7
370
    50
100
AcDbLine
 10
1720.0
 20
312.5
 30
0.0
 11
1720.0
 21
482.5
 31
0.0
  0
LINE
  5
82
330
1F
100
AcDbEntity
  8
0
  6
Continuous
 62
     7
370
    50
100
AcDbLine
 10
1616.0
 20
185.0
 30
0.0
 11
1070.0
 21
185.0
 31
0.0
  0
LINE
  5
83
330
1F
100
AcDbEntity
  8
0
  6
Continuous
 62
     7
370
    50
100
AcDbLine
 10
1876.0
 20
652.5
 30
0.0
 11
1876.0
 21
270.0
 31
0.0
  0
LINE
  5
84
330
1F
100
AcDbEntity
  8
0
  6
Continuous
 62
     7
370
    50
100
AcDbLine
 10
1616.0
 20
227.49928
 30
0.0
 11
1070.0
 21
227.49928
 31
0.0
  0
LINE
  5
85
330
1F
100
AcDbEntity
  8
0
  6
Continuous
 62
     7
370
    50
100
AcDbLine
 10
1616.0
 20
270.0
 30
0.0
 11
1070.0
 21
270.0
 31
0.0
  0
LINE
  5
86
330
1F
100
AcDbEntity
  8
0
  6
Continuous
 62
     7
370
    50
100
AcDbLine
 10
1616.0
 20
270.0
 30
0.0
 11
2870.0
 21
270.0
 31
0.0
  0
LINE
  5
87
330
1F
100
AcDbEntity
  8
0
  6
Continuous
 62
     7
370
    50
100
AcDbLine
 10
2058.0
 20
652.5
 30
0.0
 11
2058.0
 21
100.0
 31
0.0
  0
LINE
  5
88
330
1F
100
AcDbEntity
  8
0
  6
Continuous
 62
     7
370
    50
100
AcDbLine
 10
2500.0
 20
100.0
 30
0.0
 11
2500.0
 21
142.5
 31
0.0
  0
LINE
  5
89
330
1F
100
AcDbEntity
  8
0
  6
Continuous
 62
     7
370
    50
100
AcDbLine
 10
2578.0
 20
588.75
 30
0.0
 11
2578.0
 21
652.5
 31
0.0
  0
LINE
  5
8A
330
1F
100
AcDbEntity
  8
0
  6
Continuous
 62
     7
370
    50
100
AcDbLine
 10
2740.0
 20
142.5
 30
0.0
 11
2740.0
 21
270.0
 31
0.0
  0
LINE
  5
8B
330
1F
100
AcDbEntity
  8
0
  6
Continuous
 62
     7
370
    50
100
AcDbLine
 10
2870.0
 20
588.75
 30
0.0
 11
2058.0
 21
588.75
 31
0.0
  0
LINE
  5
8C
330
1F
100
AcDbEntity
  8
0
  6
Continuous
 62
     7
370
    50
100
AcDbLine
 10
2870.0
 20
185.0
 30
0.0
 11
2740.0
 21
185.0
 31
0.0
  0
LINE
  5
8D
330
1F
100
AcDbEntity
  8
0
  6
Continuous
 62
     7
370
    70
100
AcDbLine
 10
100.0
 20
100.0
 30
0.0
 11
100.0
 21
2000.0
 31
0.0
  0
LINE
  5
8E
330
1F
100
AcDbEntity
  8
0
  6
Continuous
 62
     7
370
    70
100
AcDbLine
 10
100.0
 20
2000.0
 30
0.0
 11
2870.0
 21
2000.0
 31
0.0
  0
LINE
  5
8F
330
1F
100
AcDbEntity
  8
0
  6
Continuous
 62
     7
370
    70
100
AcDbLine
 10
2870.0
 20
2000.0
 30
0.0
 11
2870.0
 21
100.0
 31
0.0
  0
LINE
  5
90
330
1F
100
AcDbEntity
  8
0
  6
Continuous
 62
     7
370
    70
100
AcDbLine
 10
2870.0
 20
100.0
 30
0.0
 11
100.0
 21
100.0
 31
0.0
  0
LINE
  5
91
330
1F
100
AcDbEntity
  8
0
  6
Continuous
 62
     7
370
    35
100
AcDbLine
 10
25.0
 20
1050.0
 30
0.0
 11
100.0
 21
1050.0
 31
0.0
  0
LINE
  5
92
330
1F
100
AcDbEntity
  8
0
  6
Continuous
 62
     7
370
    35
100
AcDbLine
 10
1485.0
 20
2075.0
 30
0.0
 11
1485.0
 21
2000.0
 31
0.0
  0
LINE
  5
93
330
1F
100
AcDbEntity
  8
0
  6
Continuous
 62
     7
370
    35
100
AcDbLine
 10
2945.0
 20
1050.0
 30
0.0
 11
2870.0
 21
1050.0
 31
0.0
  0
LINE
  5
94
330
1F
100
AcDbEntity
  8
0
  6
Continuous
 62
     7
370
    35
100
AcDbLine
 10
1485.0
 20
25.0
 30
0.0
 11
1485.0
 21
100.0
 31
0.0
  0
LINE
  5
95
330
1F
100
AcDbEntity
  8
0
  6
Continuous
 62
     7
370
    35
100
AcDbLine
 10
100.0
 20
550.0
 30
0.0
 11
25.0
 21
550.0
 31
0.0
  0
LINE
  5
96
330
1F
100
AcDbEntity
  8
0
  6
Continuous
 62
     7
370
    35
100
AcDbLine
 10
2870.0
 20
550.0
 30
0.0
 11
2945.0
 21
550.0
 31
0.0
  0
LINE
  5
97
330
1F
100
AcDbEntity
  8
0
  6
Continuous
 62
     7
370
    35
100
AcDbLine
 10
100.0
 20
1050.0
 30
0.0
 11
25.0
 21
1050.0
 31
0.0
  0
LINE
  5
98
330
1F
100
AcDbEntity
  8
0
  6
Continuous
 62
     7
370
    35
100
AcDbLine
 10
2870.0
 20
1050.0
 30
0.0
 11
2945.0
 21
1050.0
 31
0.0
  0
LINE
  5
99
330
1F
100
AcDbEntity
  8
0
  6
Continuous
 62
     7
370
    35
100
AcDbLine
 10
100.0
 20
1550.0
 30
0.0
 11
25.0
 21
1550.0
 31
0.0
  0
LINE
  5
9A
330
1F
100
AcDbEntity
  8
0
  6
Continuous
 62
     7
370
    35
100
AcDbLine
 10
2870.0
 20
1550.0
 30
0.0
 11
2945.0
 21
1550.0
 31
0.0
  0
LINE
  5
9B
330
1F
100
AcDbEntity
  8
0
  6
Continuous
 62
     7
370
    35
100
AcDbLine
 10
485.0
 20
2000.0
 30
0.0
 11
485.0
 21
2075.0
 31
0.0
  0
LINE
  5
9C
330
1F
100
AcDbEntity
  8
0
  6
Continuous
 62
     7
370
    35
100
AcDbLine
 10
485.0
 20
100.0
 30
0.0
 11
485.0
 21
25.0
 31
0.0
  0
LINE
  5
9D
330
1F
100
AcDbEntity
  8
0
  6
Continuous
 62
     7
370
    35
100
AcDbLine
 10
985.0
 20
2000.0
 30
0.0
 11
985.0
 21
2075.0
 31
0.0
  0
LINE
  5
9E
330
1F
100
AcDbEntity
  8
0
  6
Continuous
 62
     7
370
    35
100
AcDbLine
 10
985.0
 20
100.0
 30
0.0
 11
985.0
 21
25.0
 31
0.0
  0
LINE
  5
9F
330
1F
100
AcDbEntity
  8
0
  6
Continuous
 62
     7
370
    35
100
AcDbLine
 10
1485.0
 20
2000.0
 30
0.0
 11
1485.0
 21
2075.0
 31
0.0
  0
LINE
  5
A0
330
1F
100
AcDbEntity
  8
0
  6
Continuous
 62
     7
370
    35
100
AcDbLine
 10
1485.0
 20
100.0
 30
0.0
 11
1485.0
 21
25.0
 31
0.0
  0
LINE
  5
A1
330
1F
100
AcDbEntity
  8
0
  6
Continuous
 62
     7
370
    35
100
AcDbLine
 10
1985.0
 20
2000.0
 30
0.0
 11
1985.0
 21
2075.0
 31
0.0
  0
LINE
  5
A2
330
1F
100
AcDbEntity
  8
0
  6
Continuous
 62
     7
370
    35
100
AcDbLine
 10
1985.0
 20
100.0
 30
0.0
 11
1985.0
 21
25.0
 31
0.0
  0
LINE
  5
A3
330
1F
100
AcDbEntity
  8
0
  6
Continuous
 62
     7
370
    35
100
AcDbLine
 10
2485.0
 20
2000.0
 30
0.0
 11
2485.0
 21
2075.0
 31
0.0
  0
LINE
  5
A4
330
1F
100
AcDbEntity
  8
0
  6
Continuous
 62
     7
370
    35
100
AcDbLine
 10
2485.0
 20
100.0
 30
0.0
 11
2485.0
 21
25.0
 31
0.0
  0
MTEXT
  5
A6
330
1F
100
AcDbEntity
  8
0
  6
Continuous
 62
     7
370
     0
100
AcDbMText
 10
47.5658334172
 20
274.7569040191
 30
0.0
 40
60.96
 41
0.0
 71
     2
 72
     1
  1
A
  7
SLDTEXTSTYLE0
 73
     1
 44
1.0
  0
MTEXT
  5
A7
330
1F
100
AcDbEntity
  8
0
  6
Continuous
 62
     7
370
     0
100
AcDbMText
 10
2917.5658334172
 20
274.7569040191
 30
0.0
 40
60.96
 41
0.0
 71
     2
 72
     1
  1
A
  7
SLDTEXTSTYLE0
 73
     1
 44
1.0
  0
MTEXT
  5
A8
330
1F
100
AcDbEntity
  8
0
  6
Continuous
 62
     7
370
     0
100
AcDbMText
 10
49.5343322834
 20
799.7569040191
 30
0.0
 40
60.96
 41
0.0
 71
     2
 72
     1
  1
B
  7
SLDTEXTSTYLE0
 73
     1
 44
1.0
  0
MTEXT
  5
A9
330
1F
100
AcDbEntity
  8
0
  6
Continuous
 62
     7
370
     0
100
AcDbMText
 10
2919.5343322834
 20
799.7569040191
 30
0.0
 40
60.96
 41
0.0
 71
     2
 72
     1
  1
B
  7
SLDTEXTSTYLE0
 73
     1
 44
1.0
  0
MTEXT
  5
AA
330
1F
100
AcDbEntity
  8
0
  6
Continuous
 62
     7
370
     0
100
AcDbMText
 10
49.3650000265
 20
1299.7569040191
 30
0.0
 40
60.96
 41
0.0
 71
     2
 72
     1
  1
C
  7
SLDTEXTSTYLE0
 73
     1
 44
1.0
  0
MTEXT
  5
AB
330
1F
100
AcDbEntity
  8
0
  6
Continuous
 62
     7
370
     0
100
AcDbMText
 10
2919.3650000265
 20
1299.7569040191
 30
0.0
 40
60.96
 41
0.0
 71
     2
 72
     1
  1
C
  7
SLDTEXTSTYLE0
 73
     1
 44
1.0
  0
MTEXT
  5
AC
330
1F
100
AcDbEntity
  8
0
  6
Continuous
 62
     7
370
     0
100
AcDbMText
 10
49.3015003467
 20
1824.7569040191
 30
0.0
 40
60.96
 41
0.0
 71
     2
 72
     1
  1
D
  7
SLDTEXTSTYLE0
 73
     1
 44
1.0
  0
MTEXT
  5
AD
330
1F
100
AcDbEntity
  8
0
  6
Continuous
 62
     7
370
     0
100
AcDbMText
 10
2919.3015003467
 20
1824.7569040191
 30
0.0
 40
60.96
 41
0.0
 71
     2
 72
     1
  1
D
  7
SLDTEXTSTYLE0
 73
     1
 44
1.0
  0
MTEXT
  5
AE
330
1F
100
AcDbEntity
  8
0
  6
Continuous
 62
     7
370
     0
100
AcDbMText
 10
241.8861666967
 20
81.1369040191
 30
0.0
 40
60.96
 41
0.0
 71
     2
 72
     1
  1
6
  7
SLDTEXTSTYLE0
 73
     1
 44
1.0
  0
MTEXT
  5
AF
330
1F
100
AcDbEntity
  8
0
  6
Continuous
 62
     7
370
     0
100
AcDbMText
 10
241.8861666967
 20
2081.1369040191
 30
0.0
 40
60.96
 41
0.0
 71
     2
 72
     1
  1
6
  7
SLDTEXTSTYLE0
 73
     1
 44
1.0
  0
MTEXT
  5
B0
330
1F
100
AcDbEntity
  8
0
  6
Continuous
 62
     7
370
     0
100
AcDbMText
 10
734.3861666967
 20
81.1369040191
 30
0.0
 40
60.96
 41
0.0
 71
     2
 72
     1
  1
5
  7
SLDTEXTSTYLE0
 73
     1
 44
1.0
  0
MTEXT
  5
B1
330
1F
100
AcDbEntity
  8
0
  6
Continuous
 62
     7
370
     0
100
AcDbMText
 10
734.3861666967
 20
2081.1369040191
 30
0.0
 40
60.96
 41
0.0
 71
     2
 72
     1
  1
5
  7
SLDTEXTSTYLE0
 73
     1
 44
1.0
  0
MTEXT
  5
B2
330
1F
100
AcDbEntity
  8
0
  6
Continuous
 62
     7
370
     0
100
AcDbMText
 10
1234.3861666967
 20
81.1369040191
 30
0.0
 40
60.96
 41
0.0
 71
     2
 72
     1
  1
4
  7
SLDTEXTSTYLE0
 73
     1
 44
1.0
  0
MTEXT
  5
B3
330
1F
100
AcDbEntity
  8
0
  6
Continuous
 62
     7
370
     0
100
AcDbMText
 10
1234.3861666967
 20
2081.1369040191
 30
0.0
 40
60.96
 41
0.0
 71
     2
 72
     1
  1
4
  7
SLDTEXTSTYLE0
 73
     1
 44
1.0
  0
MTEXT
  5
B4
330
1F
100
AcDbEntity
  8
0
  6
Continuous
 62
     7
370
     0
100
AcDbMText
 10
1734.3861666967
 20
81.1369040191
 30
0.0
 40
60.96
 41
0.0
 71
     2
 72
     1
  1
3
  7
SLDTEXTSTYLE0
 73
     1
 44
1.0
  0
MTEXT
  5
B5
330
1F
100
AcDbEntity
  8
0
  6
Continuous
 62
     7
370
     0
100
AcDbMText
 10
1734.3861666967
 20
2081.1369040191
 30
0.0
 40
60.96
 41
0.0
 71
     2
 72
     1
  1
3
  7
SLDTEXTSTYLE0
 73
     1
 44
1.0
  0
MTEXT
  5
B6
330
1F
100
AcDbEntity
  8
0
  6
Continuous
 62
     7
370
     0
100
AcDbMText
 10
2234.3861666967
 20
81.1369040191
 30
0.0
 40
60.96
 41
0.0
 71
     2
 72
     1
  1
2
  7
SLDTEXTSTYLE0
 73
     1
 44
1.0
  0
MTEXT
  5
B7
330
1F
100
AcDbEntity
  8
0
  6
Continuous
 62
     7
370
     0
100
AcDbMText
 10
2234.3861666967
 20
2081.1369040191
 30
0.0
 40
60.96
 41
0.0
 71
     2
 72
     1
  1
2
  7
SLDTEXTSTYLE0
 73
     1
 44
1.0
  0
MTEXT
  5
B8
330
1F
100
AcDbEntity
  8
0
  6
Continuous
 62
     7
370
     0
100
AcDbMText
 10
2726.8861666967
 20
81.1369040191
 30
0.0
 40
60.96
 41
0.0
 71
     2
 72
     1
  1
1
  7
SLDTEXTSTYLE0
 73
     1
 44
1.0
  0
MTEXT
  5
B9
330
1F
100
AcDbEntity
  8
0
  6
Continuous
 62
     7
370
     0
100
AcDbMText
 10
2726.8861666967
 20
2081.1369040191
 30
0.0
 40
60.96
 41
0.0
 71
     2
 72
     1
  1
1
  7
SLDTEXTSTYLE0
 73
     1
 44
1.0
  0
MTEXT
  5
BA
330
1F
100
AcDbEntity
  8
0
  6
Continuous
 62
     7
370
     0
100
AcDbMText
 10
2420.3677095317
 20
236.0691096725
 30
0.0
 40
63.5
 41
0.0
 71
     2
 72
     1
  1
skrinka1_bokR
  7
SLDTEXTSTYLE0
 73
     1
 44
1.0
  0
MTEXT
  5
BB
330
1F
100
AcDbEntity
  8
0
  6
Continuous
 62
     7
370
     0
100
AcDbMText
 10
1626.1781112812
 20
129.4931190359
 30
0.0
 40
14.986
 41
0.0
 71
     1
 72
     1
  1
HMOTNOST:
  7
SLDTEXTSTYLE0
 73
     1
 44
1.0
  0
MTEXT
  5
BC
330
1F
100
AcDbEntity
  8
0
  6
Continuous
 62
     7
370
     0
100
AcDbMText
 10
2778.7115643465
 20
244.06388569
 30
0.0
 40
29.1041666667
 41
0.0
 71
     1
 72
     1
  1
A4
  7
SLDTEXTSTYLE0
 73
     1
 44
1.0
  0
MTEXT
  5
BE
330
1F
100
AcDbEntity
  8
0
  6
Continuous
 62
     7
370
     0
100
AcDbMText
 10
2514.7829442782
 20
129.0008727453
 30
0.0
 40
15.0
 41
0.0
 71
     1
 72
     1
  1
LIST 1 Z 1 LISTÙ
  7
SLDTEXTSTYLE1
 73
     1
 44
1.0
  0
MTEXT
  5
C0
330
1F
100
AcDbEntity
  8
0
  6
Continuous
 62
     7
370
     0
100
AcDbMText
 10
2070.7396611749
 20
129.0008727453
 30
0.0
 40
15.0
 41
0.0
 71
     1
 72
     1
  1
MÌØÍTKO:1:10
  7
SLDTEXTSTYLE2
 73
     1
 44
1.0
  0
MTEXT
  5
C1
330
1F
100
AcDbEntity
  8
0
  6
Continuous
 62
     7
370
     0
100
AcDbMText
 10
2072.7865312426
 20
259.8605628925
 30
0.0
 40
15.0
 41
0.0
 71
     1
 72
     1
  1
È. VÝKRESU
  7
SLDTEXTSTYLE2
 73
     1
 44
1.0
  0
MTEXT
  5
C2
330
1F
100
AcDbEntity
  8
0
  6
Continuous
 62
     7
370
     0
100
AcDbMText
 10
2069.5618693665
 20
465.7617922122
 30
0.0
 40
15.0
 41
0.0
 71
     1
 72
     1
  1
NÁZEV:
  7
SLDTEXTSTYLE0
 73
     1
 44
1.0
  0
MTEXT
  5
C3
330
1F
100
AcDbEntity
  8
0
  6
Continuous
 62
     7
370
     0
100
AcDbMText
 10
2603.2758169935
 20
623.3490868046
 30
0.0
 40
15.0
 41
0.0
 71
     1
 72
     1
  1
ZMÌNA
  7
SLDTEXTSTYLE2
 73
     1
 44
1.0
  0
MTEXT
  5
C4
330
1F
100
AcDbEntity
  8
0
  6
Continuous
 62
     7
370
     0
100
AcDbMText
 10
2196.1464052288
 20
625.3299357505
 30
0.0
 40
15.0
 41
0.0
 71
     1
 72
     1
  1
NEUPRAVOVAT MÌØÍTKO VÝKRESU
  7
SLDTEXTSTYLE2
 73
     1
 44
1.0
  0
MTEXT
  5
C5
330
1F
100
AcDbEntity
  8
0
  6
Continuous
 62
     7
370
     0
100
AcDbMText
 10
1626.4586230876
 20
259.8605628925
 30
0.0
 40
15.0
 41
0.0
 71
     1
 72
     1
  1
MATERIÁL:
  7
SLDTEXTSTYLE0
 73
     1
 44
1.0
  0
MTEXT
  5
C6
330
1F
100
AcDbEntity
  8
0
  6
Continuous
 62
     7
370
     0
100
AcDbMText
 10
1542.1470196572
 20
465.7617922122
 30
0.0
 40
15.0
 41
0.0
 71
     1
 72
     1
  1
DATUM
  7
SLDTEXTSTYLE0
 73
     1
 44
1.0
  0
MTEXT
  5
C7
330
1F
100
AcDbEntity
  8
0
  6
Continuous
 62
     7
370
     0
100
AcDbMText
 10
1370.3358756318
 20
465.6175637955
 30
0.0
 40
15.0
 41
0.0
 71
     1
 72
     1
  1
PODPIS
  7
SLDTEXTSTYLE0
 73
     1
 44
1.0
  0
MTEXT
  5
C8
330
1F
100
AcDbEntity
  8
0
  6
Continuous
 62
     7
370
     0
100
AcDbMText
 10
1213.2223921768
 20
465.0148263347
 30
0.0
 40
15.0
 41
0.0
 71
     1
 72
     1
  1
JMÉNO
  7
SLDTEXTSTYLE0
 73
     1
 44
1.0
  0
INSERT
  5
CE
330
1F
100
AcDbEntity
  8
0
  6
Continuous
 62
     7
370
     0
100
AcDbBlockReference
  2
SW_NOTE_0
 10
1883.0921568627
 20
620.6948964303
 30
0.0
  0
MTEXT
  5
CF
330
1F
100
AcDbEntity
  8
0
  6
Continuous
 62
     7
370
     0
100
AcDbMText
 10
1413.7129216683
 20
639.1927199514
 30
0.0
 40
15.0
 41
0.0
 71
     1
 72
     1
  1
OPRACOVÁNÍ:
  7
SLDTEXTSTYLE0
 73
     1
 44
1.0
  0
INSERT
  5
D9
330
1F
100
AcDbEntity
  8
0
  6
Continuous
 62
     7
370
     0
100
AcDbBlockReference
  2
SW_NOTE_1
 10
1075.9366874564
 20
619.8736987428
 30
0.0
  0
MTEXT
  5
DA
330
1F
100
AcDbEntity
  8
0
  6
Continuous
 62
     7
370
     0
100
AcDbMText
 10
1076.6904286218
 20
253.4964920731
 30
0.0
 40
15.0
 41
0.0
 71
     1
 72
     1
  1
Z. JAKOSTI
  7
SLDTEXTSTYLE0
 73
     1
 44
1.0
  0
MTEXT
  5
DB
330
1F
100
AcDbEntity
  8
0
  6
Continuous
 62
     7
370
     0
100
AcDbMText
 10
1074.5518649909
 20
297.337046506
 30
0.0
 40
15.0
 41
0.0
 71
     1
 72
     1
  1
VÝROBA
  7
SLDTEXTSTYLE0
 73
     1
 44
1.0
  0
MTEXT
  5
DC
330
1F
100
AcDbEntity
  8
0
  6
Continuous
 62
     7
370
     0
100
AcDbMText
 10
1074.0172240832
 20
340.6429600311
 30
0.0
 40
15.0
 41
0.0
 71
     1
 72
     1
  1
SCHVÁLIL
  7
SLDTEXTSTYLE0
 73
     1
 44
1.0
  0
MTEXT
  5
DD
330
1F
100
AcDbEntity
  8
0
  6
Continuous
 62
     7
370
     0
100
AcDbMText
 10
1074.1046886762
 20
381.5440715999
 30
0.0
 40
15.0
 41
0.0
 71
     1
 72
     1
  1
PØEZKOUEL
  7
SLDTEXTSTYLE2
 73
     1
 44
1.0
  0
MTEXT
  5
DE
330
1F
100
AcDbEntity
  8
0
  6
Continuous
 62
     7
370
     0
100
AcDbMText
 10
1072.1214924409
 20
424.2971488591
 30
0.0
 40
15.0
 41
0.0
 71
     1
 72
     1
  1
NAVRHL
  7
SLDTEXTSTYLE0
 73
     1
 44
1.0
  0
LINE
  5
DF
330
1F
100
AcDbEntity
  8
0
  6
Continuous
 62
     7
370
    25
100
AcDbLine
 10
883.3220586336
 20
1423.0925181949
 30
0.0
 11
799.9928951418
 21
1423.0925181949
 31
0.0
  0
LINE
  5
E0
330
1F
100
AcDbEntity
  8
0
  6
Continuous
 62
     7
370
    25
100
AcDbLine
 10
894.2020967758
 20
1413.0925202811
 30
0.0
 11
789.1128569996
 21
1413.0925202811
 31
0.0
  0
LINE
  5
E1
330
1F
100
AcDbEntity
  8
0
  6
Continuous
 62
     7
370
    25
100
AcDbLine
 10
886.5009531534
 20
1420.5925205791
 30
0.0
 11
796.814000622
 21
1420.5925205791
 31
0.0
  0
LINE
  5
E2
330
1F
100
AcDbEntity
  8
0
  6
Continuous
 62
     7
370
    25
100
AcDbLine
 10
901.5401736057
 20
1403.092518642
 30
0.0
 11
781.7747801697
 21
1403.092518642
 31
0.0
  0
LINE
  5
E3
330
1F
100
AcDbEntity
  8
0
  6
Continuous
 62
     7
370
    25
100
AcDbLine
 10
896.301208452
 20
1410.59251894
 30
0.0
 11
787.0137453234
 21
1410.59251894
 31
0.0
  0
LINE
  5
E4
330
1F
100
AcDbEntity
  8
0
  6
Continuous
 62
     7
370
    25
100
AcDbLine
 10
906.5492138421
 20
1393.0925188655
 30
0.0
 11
776.7657399332
 21
1393.0925188655
 31
0.0
  0
LINE
  5
E5
330
1F
100
AcDbEntity
  8
0
  6
Continuous
 62
     7
370
    25
100
AcDbLine
 10
902.9839620149
 20
1400.5925210261
 30
0.0
 11
780.3309992111
 21
1400.5925210261
 31
0.0
  0
LINE
  5
E6
330
1F
100
AcDbEntity
  8
0
  6
Continuous
 62
     7
370
    25
100
AcDbLine
 10
909.7451999938
 20
1383.092519089
 30
0.0
 11
773.5697612321
 21
1383.092519089
 31
0.0
  0
LINE
  5
E7
330
1F
100
AcDbEntity
  8
0
  6
Continuous
 62
     7
370
    25
100
AcDbLine
 10
907.5053170478
 20
1390.592519387
 30
0.0
 11
775.8096441781
 21
1390.592519387
 31
0.0
  0
LINE
  5
E8
330
1F
100
AcDbEntity
  8
0
  6
Continuous
 62
     7
370
    25
100
AcDbLine
 10
911.3779053247
 20
1373.0925197782
 30
0.0
 11
771.9370559013
 21
1373.0925197782
 31
0.0
  0
LINE
  5
E9
330
1F
100
AcDbEntity
  8
0
  6
Continuous
 62
     7
370
    25
100
AcDbLine
 10
910.2937564409
 20
1380.5925196105
 30
0.0
 11
773.0212122357
 21
1380.5925196105
 31
0.0
  0
LINE
  5
EA
330
1F
100
AcDbEntity
  8
0
  6
Continuous
 62
     7
370
    25
100
AcDbLine
 10
911.5569576776
 20
1363.0925197689
 30
0.0
 11
771.7579960978
 21
1363.0925197689
 31
0.0
  0
LINE
  5
EB
330
1F
100
AcDbEntity
  8
0
  6
Continuous
 62
     7
370
    25
100
AcDbLine
 10
911.5569576776
 20
1370.5925196012
 30
0.0
 11
771.7579960978
 21
1370.5925196012
 31
0.0
  0
LINE
  5
EC
330
1F
100
AcDbEntity
  8
0
  6
Continuous
 62
     7
370
    25
100
AcDbLine
 10
910.2937564409
 20
1353.0925197595
 30
0.0
 11
773.0212122357
 21
1353.0925197595
 31
0.0
  0
LINE
  5
ED
330
1F
100
AcDbEntity
  8
0
  6
Continuous
 62
     7
370
    25
100
AcDbLine
 10
911.3779053247
 20
1360.5925195919
 30
0.0
 11
771.9370559013
 21
1360.5925195919
 31
0.0
  0
LINE
  5
EE
330
1F
100
AcDbEntity
  8
0
  6
Continuous
 62
     7
370
    25
100
AcDbLine
 10
907.5053170478
 20
1343.0925199831
 30
0.0
 11
775.8096441781
 21
1343.0925199831
 31
0.0
  0
LINE
  5
EF
330
1F
100
AcDbEntity
  8
0
  6
Continuous
 62
     7
370
    25
100
AcDbLine
 10
902.9839620149
 20
1333.0925183439
 30
0.0
 11
780.3309992111
 21
1333.0925183439
 31
0.0
  0
LINE
  5
F0
330
1F
100
AcDbEntity
  8
0
  6
Continuous
 62
     7
370
    25
100
AcDbLine
 10
906.5492138421
 20
1340.5925205046
 30
0.0
 11
776.7657399332
 21
1340.5925205046
 31
0.0
  0
LINE
  5
F1
330
1F
100
AcDbEntity
  8
0
  6
Continuous
 62
     7
370
    25
100
AcDbLine
 10
896.301208452
 20
1323.0925204301
 30
0.0
 11
787.0137453234
 21
1323.0925204301
 31
0.0
  0
LINE
  5
F2
330
1F
100
AcDbEntity
  8
0
  6
Continuous
 62
     7
370
    25
100
AcDbLine
 10
901.5401736057
 20
1330.5925207281
 30
0.0
 11
781.7747801697
 21
1330.5925207281
 31
0.0
  0
LINE
  5
F3
330
1F
100
AcDbEntity
  8
0
  6
Continuous
 62
     7
370
    25
100
AcDbLine
 10
886.5009531534
 20
1313.092518791
 30
0.0
 11
796.814000622
 21
1313.092518791
 31
0.0
  0
LINE
  5
F4
330
1F
100
AcDbEntity
  8
0
  6
Continuous
 62
     7
370
    25
100
AcDbLine
 10
894.2020967758
 20
1320.592519089
 30
0.0
 11
789.1128569996
 21
1320.592519089
 31
0.0
  0
LINE
  5
F5
330
1F
100
AcDbEntity
  8
0
  6
Continuous
 62
     7
370
    25
100
AcDbLine
 10
883.3220586336
 20
1310.5925211752
 30
0.0
 11
799.9928951418
 21
1310.5925211752
 31
0.0
  0
LINE
  5
F6
330
1F
100
AcDbEntity
  8
0
  6
Continuous
 62
     7
370
    25
100
AcDbLine
 10
909.7451999938
 20
1350.5925202811
 30
0.0
 11
773.5697612321
 21
1350.5925202811
 31
0.0
  0
ARC
  5
F7
330
1F
100
AcDbEntity
  8
0
  6
Continuous
 62
     7
370
    25
100
AcDbCircle
 10
841.657480315
 20
1366.842519685
 30
0.0
 40
69.99999999999986
100
AcDbArc
 50
294.3957521119
 51
306.5274850817
  0
ARC
  5
F8
330
1F
100
AcDbEntity
  8
0
  6
Continuous
 62
     7
370
    25
100
AcDbCircle
 10
841.657480315
 20
1366.842519685
 30
0.0
 40
69.99999999999991
100
AcDbArc
 50
309.8381498056
 51
318.6456289465
  0
ARC
  5
F9
330
1F
100
AcDbEntity
  8
0
  6
Continuous
 62
     7
370
    25
100
AcDbCircle
 10
841.657480315
 20
1366.842519685
 30
0.0
 40
69.9999999999999
100
AcDbArc
 50
321.3178125465
 51
328.8113776665
  0
ARC
  5
FA
330
1F
100
AcDbEntity
  8
0
  6
Continuous
 62
     7
370
    25
100
AcDbCircle
 10
841.657480315
 20
1366.842519685
 30
0.0
 40
69.99999999999996
100
AcDbArc
 50
331.1745508396
 51
337.975687163
  0
ARC
  5
FB
330
1F
100
AcDbEntity
  8
0
  6
Continuous
 62
     7
370
    25
100
AcDbCircle
 10
841.657480315
 20
1366.842519685
 30
0.0
 40
69.99999999999996
100
AcDbArc
 50
340.1666380911
 51
346.5767363965
  0
ARC
  5
FC
330
1F
100
AcDbEntity
  8
0
  6
Continuous
 62
     7
370
    25
100
AcDbCircle
 10
841.657480315
 20
1366.842519685
 30
0.0
 40
70.00000000000006
100
AcDbArc
 50
348.6718111479
 51
354.8774839002
  0
ARC
  5
FD
330
1F
100
AcDbEntity
  8
0
  6
Continuous
 62
     7
370
    25
100
AcDbCircle
 10
841.657480315
 20
1366.842519685
 30
0.0
 40
69.99999999999997
100
AcDbArc
 50
356.9291131889
 51
3.0708868111
  0
ARC
  5
FE
330
1F
100
AcDbEntity
  8
0
  6
Continuous
 62
     7
370
    25
100
AcDbCircle
 10
841.657480315
 20
1366.842519685
 30
0.0
 40
70.0000000000001
100
AcDbArc
 50
5.1225160998
 51
11.3281888521
  0
ARC
  5
FF
330
1F
100
AcDbEntity
  8
0
  6
Continuous
 62
     7
370
    25
100
AcDbCircle
 10
841.657480315
 20
1366.842519685
 30
0.0
 40
70.00000000000001
100
AcDbArc
 50
13.4232636035
 51
19.8333619089
  0
ARC
  5
100
330
1F
100
AcDbEntity
  8
0
  6
Continuous
 62
     7
370
    25
100
AcDbCircle
 10
841.657480315
 20
1366.842519685
 30
0.0
 40
70.00000000000007
100
AcDbArc
 50
22.024312837
 51
28.8254491604
  0
ARC
  5
101
330
1F
100
AcDbEntity
  8
0
  6
Continuous
 62
     7
370
    25
100
AcDbCircle
 10
841.657480315
 20
1366.842519685
 30
0.0
 40
70.00000000000001
100
AcDbArc
 50
31.1886223335
 51
38.6821874535
  0
ARC
  5
102
330
1F
100
AcDbEntity
  8
0
  6
Continuous
 62
     7
370
    25
100
AcDbCircle
 10
841.657480315
 20
1366.842519685
 30
0.0
 40
70.00000000000009
100
AcDbArc
 50
41.3543710535
 51
50.1618501944
  0
ARC
  5
103
330
1F
100
AcDbEntity
  8
0
  6
Continuous
 62
     7
370
    25
100
AcDbCircle
 10
841.657480315
 20
1366.842519685
 30
0.0
 40
70.00000000000006
100
AcDbArc
 50
53.4725149183
 51
65.6042478881
  0
LINE
  5
104
330
1F
100
AcDbEntity
  8
0
  6
Continuous
 62
     7
370
    25
100
AcDbLine
 10
870.5700621164
 20
1430.5925184929
 30
0.0
 11
812.7448991096
 21
1430.5925184929
 31
0.0
  0
ARC
  5
105
330
1F
100
AcDbEntity
  8
0
  6
Continuous
 62
     7
370
    25
100
AcDbCircle
 10
841.657480315
 20
1366.842519685
 30
0.0
 40
70.00000000000004
100
AcDbArc
 50
114.3957521119
 51
126.5274850817
  0
ARC
  5
106
330
1F
100
AcDbEntity
  8
0
  6
Continuous
 62
     7
370
    25
100
AcDbCircle
 10
841.657480315
 20
1366.842519685
 30
0.0
 40
70.00000000000009
100
AcDbArc
 50
129.8381498056
 51
138.6456289465
  0
ARC
  5
107
330
1F
100
AcDbEntity
  8
0
  6
Continuous
 62
     7
370
    25
100
AcDbCircle
 10
841.657480315
 20
1366.842519685
 30
0.0
 40
70.00000000000011
100
AcDbArc
 50
141.3178125465
 51
148.8113776665
  0
ARC
  5
108
330
1F
100
AcDbEntity
  8
0
  6
Continuous
 62
     7
370
    25
100
AcDbCircle
 10
841.657480315
 20
1366.842519685
 30
0.0
 40
70.00000000000007
100
AcDbArc
 50
151.1745508396
 51
157.975687163
  0
ARC
  5
109
330
1F
100
AcDbEntity
  8
0
  6
Continuous
 62
     7
370
    25
100
AcDbCircle
 10
841.657480315
 20
1366.842519685
 30
0.0
 40
70.00000000000001
100
AcDbArc
 50
160.1666380911
 51
166.5767363965
  0
ARC
  5
10A
330
1F
100
AcDbEntity
  8
0
  6
Continuous
 62
     7
370
    25
100
AcDbCircle
 10
841.657480315
 20
1366.842519685
 30
0.0
 40
70.00000000000007
100
AcDbArc
 50
168.6718111479
 51
174.8774839002
  0
ARC
  5
10B
330
1F
100
AcDbEntity
  8
0
  6
Continuous
 62
     7
370
    25
100
AcDbCircle
 10
841.657480315
 20
1366.842519685
 30
0.0
 40
70.00000000000007
100
AcDbArc
 50
176.9291131889
 51
183.0708868111
  0
ARC
  5
10C
330
1F
100
AcDbEntity
  8
0
  6
Continuous
 62
     7
370
    25
100
AcDbCircle
 10
841.657480315
 20
1366.842519685
 30
0.0
 40
70.00000000000003
100
AcDbArc
 50
185.1225160998
 51
191.3281888521
  0
ARC
  5
10D
330
1F
100
AcDbEntity
  8
0
  6
Continuous
 62
     7
370
    25
100
AcDbCircle
 10
841.657480315
 20
1366.842519685
 30
0.0
 40
69.99999999999996
100
AcDbArc
 50
193.4232636035
 51
199.8333619089
  0
ARC
  5
10E
330
1F
100
AcDbEntity
  8
0
  6
Continuous
 62
     7
370
    25
100
AcDbCircle
 10
841.657480315
 20
1366.842519685
 30
0.0
 40
70.0
100
AcDbArc
 50
202.024312837
 51
208.8254491604
  0
ARC
  5
10F
330
1F
100
AcDbEntity
  8
0
  6
Continuous
 62
     7
370
    25
100
AcDbCircle
 10
841.657480315
 20
1366.842519685
 30
0.0
 40
70.0
100
AcDbArc
 50
211.1886223335
 51
218.6821874535
  0
ARC
  5
110
330
1F
100
AcDbEntity
  8
0
  6
Continuous
 62
     7
370
    25
100
AcDbCircle
 10
841.657480315
 20
1366.842519685
 30
0.0
 40
69.99999999999991
100
AcDbArc
 50
221.3543710535
 51
230.1618501944
  0
ARC
  5
111
330
1F
100
AcDbEntity
  8
0
  6
Continuous
 62
     7
370
    25
100
AcDbCircle
 10
841.657480315
 20
1366.842519685
 30
0.0
 40
69.99999999999986
100
AcDbArc
 50
233.4725149183
 51
245.6042478881
  0
LINE
  5
112
330
1F
100
AcDbEntity
  8
0
  6
Continuous
 62
     7
370
    25
100
AcDbLine
 10
870.5700621164
 20
1303.0925208771
 30
0.0
 11
812.7448991096
 21
1303.0925208771
 31
0.0
  0
LINE
  5
113
330
1F
100
AcDbEntity
  8
0
  6
Continuous
 62
     7
370
    25
100
AcDbLine
 10
864.2614022052
 20
1300.5925232613
 30
0.0
 11
819.0535515702
 21
1300.5925232613
 31
0.0
  0
ARC
  5
114
330
1F
100
AcDbEntity
  8
0
  6
Continuous
 62
     7
370
    25
100
AcDbCircle
 10
841.657480315
 20
1366.842519685
 30
0.0
 40
69.99999999999983
100
AcDbArc
 50
251.1608030293
 51
288.8391969707
  0
CIRCLE
  5
115
330
1F
100
AcDbEntity
  8
0
  6
Continuous
 62
     7
370
    25
100
AcDbCircle
 10
903.907480315
 20
1304.592519685
 30
0.0
 40
2.300000000000068
  0
CIRCLE
  5
116
330
1F
100
AcDbEntity
  8
0
  6
Continuous
 62
     7
370
    25
100
AcDbCircle
 10
903.907480315
 20
1429.092519685
 30
0.0
 40
2.299999999999955
  0
ARC
  5
117
330
1F
100
AcDbEntity
  8
0
  6
Continuous
 62
     7
370
    25
100
AcDbCircle
 10
841.657480315
 20
1366.842519685
 30
0.0
 40
70.00000000000004
100
AcDbArc
 50
71.1608030293
 51
108.8391969707
  0
LINE
  5
118
330
1F
100
AcDbEntity
  8
0
  6
Continuous
 62
     7
370
    25
100
AcDbLine
 10
864.2614022052
 20
1433.0925161088
 30
0.0
 11
819.0535515702
 21
1433.0925161088
 31
0.0
  0
CIRCLE
  5
119
330
1F
100
AcDbEntity
  8
0
  6
Continuous
 62
     7
370
    25
100
AcDbCircle
 10
779.407480315
 20
1304.592519685
 30
0.0
 40
2.299999999999955
  0
CIRCLE
  5
11A
330
1F
100
AcDbEntity
  8
0
  6
Continuous
 62
     7
370
    25
100
AcDbCircle
 10
779.407480315
 20
1429.092519685
 30
0.0
 40
2.300000000000068
  0
CIRCLE
  5
11B
330
1F
100
AcDbEntity
  8
0
  6
Continuous
 62
     7
370
    25
100
AcDbCircle
 10
501.657480315
 20
1084.342519685
 30
0.0
 40
2.000000000000057
  0
CIRCLE
  5
11C
330
1F
100
AcDbEntity
  8
0
  6
Continuous
 62
     7
370
    25
100
AcDbCircle
 10
479.157480315
 20
1084.342519685
 30
0.0
 40
12.50000000000006
  0
CIRCLE
  5
11D
330
1F
100
AcDbEntity
  8
0
  6
Continuous
 62
     7
370
    25
100
AcDbCircle
 10
456.657480315
 20
1084.342519685
 30
0.0
 40
2.0
  0
LINE
  5
11E
330
1F
100
AcDbEntity
  8
0
  6
Continuous
 62
     7
370
    25
100
AcDbLine
 10
991.6574791229
 20
1689.3425101483
 30
0.0
 11
991.6574791229
 21
1044.3425292218
 31
0.0
  0
LINE
  5
11F
330
1F
100
AcDbEntity
  8
0
  6
Continuous
 62
     7
370
    25
100
AcDbLine
 10
426.6574815071
 20
1044.3425292218
 30
0.0
 11
991.6574791229
 21
1044.3425292218
 31
0.0
  0
LINE
  5
120
330
1F
100
AcDbEntity
  8
0
  6
Continuous
 62
     7
370
    25
100
AcDbLine
 10
426.6574815071
 20
1689.3425101483
 30
0.0
 11
426.6574815071
 21
1044.3425292218
 31
0.0
  0
LINE
  5
121
330
1F
100
AcDbEntity
  8
0
  6
Continuous
 62
     7
370
    25
100
AcDbLine
 10
426.6574815071
 20
1689.3425101483
 30
0.0
 11
991.6574791229
 21
1689.3425101483
 31
0.0
  0
DIMENSION
  5
122
330
1F
100
AcDbEntity
  8
0
  6
Continuous
 62
     7
370
    18
100
AcDbDimension
  2
_D
 10
991.657480315
 20
851.2204724409
 30
0.0
 11
721.2047244094
 21
851.2204724409
 31
0.0
 70
   160
  1
<>
 71
     2
 42
-1.0
  3
SLDDIMSTYLE0
100
AcDbAlignedDimension
 13
426.657480315
 23
1044.342519685
 33
0.0
 14
991.657480315
 24
1044.342519685
 34
0.0
100
AcDbRotatedDimension
  0
DIMENSION
  5
12D
330
1F
100
AcDbEntity
  8
0
  6
Continuous
 62
     7
370
    18
100
AcDbDimension
  2
_D_1
 10
217.6299212598
 20
1044.342519685
 30
0.0
 11
217.6299212598
 21
1407.8031496063
 31
0.0
 70
   160
  1
<>
 71
     2
 42
-1.0
  3
SLDDIMSTYLE0
100
AcDbAlignedDimension
 13
426.657480315
 23
1689.342519685
 33
0.0
 14
426.657480315
 24
1044.342519685
 34
0.0
 50
90.0
100
AcDbRotatedDimension
  0
DIMENSION
  5
137
330
1F
100
AcDbEntity
  8
0
  6
Continuous
 62
     7
370
    18
100
AcDbDimension
  2
_D_2
 10
362.1968503937
 20
1044.342519685
 30
0.0
 11
362.1968503937
 21
1207.8188976378
 31
0.0
 70
   160
  1
<>
 71
     2
 42
-1.0
  3
SLDDIMSTYLE0
100
AcDbAlignedDimension
 13
769.157480315
 23
1366.842519685
 33
0.0
 14
426.657480315
 24
1044.342519685
 34
0.0
 50
90.0
100
AcDbRotatedDimension
  0
DIMENSION
  5
141
330
1F
100
AcDbEntity
  8
0
  6
Continuous
 62
     7
370
    18
100
AcDbDimension
  2
_D_3
 10
991.657480315
 20
944.342519685
 30
0.0
 11
913.9606299213
 21
944.342519685
 31
0.0
 70
   160
  1
<>
 71
     2
 42
-1.0
  3
SLDDIMSTYLE1
100
AcDbAlignedDimension
 13
841.657480315
 23
1294.342519685
 33
0.0
 14
991.657480315
 24
1689.342519685
 34
0.0
100
AcDbRotatedDimension
  0
DIMENSION
  5
14E
330
1F
100
AcDbEntity
  8
0
  6
Continuous
 62
     7
370
    18
100
AcDbDimension
  2
_D_4
 10
902.2792585799
 20
1401.842519685
 30
0.0
 11
629.7159053387
 21
1244.478036585
 31
0.0
 70
   163
  1
<>
 71
     1
 42
-1.0
  3
SLDDIMSTYLE2
100
AcDbDiametricDimension
 15
781.03570205
 25
1331.842519685
 35
0.0
 40
0.0
  0
DIMENSION
  5
15B
330
1F
100
AcDbEntity
  8
0
  6
Continuous
 62
     7
370
    18
100
AcDbDimension
  2
_D_5
 10
781.0338259117
 20
1306.2188652818
 30
0.0
 11
657.771325668
 21
1182.9563650381
 31
0.0
 70
   163
  1
<>
 71
     1
 42
-1.0
  3
SLDDIMSTYLE2
100
AcDbDiametricDimension
 15
777.7811347182
 25
1302.9661740883
 35
0.0
 40
0.0
  0
DIMENSION
  5
164
330
1F
100
AcDbEntity
  8
0
  6
Continuous
 62
     7
370
    18
100
AcDbDimension
  2
_D_6
 10
903.907480315
 20
1188.0981104882
 30
0.0
 11
837.2927110089
 21
1188.0981104882
 31
0.0
 70
   160
  1
<>
 71
     2
 42
-1.0
  3
SLDDIMSTYLE1
100
AcDbAlignedDimension
 13
779.407480315
 23
1304.592519685
 33
0.0
 14
903.907480315
 24
1304.592519685
 34
0.0
100
AcDbRotatedDimension
  0
DIMENSION
  5
170
330
1F
100
AcDbEntity
  8
0
  6
Continuous
 62
     7
370
    18
100
AcDbDimension
  2
_D_7
 10
974.3397688375
 20
1429.092519685
 30
0.0
 11
974.3397688375
 21
1376.531384084
 31
0.0
 70
   160
  1
<>
 71
     2
 42
-1.0
  3
SLDDIMSTYLE1
100
AcDbAlignedDimension
 13
903.907480315
 23
1304.592519685
 33
0.0
 14
903.907480315
 24
1429.092519685
 34
0.0
 50
90.0
100
AcDbRotatedDimension
  0
DIMENSION
  5
17C
330
1F
100
AcDbEntity
  8
0
  6
Continuous
 62
     7
370
    18
100
AcDbDimension
  2
_D_8
 10
889.0822552918
 20
1433.092519685
 30
0.0
 11
889.0822552918
 21
1520.3452329076
 31
0.0
 70
   160
  1
<>
 71
     2
 42
-1.0
  3
SLDDIMSTYLE1
100
AcDbAlignedDimension
 13
870.5700640805
 23
1430.592519685
 33
0.0
 14
864.261406965
 24
1433.092519685
 34
0.0
 50
90.0
100
AcDbRotatedDimension
  0
DIMENSION
  5
188
330
1F
100
AcDbEntity
  8
0
  6
Continuous
 62
     7
370
    18
100
AcDbDimension
  2
_D_9
 10
720.161977959
 20
1430.592519685
 30
0.0
 11
720.161977959
 21
1512.9452660077
 31
0.0
 70
   160
  1
<>
 71
     2
 42
-1.0
  3
SLDDIMSTYLE1
100
AcDbAlignedDimension
 13
799.9928970337
 23
1423.092519685
 33
0.0
 14
812.7448965494
 24
1430.592519685
 34
0.0
 50
90.0
100
AcDbRotatedDimension
  0
DIMENSION
  5
194
330
1F
100
AcDbEntity
  8
0
  6
Continuous
 62
     7
370
    18
100
AcDbDimension
  2
_D_10
 10
456.1398422248
 20
1082.4106680325
 30
0.0
 11
479.5370396326
 21
1169.729924308
 31
0.0
 70
   163
  1
<>
 71
     1
 42
-1.0
  3
SLDDIMSTYLE2
100
AcDbDiametricDimension
 15
457.1751184052
 25
1086.2743713376
 35
0.0
 40
0.0
  0
DIMENSION
  5
19D
330
1F
100
AcDbEntity
  8
0
  6
Continuous
 62
     7
370
    18
100
AcDbDimension
  2
_D_11
 10
470.3186455501
 20
1075.5036849202
 30
0.0
 11
544.466099439
 21
1149.6511388091
 31
0.0
 70
   163
  1
<>
 71
     1
 42
-1.0
  3
SLDDIMSTYLE2
100
AcDbDiametricDimension
 15
487.9963150798
 25
1093.1813544499
 35
0.0
 40
0.0
  0
DIMENSION
  5
1A6
330
1F
100
AcDbEntity
  8
0
  6
Continuous
 62
     7
370
    18
100
AcDbDimension
  2
_D_12
 10
479.157480315
 20
981.8932505639
 30
0.0
 11
559.4295736376
 21
981.8932505639
 31
0.0
 70
   160
  1
<>
 71
     2
 42
-1.0
  3
SLDDIMSTYLE1
100
AcDbAlignedDimension
 13
456.657480315
 23
1084.342519685
 33
0.0
 14
479.157480315
 24
1084.342519685
 34
0.0
100
AcDbRotatedDimension
  0
DIMENSION
  5
1B2
330
1F
100
AcDbEntity
  8
0
  6
Continuous
 62
     7
370
    18
100
AcDbDimension
  2
_D_13
 10
426.657480315
 20
923.2763301015
 30
0.0
 11
377.9407768092
 21
923.2763301015
 31
0.0
 70
   160
  1
<>
 71
     2
 42
-1.0
  3
SLDDIMSTYLE1
100
AcDbAlignedDimension
 13
456.657480315
 23
1084.342519685
 33
0.0
 14
426.657480315
 24
1044.342519685
 34
0.0
100
AcDbRotatedDimension
  0
DIMENSION
  5
1BE
330
1F
100
AcDbEntity
  8
0
  6
Continuous
 62
     7
370
    18
100
AcDbDimension
  2
_D_14
 10
399.9310581233
 20
1044.342519685
 30
0.0
 11
399.9310581233
 21
1003.961914096
 31
0.0
 70
   160
  1
<>
 71
     2
 42
-1.0
  3
SLDDIMSTYLE1
100
AcDbAlignedDimension
 13
456.657480315
 23
1084.342519685
 33
0.0
 14
426.657480315
 24
1044.342519685
 34
0.0
 50
90.0
100
AcDbRotatedDimension
  0
INSERT
  5
1D5
330
1F
100
AcDbEntity
  8
0
  6
Continuous
 62
     7
370
     0
100
AcDbBlockReference
  2
SW_CENTERMARKSYMBOL_0
 10
841.657480315
 20
1366.842519685
 30
0.0
  0
LINE
  5
1D6
330
1F
100
AcDbEntity
  8
0
  6
Continuous
 62
     7
370
    25
100
AcDbLine
 10
1570.2401574542
 20
1689.3425101483
 30
0.0
 11
1573.2401574803
 21
1689.3425101483
 31
0.0
  0
LINE
  5
1D7
330
1F
100
AcDbEntity
  8
0
  6
Continuous
 62
     7
370
    25
100
AcDbLine
 10
1570.2401574542
 20
1689.3425101483
 30
0.0
 11
1570.2401574542
 21
1044.3425292218
 31
0.0
  0
LINE
  5
1D8
330
1F
100
AcDbEntity
  8
0
  6
Continuous
 62
     7
370
    25
100
AcDbLine
 10
1573.2401574803
 20
1689.3425101483
 30
0.0
 11
1573.2401574803
 21
1044.3425292218
 31
0.0
  0
LINE
  5
1D9
330
1F
100
AcDbEntity
  8
0
  6
Continuous
 62
     7
370
    25
100
AcDbLine
 10
1570.2401574542
 20
1044.3425292218
 30
0.0
 11
1573.2401574803
 21
1044.3425292218
 31
0.0
  0
DIMENSION
  5
1DA
330
1F
100
AcDbEntity
  8
0
  6
Continuous
 62
     7
370
    18
100
AcDbDimension
  2
_D_15
 10
1573.2401574803
 20
1001.6586992796
 30
0.0
 11
1608.2834557696
 21
1001.6586992796
 31
0.0
 70
   160
  1
<>
 71
     2
 42
-1.0
  3
SLDDIMSTYLE1
100
AcDbAlignedDimension
 13
1570.2401574803
 23
1044.342519685
 33
0.0
 14
1573.2401574803
 24
1044.342519685
 34
0.0
100
AcDbRotatedDimension
  0
ENDSEC
  0
SECTION
  2
OBJECTS
  0
DICTIONARY
  5
C
330
0
100
AcDbDictionary
281
     1
  3
ACAD_GROUP
350
D
  3
ACAD_LAYOUT
350
1A
  3
ACAD_MLINESTYLE
350
17
  3
ACAD_PLOTSETTINGS
350
19
  3
ACAD_PLOTSTYLENAME
350
E
  3
ACAD_SCALELIST
350
47
  0
DICTIONARY
  5
D
102
{ACAD_REACTORS
330
C
102
}
330
C
100
AcDbDictionary
281
     1
  0
DICTIONARY
  5
1A
102
{ACAD_REACTORS
330
C
102
}
330
C
100
AcDbDictionary
281
     1
  3
Layout1
350
1E
  3
Layout2
350
26
  3
Model
350
22
  0
DICTIONARY
  5
17
102
{ACAD_REACTORS
330
C
102
}
330
C
100
AcDbDictionary
281
     1
  3
Standard
350
18
  0
DICTIONARY
  5
19
102
{ACAD_REACTORS
330
C
102
}
330
C
100
AcDbDictionary
281
     1
  0
ACDBDICTIONARYWDFLT
  5
E
102
{ACAD_REACTORS
330
C
102
}
330
C
100
AcDbDictionary
281
     1
  3
Normal
350
F
100
AcDbDictionaryWithDefault
340
F
  0
DICTIONARY
  5
47
102
{ACAD_REACTORS
330
C
102
}
330
C
100
AcDbDictionary
281
     1
  3
A0
350
48
  3
A1
350
49
  3
A2
350
4A
  3
A3
350
4B
  3
A4
350
4C
  3
A5
350
4D
  3
A6
350
4E
  3
A7
350
4F
  3
A8
350
50
  3
A9
350
51
  3
B0
350
52
  3
B1
350
53
  3
B2
350
54
  3
B3
350
55
  3
B4
350
56
  3
B5
350
57
  3
B6
350
58
  3
B7
350
59
  3
B8
350
5A
  3
B9
350
5B
  3
C0
350
5C
  3
C1
350
5D
  3
C2
350
5E
  3
C3
350
5F
  3
C4
350
60
  3
C5
350
61
  3
C6
350
62
  3
C7
350
63
  3
C8
350
64
  3
C9
350
65
  3
D0
350
66
  3
D1
350
67
  3
D2
350
68
  0
LAYOUT
  5
1E
102
{ACAD_REACTORS
330
1A
102
}
330
1A
100
AcDbPlotSettings
  1

  2
none_device
  4

  6

 40
0.0
 41
0.0
 42
0.0
 43
0.0
 44
0.0
 45
0.0
 46
0.0
 47
0.0
 48
0.0
 49
0.0
140
0.0
141
0.0
142
1.0
143
1.0
 70
   688
 72
     1
 73
     0
 74
     5
  7

 75
    16
147
1.0
148
0.0
149
0.0
100
AcDbLayout
  1
Layout1
 70
     1
 71
     1
 10
0.0
 20
0.0
 11
420.0
 21
297.0
 12
0.0
 22
0.0
 32
0.0
 14
1.0000000000E+20
 24
1.0000000000E+20
 34
1.0000000000E+20
 15
-1.0000000000E+20
 25
-1.0000000000E+20
 35
-1.0000000000E+20
146
0.0
 13
0.0
 23
0.0
 33
0.0
 16
1.0
 26
0.0
 36
0.0
 17
0.0
 27
1.0
 37
0.0
 76
     0
330
1B
  0
LAYOUT
  5
26
102
{ACAD_REACTORS
330
1A
102
}
330
1A
100
AcDbPlotSettings
  1

  2
none_device
  4

  6

 40
0.0
 41
0.0
 42
0.0
 43
0.0
 44
0.0
 45
0.0
 46
0.0
 47
0.0
 48
0.0
 49
0.0
140
0.0
141
0.0
142
1.0
143
1.0
 70
   688
 72
     1
 73
     0
 74
     5
  7

 75
    16
147
1.0
148
0.0
149
0.0
100
AcDbLayout
  1
Layout2
 70
     1
 71
     2
 10
0.0
 20
0.0
 11
0.0
 21
0.0
 12
0.0
 22
0.0
 32
0.0
 14
0.0
 24
0.0
 34
0.0
 15
0.0
 25
0.0
 35
0.0
146
0.0
 13
0.0
 23
0.0
 33
0.0
 16
1.0
 26
0.0
 36
0.0
 17
0.0
 27
1.0
 37
0.0
 76
     0
330
23
  0
LAYOUT
  5
22
102
{ACAD_REACTORS
330
1A
102
}
330
1A
100
AcDbPlotSettings
  1

  2
none_device
  4
Letter_(8.50_x_11.00_Inches)
  6

 40
6.35
 41
6.35
 42
6.35000508
 43
6.35000508
 44
215.9
 45
279.4
 46
0.0
 47
0.0
 48
0.0
 49
0.0
140
0.0
141
0.0
142
1.0
143
1.0
 70
  1712
 72
     1
 73
     0
 74
     0
  7

 75
     0
147
1.0
148
0.0
149
0.0
100
AcDbLayout
  1
Model
 70
     1
 71
     0
 10
0.0
 20
0.0
 11
2970.0
 21
2100.0
 12
0.0
 22
0.0
 32
0.0
 14
0.0
 24
0.0
 34
0.0
 15
2970.0
 25
2100.0
 35
0.0
146
0.0
 13
0.0
 23
0.0
 33
0.0
 16
1.0
 26
0.0
 36
0.0
 17
0.0
 27
1.0
 37
0.0
 76
     0
330
1F
331
29
  0
MLINESTYLE
  5
18
102
{ACAD_REACTORS
330
17
102
}
330
17
100
AcDbMlineStyle
  2
Standard
 70
     0
  3

 62
   256
 51
90.0
 52
90.0
 71
     2
 49
0.5
 62
   256
  6
BYLAYER
 49
-0.5
 62
   256
  6
BYLAYER
  0
ACDBPLACEHOLDER
  5
F
102
{ACAD_REACTORS
330
E
102
}
330
E
  0
SCALE
  5
48
102
{ACAD_REACTORS
330
47
102
}
330
47
100
AcDbScale
 70
     0
300
1:1
140
1.0
141
1.0
290
     1
  0
SCALE
  5
49
102
{ACAD_REACTORS
330
47
102
}
330
47
100
AcDbScale
 70
     0
300
1:2
140
1.0
141
2.0
290
     0
  0
SCALE
  5
4A
102
{ACAD_REACTORS
330
47
102
}
330
47
100
AcDbScale
 70
     0
300
1:4
140
1.0
141
4.0
290
     0
  0
SCALE
  5
4B
102
{ACAD_REACTORS
330
47
102
}
330
47
100
AcDbScale
 70
     0
300
1:5
140
1.0
141
5.0
290
     0
  0
SCALE
  5
4C
102
{ACAD_REACTORS
330
47
102
}
330
47
100
AcDbScale
 70
     0
300
1:8
140
1.0
141
8.0
290
     0
  0
SCALE
  5
4D
102
{ACAD_REACTORS
330
47
102
}
330
47
100
AcDbScale
 70
     0
300
1:10
140
1.0
141
10.0
290
     0
  0
SCALE
  5
4E
102
{ACAD_REACTORS
330
47
102
}
330
47
100
AcDbScale
 70
     0
300
1:16
140
1.0
141
16.0
290
     0
  0
SCALE
  5
4F
102
{ACAD_REACTORS
330
47
102
}
330
47
100
AcDbScale
 70
     0
300
1:20
140
1.0
141
20.0
290
     0
  0
SCALE
  5
50
102
{ACAD_REACTORS
330
47
102
}
330
47
100
AcDbScale
 70
     0
300
1:30
140
1.0
141
30.0
290
     0
  0
SCALE
  5
51
102
{ACAD_REACTORS
330
47
102
}
330
47
100
AcDbScale
 70
     0
300
1:40
140
1.0
141
40.0
290
     0
  0
SCALE
  5
52
102
{ACAD_REACTORS
330
47
102
}
330
47
100
AcDbScale
 70
     0
300
1:50
140
1.0
141
50.0
290
     0
  0
SCALE
  5
53
102
{ACAD_REACTORS
330
47
102
}
330
47
100
AcDbScale
 70
     0
300
1:100
140
1.0
141
100.0
290
     0
  0
SCALE
  5
54
102
{ACAD_REACTORS
330
47
102
}
330
47
100
AcDbScale
 70
     0
300
2:1
140
2.0
141
1.0
290
     0
  0
SCALE
  5
55
102
{ACAD_REACTORS
330
47
102
}
330
47
100
AcDbScale
 70
     0
300
4:1
140
4.0
141
1.0
290
     0
  0
SCALE
  5
56
102
{ACAD_REACTORS
330
47
102
}
330
47
100
AcDbScale
 70
     0
300
8:1
140
8.0
141
1.0
290
     0
  0
SCALE
  5
57
102
{ACAD_REACTORS
330
47
102
}
330
47
100
AcDbScale
 70
     0
300
10:1
140
10.0
141
1.0
290
     0
  0
SCALE
  5
58
102
{ACAD_REACTORS
330
47
102
}
330
47
100
AcDbScale
 70
     0
300
100:1
140
100.0
141
1.0
290
     0
  0
SCALE
  5
59
102
{ACAD_REACTORS
330
47
102
}
330
47
100
AcDbScale
 70
     0
300
1/128" = 1'-0"
140
0.0078125
141
12.0
290
     0
  0
SCALE
  5
5A
102
{ACAD_REACTORS
330
47
102
}
330
47
100
AcDbScale
 70
     0
300
1/64" = 1'-0"
140
0.015625
141
12.0
290
     0
  0
SCALE
  5
5B
102
{ACAD_REACTORS
330
47
102
}
330
47
100
AcDbScale
 70
     0
300
1/32" = 1'-0"
140
0.03125
141
12.0
290
     0
  0
SCALE
  5
5C
102
{ACAD_REACTORS
330
47
102
}
330
47
100
AcDbScale
 70
     0
300
1/16" = 1'-0"
140
0.0625
141
12.0
290
     0
  0
SCALE
  5
5D
102
{ACAD_REACTORS
330
47
102
}
330
47
100
AcDbScale
 70
     0
300
3/32" = 1'-0"
140
0.09375
141
12.0
290
     0
  0
SCALE
  5
5E
102
{ACAD_REACTORS
330
47
102
}
330
47
100
AcDbScale
 70
     0
300
1/8" = 1'-0"
140
0.125
141
12.0
290
     0
  0
SCALE
  5
5F
102
{ACAD_REACTORS
330
47
102
}
330
47
100
AcDbScale
 70
     0
300
3/16" = 1'-0"
140
0.1875
141
12.0
290
     0
  0
SCALE
  5
60
102
{ACAD_REACTORS
330
47
102
}
330
47
100
AcDbScale
 70
     0
300
1/4" = 1'-0"
140
0.25
141
12.0
290
     0
  0
SCALE
  5
61
102
{ACAD_REACTORS
330
47
102
}
330
47
100
AcDbScale
 70
     0
300
3/8" = 1'-0"
140
0.375
141
12.0
290
     0
  0
SCALE
  5
62
102
{ACAD_REACTORS
330
47
102
}
330
47
100
AcDbScale
 70
     0
300
1/2" = 1'-0"
140
0.5
141
12.0
290
     0
  0
SCALE
  5
63
102
{ACAD_REACTORS
330
47
102
}
330
47
100
AcDbScale
 70
     0
300
3/4" = 1'-0"
140
0.75
141
12.0
290
     0
  0
SCALE
  5
64
102
{ACAD_REACTORS
330
47
102
}
330
47
100
AcDbScale
 70
     0
300
1" = 1'-0"
140
1.0
141
12.0
290
     0
  0
SCALE
  5
65
102
{ACAD_REACTORS
330
47
102
}
330
47
100
AcDbScale
 70
     0
300
1-1/2" = 1'-0"
140
1.5
141
12.0
290
     0
  0
SCALE
  5
66
102
{ACAD_REACTORS
330
47
102
}
330
47
100
AcDbScale
 70
     0
300
3" = 1'-0"
140
3.0
141
12.0
290
     0
  0
SCALE
  5
67
102
{ACAD_REACTORS
330
47
102
}
330
47
100
AcDbScale
 70
     0
300
6" = 1'-0"
140
6.0
141
12.0
290
     0
  0
SCALE
  5
68
102
{ACAD_REACTORS
330
47
102
}
330
47
100
AcDbScale
 70
     0
300
1'-0" = 1'-0"
140
12.0
141
12.0
290
     0
  0
ENDSEC
  0
EOF
